<?xml version="1.0" encoding="UTF-8"?>
<svg version="1.1" xmlns="http://www.w3.org/2000/svg" width="512" height="512">
<path d="M0 0 C1.5253109 0.56272865 1.5253109 0.56272865 3.08143616 1.13682556 C6.42090031 2.37209173 9.75326391 3.62544781 13.0859375 4.87890625 C15.43810237 5.75269219 17.79072989 6.62523363 20.14379883 7.49658203 C24.95111609 9.27888485 29.75573781 11.06817341 34.55810547 12.86376953 C40.74014906 15.17453288 46.9285734 17.46748009 53.12109375 19.75 C54.96663653 20.43041336 56.81217691 21.11083324 58.65771484 21.79125977 C59.56269714 22.12489532 60.46767944 22.45853088 61.40008545 22.80227661 C66.08189679 24.5298441 70.76150569 26.26335835 75.44140625 27.99609375 C87.72418618 32.54244788 100.0142495 37.06897187 112.3046875 41.59457397 C115.93264672 42.93098493 119.56014531 44.26863861 123.1875 45.60668945 C133.70851091 49.486848 144.23090023 53.3626012 154.76742554 57.20046997 C159.05492696 58.76290818 163.3403331 60.33104253 167.62548828 61.89990234 C169.61971722 62.62820983 171.61497903 63.35369616 173.61132812 64.07617188 C176.34900893 65.06711155 179.08301103 66.06762362 181.81640625 67.0703125 C182.61052414 67.35479752 183.40464203 67.63928253 184.2228241 67.93238831 C190.80325186 70.36493778 196.28295207 72.84132301 199.4609375 79.44140625 C199.63696003 82.28951931 199.63696003 82.28951931 199.329422 85.61582947 C199.27359603 86.25466723 199.21777006 86.893505 199.16025239 87.55170149 C198.94962023 89.85102145 198.7073743 92.14565104 198.4609375 94.44140625 C198.3676025 95.33842546 198.2742675 96.23544466 198.17810416 97.15964627 C197.35698249 104.99571271 196.46272911 112.82302013 195.56518555 120.65063477 C195.26585638 123.28344388 194.9667859 125.91628139 194.66796875 128.54914856 C193.77601248 136.39968844 192.87719776 144.2494368 191.97725436 152.0990645 C191.63784636 155.06023868 191.29883883 158.02145865 190.95982897 160.98267843 C189.46347806 174.05254689 187.96489532 187.12215768 186.46036053 200.19108677 C186.09375103 203.37584251 185.72715736 206.56060008 185.3605957 209.74536133 C185.26950139 210.5367897 185.17840707 211.32821807 185.08455233 212.14362913 C183.60522894 224.99930548 182.13956629 237.85650144 180.67944553 250.71437145 C179.17736834 263.93969126 177.66302215 277.16356089 176.13664275 290.38609833 C175.28101642 297.80082299 174.43079871 305.21608087 173.59436607 312.63299751 C172.8831851 318.93897486 172.16094196 325.2435596 171.42416628 331.54659999 C171.0488098 334.76069033 170.68053987 337.97531565 170.32293892 341.19143677 C169.93436567 344.6783958 169.52580957 348.16244614 169.11210632 351.64649963 C168.94967746 353.16909758 168.94967746 353.16909758 168.7839672 354.72245508 C168.08722773 360.37843202 167.18173816 364.06079036 163.4609375 368.44140625 C161.10944366 370.11273994 158.90933333 371.50331978 156.3984375 372.87890625 C155.66947266 373.29301758 154.94050781 373.70712891 154.18945312 374.13378906 C151.6218725 375.58553232 149.04202861 377.01382971 146.4609375 378.44140625 C144.378633 379.60367726 142.29661675 380.76646479 140.21484375 381.9296875 C135.62970311 384.48640362 131.03946922 387.03374913 126.4453125 389.57421875 C119.85602388 393.21839204 113.28025102 396.88635507 106.7109375 400.56640625 C105.68291016 401.14229492 104.65488281 401.71818359 103.59570312 402.31152344 C95.7610846 406.70455906 87.94065538 411.1224231 80.12402344 415.54736328 C72.02911982 420.12726507 63.91433713 424.67117164 55.796875 429.2109375 C48.84123935 433.10298673 41.89710465 437.01477758 34.9609375 440.94140625 C23.71182037 447.30905271 12.45815196 453.67151066 1.14550781 459.92578125 C-0.58333424 460.90183176 -2.29451767 461.9102053 -3.98144531 462.95703125 C-8.74904067 465.85957755 -12.86667635 467.7835037 -18.5390625 466.44140625 C-22.07804444 465.0131343 -25.31046621 463.17734743 -28.6015625 461.25390625 C-29.55764404 460.71362793 -30.51372559 460.17334961 -31.4987793 459.61669922 C-33.51310505 458.47621725 -35.5232268 457.32828148 -37.52929688 456.17333984 C-40.41425328 454.51322622 -43.30974573 452.87372985 -46.2109375 451.2421875 C-50.01865438 449.09999578 -53.82180142 446.95006675 -57.62109375 444.79296875 C-63.74700467 441.3183888 -69.89176173 437.8779627 -76.0390625 434.44140625 C-84.99849914 429.43098116 -93.94188313 424.39311523 -102.875 419.3359375 C-109.91852597 415.35103856 -116.97596967 411.39150631 -124.0390625 407.44140625 C-132.98840113 402.43640576 -141.92385759 397.40775347 -150.84423828 392.35131836 C-155.95767236 389.45553058 -161.08119198 386.57936429 -166.21875 383.7265625 C-167.33572266 383.10523438 -168.45269531 382.48390625 -169.60351562 381.84375 C-171.74366905 380.654355 -173.88548696 379.46794793 -176.02929688 378.28515625 C-180.60809139 375.73837113 -185.14905135 373.14430383 -189.578125 370.34375 C-190.62154053 369.68427368 -190.62154053 369.68427368 -191.68603516 369.01147461 C-197.23574482 364.30921073 -197.37257348 358.18203092 -198.12139893 351.38470459 C-198.25534144 350.25563855 -198.38928396 349.12657252 -198.52728534 347.96329236 C-198.97392472 344.17305504 -199.40341929 340.38107207 -199.83300781 336.58886719 C-200.14802454 333.87343115 -200.46660901 331.15841638 -200.78500366 328.44337463 C-201.55837087 321.82940882 -202.31885102 315.21402209 -203.07480863 308.59804621 C-203.68967341 303.21920671 -204.30934435 297.84094096 -204.93245697 292.46305084 C-205.02115078 291.69755173 -205.1098446 290.93205263 -205.2012261 290.14335658 C-205.38143807 288.5882053 -205.56166324 287.03305556 -205.74190149 285.47790733 C-207.43182509 270.89217383 -209.10738093 256.3048177 -210.77784047 241.71684399 C-212.21057033 229.20763074 -213.65469853 216.69977771 -215.10742188 204.19287109 C-216.79486104 189.66514293 -218.47583992 175.13669288 -220.14610744 160.60697961 C-220.32437624 159.05632732 -220.50265077 157.50567569 -220.68093109 155.95502472 C-220.76863837 155.19210752 -220.85634565 154.42919033 -220.94671072 153.64315443 C-221.56429732 148.27482482 -222.18640443 142.9070302 -222.81021881 137.53942108 C-223.57092252 130.99261699 -224.32432392 124.44502046 -225.06853679 117.89632049 C-225.44821152 114.55690596 -225.83211363 111.21812776 -226.22262955 107.87995338 C-226.64596571 104.25631001 -227.05686274 100.63146258 -227.46466064 97.00604248 C-227.59003747 95.95787597 -227.7154143 94.90970947 -227.84459043 93.82978034 C-228.47849534 88.05932468 -229.10118599 82.11683381 -227.5390625 76.44140625 C-223.55551916 71.99762498 -219.09518636 70.15079145 -213.55078125 68.19140625 C-212.76132614 67.90098953 -211.97187103 67.61057281 -211.15849304 67.31135559 C-208.51855579 66.34322334 -205.87266207 65.39255303 -203.2265625 64.44140625 C-201.3200258 63.7456151 -199.41395051 63.04855854 -197.50830078 62.3503418 C-193.37825325 60.83885243 -189.24586675 59.33400165 -185.11181641 57.83349609 C-178.40657593 55.39706112 -171.71204261 52.93209087 -165.01953125 50.4609375 C-163.87276917 50.03757111 -162.72600708 49.61420471 -161.54449463 49.17800903 C-159.1931642 48.30990819 -156.84184595 47.44177434 -154.49053955 46.5736084 C-148.43644804 44.3396789 -142.38031864 42.11129039 -136.32421875 39.8828125 C-133.86213777 38.97673656 -131.40006096 38.07064929 -128.93798828 37.16455078 C-127.71670227 36.71509094 -126.49541626 36.2656311 -125.23712158 35.80255127 C-117.89028311 33.09839961 -110.54386705 30.39310053 -103.19792175 27.68652344 C-97.21672759 25.48279477 -91.23495559 23.28067022 -85.25170898 21.08251953 C-74.93245085 17.28901532 -64.61891519 13.48314599 -54.33399963 9.59732056 C-50.0566584 7.98148461 -45.77609779 6.37427162 -41.49545288 4.76721191 C-39.50731799 4.01756389 -37.52095254 3.2632036 -35.53652954 2.50378418 C-32.82155804 1.46483591 -30.10106489 0.44181308 -27.37890625 -0.578125 C-26.59516632 -0.88323502 -25.81142639 -1.18834503 -25.00393677 -1.50270081 C-15.63167907 -4.97182756 -9.08401677 -3.45757641 0 0 Z " fill="#E72348" transform="translate(270.5390625,24.55859375)"/>
<path d="M0 0 C0 13.2 0 26.4 0 40 C2.31 40 4.62 40 7 40 C13.18745116 42.59009583 15.83173964 48.18034831 18.30625916 54.14756775 C18.55968582 54.77691727 18.81311249 55.40626678 19.07421875 56.0546875 C19.35483658 56.73547867 19.63545441 57.41626984 19.92457581 58.11769104 C20.53187122 59.59261347 21.1363044 61.06871704 21.73815918 62.54586792 C23.39378921 66.60782431 25.07182518 70.66054322 26.74609375 74.71484375 C27.09539948 75.56238724 27.4447052 76.40993073 27.80459595 77.28315735 C31.55139631 86.36376631 35.39669818 95.40169612 39.25 104.4375 C40.68543519 107.80706211 42.12017328 111.17692071 43.5546875 114.546875 C43.91654648 115.39683548 44.27840546 116.24679596 44.65122986 117.12251282 C48.91219637 127.13584588 53.14436319 137.16132356 57.375 147.1875 C57.77005737 148.12367157 58.16511475 149.05984314 58.57214355 150.02438354 C60.57930166 154.78094817 62.58612549 159.53765373 64.59277344 164.29443359 C68.16471806 172.76129877 71.73972381 181.22687143 75.31451416 189.6925354 C77.29313629 194.37830338 79.27155795 199.06415599 81.25 203.75 C82.04166571 205.62500041 82.83333237 207.50000041 83.625 209.375 C88.37499983 220.6249996 88.37499983 220.6249996 89.56233215 223.43710327 C90.35455754 225.31342602 91.1467837 227.18974845 91.93901062 229.06607056 C93.90963512 233.7333298 95.88024658 238.40059454 97.85083008 243.06787109 C101.51493487 251.74617154 105.17916264 260.42442 108.84384155 269.10247803 C110.54877619 273.13983086 112.25363862 277.17721419 113.95849609 281.21459961 C114.76038087 283.11354051 115.56229986 285.01246696 116.36425781 286.91137695 C116.93031738 288.25171997 116.93031738 288.25171997 117.5078125 289.61914062 C117.87846832 290.49596497 118.24912415 291.37278931 118.63101196 292.27618408 C119.35698454 293.99734381 120.08032557 295.71961616 120.8008728 297.4430542 C122.59515007 301.72673425 124.43393966 305.98063383 126.36181641 310.20605469 C126.73985916 311.05247528 127.11790192 311.89889587 127.50740051 312.77096558 C128.21870885 314.36046858 128.94578184 315.94305946 129.69218445 317.51638794 C132.07131318 322.89517975 132.45919677 327.26021994 131 333 C129.29565275 335.84057875 128.09168358 336.7082042 124.91015625 337.55859375 C121.27856098 338.14472477 118.93472369 338.36987533 115.453125 336.9921875 C112.10379857 334.2721931 110.80604586 331.07561575 109.1875 327.1875 C108.82205078 326.34437256 108.45660156 325.50124512 108.08007812 324.63256836 C106.70068872 321.42966797 105.35019174 318.21532018 104 315 C103.39056723 313.55808619 102.78067747 312.11636548 102.17041016 310.67480469 C99.05587057 303.31575138 95.95196873 295.95237542 92.86576843 288.58139038 C90.26429871 282.36860886 87.65249765 276.16212746 84.96875 269.984375 C84.54207031 269.00202881 84.11539062 268.01968262 83.67578125 267.00756836 C82.91744671 265.26935097 82.15474609 263.53302872 81.38671875 261.79907227 C79 256.32614075 79 256.32614075 79 253 C52.93 253 26.86 253 0 253 C0 307.78 0 362.56 0 419 C-3.92106316 417.43157474 -7.35104726 415.79490249 -11.0234375 413.76171875 C-11.88429459 413.2864399 -11.88429459 413.2864399 -12.76254272 412.80155945 C-14.63504339 411.76654475 -16.50508045 410.72716957 -18.375 409.6875 C-19.68644999 408.96096767 -20.9979743 408.23456947 -22.30957031 407.50830078 C-32.01528344 402.12795981 -41.68336721 396.68210123 -51.3359375 391.20703125 C-57.33721281 387.80449444 -63.35462882 384.43110769 -69.375 381.0625 C-70.41430664 380.48097168 -71.45361328 379.89944336 -72.52441406 379.30029297 C-74.63046792 378.12211521 -76.73658788 376.94405559 -78.84277344 375.76611328 C-85.10415871 372.26357222 -91.36364015 368.75762695 -97.62231445 365.25024414 C-102.83965938 362.32698148 -108.0596107 359.40858134 -113.28515625 356.5 C-124.07724892 350.48680808 -134.82500112 344.40665959 -145.5 338.1875 C-146.53970947 337.58228516 -147.57941895 336.97707031 -148.65063477 336.35351562 C-155.87188697 332.12811303 -155.87188697 332.12811303 -157 331 C-157.26016462 329.463125 -157.46118837 327.91617365 -157.63745117 326.36743164 C-157.75244461 325.38012558 -157.86743805 324.39281952 -157.98591614 323.37559509 C-158.1078685 322.29387527 -158.22982086 321.21215546 -158.35546875 320.09765625 C-158.62356848 317.79045548 -158.89230589 315.48332874 -159.16162109 313.17626953 C-159.30001404 311.98350403 -159.43840698 310.79073853 -159.58099365 309.56182861 C-160.22857358 304.05697473 -160.92069983 298.55793536 -161.61328125 293.05859375 C-164.99222742 266.04881357 -168.16656138 239.03020425 -170.95825195 211.95288086 C-171.07350723 210.84602936 -171.18876251 209.73917786 -171.30751038 208.5987854 C-171.51621912 206.59120057 -171.72217232 204.58332526 -171.92405701 202.57504272 C-172.61824142 195.90389366 -173.4971116 189.26584029 -174.41625977 182.62280273 C-175.98038145 171.31067197 -177.36455944 159.98184472 -178.69921875 148.640625 C-178.94154551 146.58852035 -179.1838807 144.53641669 -179.42622375 142.48431396 C-179.92771022 138.23256229 -180.42737895 133.98060125 -180.92602539 129.72851562 C-181.56284749 124.30158577 -182.20699532 118.87555102 -182.85277081 113.44968033 C-183.35339127 109.23265784 -183.84880855 105.01503568 -184.34281349 100.79723358 C-184.57812138 98.79568787 -184.81532588 96.7943641 -185.05454063 94.79328156 C-185.38780699 92.00114834 -185.71368052 89.20824203 -186.0378418 86.41503906 C-186.13598679 85.60658539 -186.23413177 84.79813171 -186.33525085 83.96517944 C-186.98278116 78.29226699 -187.10398505 72.70712563 -187 67 C-185.90945312 66.65388672 -185.90945312 66.65388672 -184.796875 66.30078125 C-179.55812459 64.60154554 -174.43087456 62.81304655 -169.375 60.625 C-164.32641677 58.46510744 -159.2168396 56.6958247 -154 55 C-147.83198846 52.99319202 -141.85547991 50.7757027 -135.89453125 48.20703125 C-131.62109859 46.42499253 -127.26134001 44.91475189 -122.89453125 43.37890625 C-118.45576271 41.81573277 -114.04002575 40.19132724 -109.625 38.5625 C-108.81836914 38.26504883 -108.01173828 37.96759766 -107.18066406 37.66113281 C-100.8430859 35.31981332 -94.51796469 32.9463293 -88.19921875 30.5546875 C-84.79166137 29.28023272 -81.36605093 28.0605228 -77.9375 26.84375 C-67.69567383 23.19552892 -57.50775317 19.40095867 -47.3125 15.625 C-45.32099146 14.8879454 -43.32945514 14.15096585 -41.33789062 13.4140625 C-40.35859589 13.0515741 -39.37930115 12.68908569 -38.37033081 12.31561279 C-36.41831708 11.59365479 -34.46594843 10.87265564 -32.51321411 10.15264893 C-27.8287183 8.42429574 -23.15098911 6.68134285 -18.48583984 4.90136719 C-17.61904099 4.57365326 -16.75224213 4.24593933 -15.85917664 3.90829468 C-14.23977599 3.29554315 -12.62273235 2.67650983 -11.00862122 2.04995728 C-10.2880101 1.7787204 -9.56739899 1.50748352 -8.82495117 1.22802734 C-8.2035173 0.98966156 -7.58208344 0.75129578 -6.94181824 0.50570679 C-5 0 -5 0 0 0 Z " fill="#FE355C" transform="translate(252,46)"/>
<path d="M0 0 C1.5253109 0.56272865 1.5253109 0.56272865 3.08143616 1.13682556 C6.42090031 2.37209173 9.75326391 3.62544781 13.0859375 4.87890625 C15.43810237 5.75269219 17.79072989 6.62523363 20.14379883 7.49658203 C24.95111609 9.27888485 29.75573781 11.06817341 34.55810547 12.86376953 C40.74014906 15.17453288 46.9285734 17.46748009 53.12109375 19.75 C54.96663653 20.43041336 56.81217691 21.11083324 58.65771484 21.79125977 C59.56269714 22.12489532 60.46767944 22.45853088 61.40008545 22.80227661 C66.08189679 24.5298441 70.76150569 26.26335835 75.44140625 27.99609375 C87.72418618 32.54244788 100.0142495 37.06897187 112.3046875 41.59457397 C115.93264672 42.93098493 119.56014531 44.26863861 123.1875 45.60668945 C133.70851091 49.486848 144.23090023 53.3626012 154.76742554 57.20046997 C159.05492696 58.76290818 163.3403331 60.33104253 167.62548828 61.89990234 C169.61971722 62.62820983 171.61497903 63.35369616 173.61132812 64.07617188 C176.34900893 65.06711155 179.08301103 66.06762362 181.81640625 67.0703125 C182.61052414 67.35479752 183.40464203 67.63928253 184.2228241 67.93238831 C190.80325186 70.36493778 196.28295207 72.84132301 199.4609375 79.44140625 C199.63696003 82.28951931 199.63696003 82.28951931 199.329422 85.61582947 C199.27359603 86.25466723 199.21777006 86.893505 199.16025239 87.55170149 C198.94962023 89.85102145 198.7073743 92.14565104 198.4609375 94.44140625 C198.3676025 95.33842546 198.2742675 96.23544466 198.17810416 97.15964627 C197.35698249 104.99571271 196.46272911 112.82302013 195.56518555 120.65063477 C195.26585638 123.28344388 194.9667859 125.91628139 194.66796875 128.54914856 C193.77601248 136.39968844 192.87719776 144.2494368 191.97725436 152.0990645 C191.63784636 155.06023868 191.29883883 158.02145865 190.95982897 160.98267843 C189.46347806 174.05254689 187.96489532 187.12215768 186.46036053 200.19108677 C186.09375103 203.37584251 185.72715736 206.56060008 185.3605957 209.74536133 C185.26950139 210.5367897 185.17840707 211.32821807 185.08455233 212.14362913 C183.60522894 224.99930548 182.13956629 237.85650144 180.67944553 250.71437145 C179.17736834 263.93969126 177.66302215 277.16356089 176.13664275 290.38609833 C175.28101642 297.80082299 174.43079871 305.21608087 173.59436607 312.63299751 C172.8831851 318.93897486 172.16094196 325.2435596 171.42416628 331.54659999 C171.0488098 334.76069033 170.68053987 337.97531565 170.32293892 341.19143677 C169.93436567 344.6783958 169.52580957 348.16244614 169.11210632 351.64649963 C168.94967746 353.16909758 168.94967746 353.16909758 168.7839672 354.72245508 C168.08722773 360.37843202 167.18173816 364.06079036 163.4609375 368.44140625 C161.10944366 370.11273994 158.90933333 371.50331978 156.3984375 372.87890625 C155.66947266 373.29301758 154.94050781 373.70712891 154.18945312 374.13378906 C151.6218725 375.58553232 149.04202861 377.01382971 146.4609375 378.44140625 C144.378633 379.60367726 142.29661675 380.76646479 140.21484375 381.9296875 C135.62970311 384.48640362 131.03946922 387.03374913 126.4453125 389.57421875 C119.85602388 393.21839204 113.28025102 396.88635507 106.7109375 400.56640625 C105.68291016 401.14229492 104.65488281 401.71818359 103.59570312 402.31152344 C95.7610846 406.70455906 87.94065538 411.1224231 80.12402344 415.54736328 C72.02911982 420.12726507 63.91433713 424.67117164 55.796875 429.2109375 C48.84123935 433.10298673 41.89710465 437.01477758 34.9609375 440.94140625 C23.71182037 447.30905271 12.45815196 453.67151066 1.14550781 459.92578125 C-0.58333424 460.90183176 -2.29451767 461.9102053 -3.98144531 462.95703125 C-8.74904067 465.85957755 -12.86667635 467.7835037 -18.5390625 466.44140625 C-22.07804444 465.0131343 -25.31046621 463.17734743 -28.6015625 461.25390625 C-29.55764404 460.71362793 -30.51372559 460.17334961 -31.4987793 459.61669922 C-33.51310505 458.47621725 -35.5232268 457.32828148 -37.52929688 456.17333984 C-40.41425328 454.51322622 -43.30974573 452.87372985 -46.2109375 451.2421875 C-50.01865438 449.09999578 -53.82180142 446.95006675 -57.62109375 444.79296875 C-63.74700467 441.3183888 -69.89176173 437.8779627 -76.0390625 434.44140625 C-84.99849914 429.43098116 -93.94188313 424.39311523 -102.875 419.3359375 C-109.91852597 415.35103856 -116.97596967 411.39150631 -124.0390625 407.44140625 C-132.98840113 402.43640576 -141.92385759 397.40775347 -150.84423828 392.35131836 C-155.95767236 389.45553058 -161.08119198 386.57936429 -166.21875 383.7265625 C-167.33572266 383.10523438 -168.45269531 382.48390625 -169.60351562 381.84375 C-171.74366905 380.654355 -173.88548696 379.46794793 -176.02929688 378.28515625 C-180.60809139 375.73837113 -185.14905135 373.14430383 -189.578125 370.34375 C-190.62154053 369.68427368 -190.62154053 369.68427368 -191.68603516 369.01147461 C-197.23574482 364.30921073 -197.37257348 358.18203092 -198.12139893 351.38470459 C-198.25534144 350.25563855 -198.38928396 349.12657252 -198.52728534 347.96329236 C-198.97392472 344.17305504 -199.40341929 340.38107207 -199.83300781 336.58886719 C-200.14802454 333.87343115 -200.46660901 331.15841638 -200.78500366 328.44337463 C-201.55837087 321.82940882 -202.31885102 315.21402209 -203.07480863 308.59804621 C-203.68967341 303.21920671 -204.30934435 297.84094096 -204.93245697 292.46305084 C-205.02115078 291.69755173 -205.1098446 290.93205263 -205.2012261 290.14335658 C-205.38143807 288.5882053 -205.56166324 287.03305556 -205.74190149 285.47790733 C-207.43182509 270.89217383 -209.10738093 256.3048177 -210.77784047 241.71684399 C-212.21057033 229.20763074 -213.65469853 216.69977771 -215.10742188 204.19287109 C-216.79486104 189.66514293 -218.47583992 175.13669288 -220.14610744 160.60697961 C-220.32437624 159.05632732 -220.50265077 157.50567569 -220.68093109 155.95502472 C-220.76863837 155.19210752 -220.85634565 154.42919033 -220.94671072 153.64315443 C-221.56429732 148.27482482 -222.18640443 142.9070302 -222.81021881 137.53942108 C-223.57092252 130.99261699 -224.32432392 124.44502046 -225.06853679 117.89632049 C-225.44821152 114.55690596 -225.83211363 111.21812776 -226.22262955 107.87995338 C-226.64596571 104.25631001 -227.05686274 100.63146258 -227.46466064 97.00604248 C-227.59003747 95.95787597 -227.7154143 94.90970947 -227.84459043 93.82978034 C-228.47849534 88.05932468 -229.10118599 82.11683381 -227.5390625 76.44140625 C-223.55551916 71.99762498 -219.09518636 70.15079145 -213.55078125 68.19140625 C-212.76132614 67.90098953 -211.97187103 67.61057281 -211.15849304 67.31135559 C-208.51855579 66.34322334 -205.87266207 65.39255303 -203.2265625 64.44140625 C-201.3200258 63.7456151 -199.41395051 63.04855854 -197.50830078 62.3503418 C-193.37825325 60.83885243 -189.24586675 59.33400165 -185.11181641 57.83349609 C-178.40657593 55.39706112 -171.71204261 52.93209087 -165.01953125 50.4609375 C-163.87276917 50.03757111 -162.72600708 49.61420471 -161.54449463 49.17800903 C-159.1931642 48.30990819 -156.84184595 47.44177434 -154.49053955 46.5736084 C-148.43644804 44.3396789 -142.38031864 42.11129039 -136.32421875 39.8828125 C-133.86213777 38.97673656 -131.40006096 38.07064929 -128.93798828 37.16455078 C-127.71670227 36.71509094 -126.49541626 36.2656311 -125.23712158 35.80255127 C-117.89028311 33.09839961 -110.54386705 30.39310053 -103.19792175 27.68652344 C-97.21672759 25.48279477 -91.23495559 23.28067022 -85.25170898 21.08251953 C-74.93245085 17.28901532 -64.61891519 13.48314599 -54.33399963 9.59732056 C-50.0566584 7.98148461 -45.77609779 6.37427162 -41.49545288 4.76721191 C-39.50731799 4.01756389 -37.52095254 3.2632036 -35.53652954 2.50378418 C-32.82155804 1.46483591 -30.10106489 0.44181308 -27.37890625 -0.578125 C-26.59516632 -0.88323502 -25.81142639 -1.18834503 -25.00393677 -1.50270081 C-15.63167907 -4.97182756 -9.08401677 -3.45757641 0 0 Z M-19.78808594 19.91918945 C-20.67312302 20.24442596 -21.5581601 20.56966248 -22.47001648 20.90475464 C-23.43639542 21.26360748 -24.40277435 21.62246033 -25.3984375 21.9921875 C-26.4030452 22.36231964 -27.40765289 22.73245178 -28.44270325 23.11380005 C-31.72593032 24.32419108 -35.00748877 25.5390407 -38.2890625 26.75390625 C-40.53234997 27.58178882 -42.77575843 28.40934361 -45.01928711 29.23657227 C-49.47217207 30.87871556 -53.92452081 32.5222998 -58.37646484 34.16699219 C-66.27953691 37.08543747 -74.18986413 39.98394744 -82.1015625 42.87890625 C-90.06250997 45.79284942 -98.01379 48.72689428 -105.94140625 51.73046875 C-115.51149227 55.34700954 -125.12617008 58.83188145 -134.75756836 62.28173828 C-142.51069402 65.06045656 -150.22145572 67.91151268 -157.88037109 70.93994141 C-165.54567104 73.96460911 -173.23213483 76.70817333 -181.0703125 79.25390625 C-185.40550392 80.73802583 -189.58859625 82.49706641 -193.796875 84.3046875 C-197.65030603 85.90204993 -201.56350529 87.1824798 -205.5390625 88.44140625 C-205.80223541 97.52312107 -204.77880459 106.35851259 -203.7109375 115.35546875 C-203.51827871 117.0132422 -203.32608914 118.67107025 -203.13433838 120.32894897 C-202.62809126 124.69346361 -202.11478306 129.05712068 -201.60015869 133.4206543 C-201.19241027 136.88839585 -200.78982321 140.35672664 -200.3874979 143.8251009 C-198.01549632 164.26972489 -195.54257059 184.7000504 -192.95928955 205.11901855 C-191.99462657 212.74581079 -191.04103874 220.37397031 -190.1015625 228.00390625 C-189.99989777 228.82928894 -189.89823303 229.65467163 -189.79348755 230.50506592 C-187.91162773 245.84868492 -186.26478183 261.21310025 -184.66146851 276.58798218 C-183.25157634 290.08317481 -181.75897568 303.55575388 -179.90673828 316.99829102 C-179.09747482 322.88667303 -178.40212388 328.74504315 -177.94140625 334.671875 C-177.84037598 335.82510254 -177.7393457 336.97833008 -177.63525391 338.16650391 C-177.45299451 340.31063986 -177.30277581 342.4578737 -177.19287109 344.60693359 C-176.7160884 349.94666522 -176.7160884 349.94666522 -173.77539062 354.25317383 C-171.43645399 355.86132156 -169.07221359 357.16241921 -166.5390625 358.44140625 C-164.91111853 359.35877224 -163.28351813 360.2767482 -161.65625 361.1953125 C-159.91083146 362.13519167 -158.16334219 363.07123305 -156.4140625 364.00390625 C-148.63931337 368.19704417 -140.90859886 372.45565071 -133.2265625 376.81640625 C-125.21817688 381.35975593 -117.19938166 385.8833339 -109.1640625 390.37890625 C-108.12531982 390.9601123 -107.08657715 391.54131836 -106.01635742 392.14013672 C-103.90973682 393.31864522 -101.80304723 394.49703041 -99.69628906 395.67529297 C-93.43577342 399.17734757 -87.17757638 402.68354378 -80.91894531 406.18896484 C-75.68631202 409.1195341 -70.45312028 412.04909669 -65.21875 414.9765625 C-52.92137082 421.85572363 -40.63864417 428.76007912 -28.375 435.69921875 C-27.5406543 436.16618164 -26.70630859 436.63314453 -25.84667969 437.11425781 C-24.39367353 437.94990545 -22.95831203 438.81782388 -21.55175781 439.72949219 C-18.74295503 441.52473027 -17.06909859 442.48223071 -13.69262695 442.22216797 C-10.34456282 441.39325188 -7.85219686 440.21834407 -4.85546875 438.51953125 C-3.77507324 437.91294678 -2.69467773 437.3063623 -1.58154297 436.68139648 C-0.42145448 436.01823256 0.73853658 435.35489818 1.8984375 434.69140625 C3.11005598 434.00708174 4.32213975 433.32358043 5.53466797 432.64086914 C8.60463522 430.90980206 11.66881706 429.16876899 14.73150635 427.42486572 C17.30846117 425.95945288 19.89050445 424.50310618 22.47265625 423.046875 C26.22352139 420.93088621 29.97198613 418.81074176 33.71875 416.6875 C39.78806999 413.25170079 45.8736887 409.84531171 51.9609375 406.44140625 C63.81492637 399.81108491 75.641515 393.13310548 87.4609375 386.44140625 C91.25223527 384.2949203 95.04386159 382.14901723 98.8359375 380.00390625 C100.23743042 379.21089111 100.23743042 379.21089111 101.66723633 378.40185547 C106.80863302 375.49563875 111.95688025 372.60217576 117.11328125 369.72265625 C118.22461426 369.10189209 119.33594727 368.48112793 120.48095703 367.84155273 C122.60741774 366.65470195 124.73464303 365.46921953 126.86279297 364.28540039 C137.24389095 359.16596251 137.24389095 359.16596251 146.4609375 352.44140625 C146.82740673 350.15611189 147.13394666 347.88704146 147.40625 345.58984375 C147.54188858 344.48542938 147.54188858 344.48542938 147.68026733 343.35870361 C147.98703713 340.84517047 148.28671164 338.330848 148.5859375 335.81640625 C148.80402965 334.00829996 149.02212882 332.20019452 149.24023438 330.39208984 C151.57783882 310.8815081 153.716565 291.34807216 155.87133789 271.81665039 C157.54774919 256.6242088 159.24589713 241.43489931 161.0234375 226.25390625 C161.12173859 225.41417267 161.22003967 224.57443909 161.32131958 223.70925903 C161.72043341 220.30152899 162.11981994 216.89383112 162.5196991 213.4861908 C164.08296707 200.15433608 165.61359401 186.81868113 167.14941406 173.48364258 C167.40167353 171.29378034 167.65395227 169.10392033 167.90625 166.9140625 C168.09501709 165.27550041 168.09501709 165.27550041 168.28759766 163.60383606 C169.09384635 156.6105675 169.90470782 149.61784745 170.71867371 142.62547302 C171.27167086 137.87403303 171.82327071 133.12243124 172.37478638 128.37081909 C172.63733731 126.11221377 172.90056476 123.85368697 173.16452026 121.59524536 C175.04998171 105.54169468 175.04998171 105.54169468 176.4609375 89.44140625 C168.73551218 86.16503177 160.96966955 83.07053738 153.09375 80.17578125 C152.03805313 79.78546219 150.98235626 79.39514313 149.89466858 78.99299622 C146.45928244 77.72346338 143.02262437 76.4574132 139.5859375 75.19140625 C137.15657194 74.29441951 134.72729261 73.39719923 132.2980957 72.49975586 C127.36440041 70.67743959 122.43021749 68.85645346 117.49560547 67.03662109 C111.22359972 64.72332895 104.95317723 62.40578539 98.68359375 60.0859375 C82.98801962 54.27928641 67.28970225 48.48020366 51.58353233 42.70226479 C49.66329706 41.99581215 47.74311559 41.28921349 45.82295227 40.58256531 C44.5431827 40.11160189 43.26341281 39.64063936 41.98364258 39.16967773 C41.35092343 38.93682918 40.71820429 38.70398062 40.06631184 38.46407604 C35.7890816 36.89016438 31.5111812 35.31808315 27.2331543 33.74633789 C24.94310202 32.90406574 22.65314226 32.061542 20.36328125 31.21875 C19.26727097 30.81550003 18.17126068 30.41225006 17.04203796 29.9967804 C8.910622 26.99662392 0.80748089 23.92606211 -7.26856995 20.7797699 C-8.06995895 20.47031937 -8.87134796 20.16086884 -9.69702148 19.84204102 C-10.39488266 19.57013443 -11.09274384 19.29822784 -11.81175232 19.01808167 C-14.90232375 17.98627129 -16.81995932 18.82237783 -19.78808594 19.91918945 Z " fill="#191718" transform="translate(270.5390625,24.55859375)"/>
<path d="M0 0 C6.18745116 2.59009583 8.83173964 8.18034831 11.30625916 14.14756775 C11.68639915 15.09159203 11.68639915 15.09159203 12.07421875 16.0546875 C12.49514549 17.07587425 12.49514549 17.07587425 12.92457581 18.11769104 C13.53187122 19.59261347 14.1363044 21.06871704 14.73815918 22.54586792 C16.39378921 26.60782431 18.07182518 30.66054322 19.74609375 34.71484375 C20.27005234 35.98615898 20.27005234 35.98615898 20.80459595 37.28315735 C24.55139631 46.36376631 28.39669818 55.40169612 32.25 64.4375 C33.68543519 67.80706211 35.12017328 71.17692071 36.5546875 74.546875 C36.91654648 75.39683548 37.27840546 76.24679596 37.65122986 77.12251282 C41.91219637 87.13584588 46.14436319 97.16132356 50.375 107.1875 C50.96758606 108.59175735 50.96758606 108.59175735 51.57214355 110.02438354 C53.57930166 114.78094817 55.58612549 119.53765373 57.59277344 124.29443359 C61.16471806 132.76129877 64.73972381 141.22687143 68.31451416 149.6925354 C70.29313629 154.37830338 72.27155795 159.06415599 74.25 163.75 C75.04166571 165.62500041 75.83333237 167.50000041 76.625 169.375 C81.37499996 180.62499991 81.37499996 180.62499991 82.56233215 183.43710327 C83.35455754 185.31342602 84.1467837 187.18974845 84.93901062 189.06607056 C86.90963512 193.7333298 88.88024658 198.40059454 90.85083008 203.06787109 C94.51493487 211.74617154 98.17916264 220.42442 101.84384155 229.10247803 C103.54877619 233.13983086 105.25363862 237.17721419 106.95849609 241.21459961 C107.76038087 243.11354051 108.56229986 245.01246696 109.36425781 246.91137695 C109.93031738 248.25171997 109.93031738 248.25171997 110.5078125 249.61914062 C110.87846832 250.49596497 111.24912415 251.37278931 111.63101196 252.27618408 C112.35698454 253.99734381 113.08032557 255.71961616 113.8008728 257.4430542 C115.59515007 261.72673425 117.43393966 265.98063383 119.36181641 270.20605469 C119.73985916 271.05247528 120.11790192 271.89889587 120.50740051 272.77096558 C121.21870885 274.36046858 121.94578184 275.94305946 122.69218445 277.51638794 C125.07131318 282.89517975 125.45919677 287.26021994 124 293 C122.29565275 295.84057875 121.09168358 296.7082042 117.91015625 297.55859375 C114.27856098 298.14472477 111.93472369 298.36987533 108.453125 296.9921875 C105.10379857 294.2721931 103.80604586 291.07561575 102.1875 287.1875 C101.82205078 286.34437256 101.45660156 285.50124512 101.08007812 284.63256836 C99.70068872 281.42966797 98.35019174 278.21532018 97 275 C96.39056723 273.55808619 95.78067747 272.11636548 95.17041016 270.67480469 C92.05587057 263.31575138 88.95196873 255.95237542 85.86576843 248.58139038 C83.26429871 242.36860886 80.65249765 236.16212746 77.96875 229.984375 C77.54207031 229.00202881 77.11539063 228.01968262 76.67578125 227.00756836 C75.91744671 225.26935097 75.15474609 223.53302872 74.38671875 221.79907227 C72 216.32614075 72 216.32614075 72 213 C22.5 213 -27 213 -78 213 C-78.33 214.65 -78.66 216.3 -79 218 C-80.06349719 220.72178025 -81.16415491 223.39831065 -82.32421875 226.078125 C-82.66240128 226.87020355 -83.0005838 227.6622821 -83.34901428 228.47836304 C-84.45714269 231.0709505 -85.57202726 233.6605649 -86.6875 236.25 C-87.84710995 238.95212161 -89.00555957 241.65473829 -90.16378784 244.35745239 C-90.95075486 246.19369515 -91.73829578 248.02969205 -92.52639771 249.865448 C-95.07878451 255.81894914 -97.58740738 261.78904942 -100.06640625 267.7734375 C-100.99886915 270.01352712 -101.93204374 272.25331904 -102.86538696 274.49304199 C-103.45018848 275.90244048 -104.03145087 277.31331323 -104.60897827 278.72570801 C-105.41210301 280.68842571 -106.22809361 282.64533505 -107.046875 284.6015625 C-107.72508301 286.24632568 -107.72508301 286.24632568 -108.41699219 287.92431641 C-110.5033286 291.9779355 -112.93269617 296.09757693 -117.24609375 297.98046875 C-121.56514518 298.38850748 -123.56267513 298.23428118 -127.5 296.125 C-130.40673313 293.20296497 -130.73573596 290.45167214 -131.07141113 286.4576416 C-130.94713213 282.18053199 -129.35643186 278.71271742 -127.609375 274.859375 C-127.23809479 273.99610092 -126.86681458 273.13282684 -126.48428345 272.24339294 C-125.25815387 269.40375812 -124.00407219 266.57739129 -122.75 263.75 C-121.87886303 261.74483312 -121.00992219 259.73871085 -120.14306641 257.73168945 C-118.33917232 253.55974262 -116.5258811 249.392071 -114.70605469 245.22705078 C-110.90864621 236.51521953 -107.23258334 227.75271015 -103.55310059 218.99060059 C-101.58052085 214.29716482 -99.59899754 209.6075129 -97.6171875 204.91796875 C-97.22970337 204.00089142 -96.84221924 203.08381409 -96.44299316 202.13894653 C-92.12955888 191.93422144 -87.79279602 181.7394367 -83.45544434 171.54486084 C-77.82488457 158.30933373 -72.21771164 145.06406326 -66.625 131.8125 C-66.23024475 130.87717438 -65.8354895 129.94184875 -65.42877197 128.97817993 C-62.61849486 122.31907617 -59.80914316 115.65958217 -57 109 C-53.79229974 101.39556611 -50.5841773 93.7913107 -47.375 86.1875 C-46.78810898 84.79686844 -46.78810898 84.79686844 -46.18936157 83.37814331 C-39.7443638 68.10907924 -33.27286578 52.85138865 -26.78076172 37.60229492 C-26.29461395 36.45905006 -26.29461395 36.45905006 -25.79864502 35.29270935 C-25.16007682 33.79357402 -24.51944856 32.29531433 -23.87664795 30.79798889 C-22.17509527 26.82298277 -20.52984489 22.83337535 -18.94677734 18.80957031 C-18.4298658 17.51981796 -18.4298658 17.51981796 -17.9025116 16.20401001 C-17.24560569 14.56144428 -16.60184469 12.91353358 -15.97407532 11.25961304 C-12.93907683 3.74164867 -8.84070053 -1.28592008 0 0 Z " fill="#FEFBFC" transform="translate(259,86)"/>
<path d="M0 0 C0.66 0 1.32 0 2 0 C2.44146362 1.05513794 2.44146362 1.05513794 2.8918457 2.1315918 C9.98469396 19.07809081 17.10530179 36.01279515 24.25 52.9375 C24.65268097 53.89142639 25.05536194 54.84535278 25.47024536 55.82818604 C30.85824043 68.58921993 36.26823679 81.34071004 41.69522095 94.08520508 C47.69783563 108.18317833 53.66032562 122.29715559 59.5625 136.4375 C59.89286255 137.22746368 60.2232251 138.01742737 60.56359863 138.83132935 C61.48315265 141.03127687 62.40023925 143.23223393 63.31640625 145.43359375 C63.59047806 146.08874969 63.86454987 146.74390564 64.14692688 147.41891479 C66 151.88489569 66 151.88489569 66 153 C23.1 153 -19.8 153 -64 153 C-60.23725383 142.96601021 -56.44251066 133.15063785 -52.125 123.375 C-50.97071593 120.73969232 -49.8208088 118.10248787 -48.671875 115.46484375 C-48.37360809 114.78053787 -48.07534119 114.09623199 -47.76803589 113.39118958 C-44.23527544 105.26885848 -40.80368963 97.10417723 -37.375 88.9375 C-37.04741699 88.15749634 -36.71983398 87.37749268 -36.38232422 86.57385254 C-35.01562061 83.31953506 -33.6489984 80.06518353 -32.28283691 76.81063843 C-28.32534211 67.38626765 -24.34385041 57.97204881 -20.36422729 48.55700684 C-13.53111653 32.38989402 -6.71761211 16.21552126 0 0 Z " fill="#E82B4F" transform="translate(255,124)"/>
<path d="M0 0 C0.33 0 0.66 0 1 0 C1 47.19 1 94.38 1 143 C-19.13 143 -39.26 143 -60 143 C-56.23725383 132.96601021 -52.44251066 123.15063785 -48.125 113.375 C-46.97071593 110.73969232 -45.8208088 108.10248787 -44.671875 105.46484375 C-44.37360809 104.78053787 -44.07534119 104.09623199 -43.76803589 103.39118958 C-40.23527418 95.2688556 -36.80385164 87.10411166 -33.375 78.9375 C-32.71256815 77.36051304 -32.05013322 75.78352738 -31.38769531 74.20654297 C-30.35861584 71.75641861 -29.32964601 69.30624844 -28.30096436 66.85595703 C-24.25528025 57.22132529 -20.19229704 47.59400049 -16.12774658 37.96731567 C-14.90816634 35.07855938 -13.68916705 32.18955845 -12.47021484 29.30053711 C-8.34243905 19.52112666 -4.19697958 9.74993792 0 0 Z " fill="#FF3058" transform="translate(251,134)"/>
</svg>
