<?xml version="1.0" encoding="UTF-8"?>
<svg version="1.1" xmlns="http://www.w3.org/2000/svg" width="512" height="512">
<path d="M0 0 C0.95109858 -0.00538554 1.90219716 -0.01077108 2.88211691 -0.01631981 C6.05945299 -0.03059264 9.23637206 -0.02349719 12.41372681 -0.01637268 C14.69569737 -0.02207661 16.97766508 -0.02904096 19.2596283 -0.03717041 C25.45181049 -0.05511495 31.64385107 -0.05393086 37.83605146 -0.04822803 C43.00753285 -0.04513785 48.17898696 -0.05122678 53.35046446 -0.05726677 C66.2495519 -0.07211788 79.14855068 -0.06849495 92.04763658 -0.05640347 C103.23796567 -0.04647378 114.42812935 -0.05940841 125.61843292 -0.08333766 C137.12111703 -0.1077487 148.62370536 -0.11693213 160.1264168 -0.11068493 C166.57930837 -0.10731493 173.03206332 -0.10973346 179.48493576 -0.12693596 C185.55398241 -0.14240897 191.62271346 -0.13844517 197.69174767 -0.11963081 C199.91652682 -0.11594588 202.14132937 -0.11905057 204.36608696 -0.1295166 C207.40856452 -0.14273441 210.44999849 -0.13117128 213.49243164 -0.11352539 C214.80583245 -0.1279329 214.80583245 -0.1279329 216.14576662 -0.14263147 C225.02188023 -0.03707016 232.0995986 3.33218664 238.58023071 9.3212738 C244.90176811 16.60688009 246.51882387 24.49780888 246.55020142 33.84056091 C246.55677261 34.69142776 246.56334381 35.54229462 246.57011414 36.41894531 C246.58980006 39.23013908 246.60149692 42.04127964 246.61148071 44.8525238 C246.61555624 45.81348024 246.61963177 46.77443668 246.6238308 47.76451302 C246.6446677 52.84715178 246.65898182 57.92976371 246.66836548 63.01243591 C246.67944755 68.26279636 246.71387495 73.51273507 246.75353718 78.76294613 C246.77966348 82.80098261 246.78805358 86.83891775 246.79164696 90.87703133 C246.79652028 92.81273319 246.80815545 94.7484303 246.82668495 96.68404961 C246.85100008 99.39151057 246.85012589 102.09786823 246.84317017 104.80540466 C246.86238525 106.00331131 246.86238525 106.00331131 246.88198853 107.22541809 C246.84732382 110.92730174 246.48007782 113.20529863 244.59382629 116.42407227 C242.37319946 118.38768005 242.37319946 118.38768005 238.37319946 118.38768005 C238.37319946 135.21768005 238.37319946 152.04768005 238.37319946 169.38768005 C243.98319946 169.38768005 249.59319946 169.38768005 255.37319946 169.38768005 C260.99921111 175.0136917 260.99921111 175.0136917 261.51773071 178.48924255 C261.63696899 179.2265863 261.75620728 179.96393005 261.87905884 180.72361755 C262.03084595 181.85670349 262.03084595 181.85670349 262.18569946 183.01268005 C262.30622681 183.77580505 262.42675415 184.53893005 262.55093384 185.32518005 C263.01836407 188.37015414 263.37319946 191.3039428 263.37319946 194.38768005 C264.7892166 194.8687628 266.20604383 195.34746146 267.62319946 195.82518005 C268.41210571 196.09201599 269.20101196 196.35885193 270.01382446 196.6337738 C270.79241821 196.88256287 271.57101196 197.13135193 272.37319946 197.38768005 C273.33830444 197.7288385 273.33830444 197.7288385 274.32290649 198.07688904 C276.73454108 198.68667282 276.73454108 198.68667282 279.53726196 196.11424255 C280.70209979 195.09301487 281.85541721 194.05852988 282.99819946 193.01268005 C290.2392364 186.56911414 290.2392364 186.56911414 294.49819946 185.88768005 C298.57089535 186.4131892 299.19660158 186.7515049 302.05679321 189.3681488 C303.10093384 190.32116882 303.10093384 190.32116882 304.16616821 191.29344177 C307.93861104 194.87308941 311.64306777 198.51336285 315.31069946 202.20018005 C316.46022095 203.34390076 316.46022095 203.34390076 317.63296509 204.51072693 C318.36064087 205.23969177 319.08831665 205.96865662 319.83804321 206.7197113 C320.49409546 207.37689148 321.15014771 208.03407166 321.82608032 208.71116638 C324.00943895 211.07713193 324.35890285 212.28209496 324.79898071 215.5322113 C324.22289563 220.74868816 321.82062878 223.13289496 318.56069946 227.07518005 C314.29970296 232.48231713 314.29970296 232.48231713 313.75601196 239.0947113 C315.06481334 242.10924561 316.45903623 244.720983 318.37319946 247.38768005 C319.61456665 247.49725037 320.85593384 247.60682068 322.13491821 247.7197113 C323.77690844 247.87921893 325.41883224 248.03941125 327.06069946 248.20018005 C327.87732056 248.27043396 328.69394165 248.34068787 329.53530884 248.41307068 C334.13544961 248.87867197 337.68212736 249.36001288 341.37319946 252.38768005 C343.79933531 255.97613902 343.67954271 259.63788552 343.67398071 263.8212738 C343.67826584 264.53622513 343.68255096 265.25117645 343.68696594 265.98779297 C343.692696 267.49648482 343.69321926 269.00520429 343.68887329 270.51390076 C343.68571467 272.81410666 343.70918204 275.11302376 343.73452759 277.41307068 C343.73680098 278.88247011 343.73750389 280.35187297 343.73648071 281.8212738 C343.74569046 282.50475388 343.75490021 283.18823395 343.76438904 283.89242554 C343.72264547 288.23109023 343.03587779 290.94560504 340.37319946 294.38768005 C336.68462335 296.84673079 333.15698583 297.31182686 328.87319946 298.01268005 C328.10105103 298.14674255 327.32890259 298.28080505 326.53335571 298.41893005 C323.4469904 298.94313075 320.50916119 299.38768005 317.37319946 299.38768005 C317.24944946 300.23330505 317.12569946 301.07893005 316.99819946 301.95018005 C316.37319946 305.38768005 316.37319946 305.38768005 315.00210571 308.6650238 C314.04498955 312.14310783 314.04498955 312.14310783 315.22573853 314.15159607 C316.62895778 315.99260938 318.10958787 317.69236674 319.68569946 319.38768005 C323.76856744 323.87633 326.44894815 326.97176593 326.37319946 333.38768005 C325.22085571 335.5400238 325.22085571 335.5400238 323.43569946 337.32518005 C322.78730103 337.99420349 322.13890259 338.66322693 321.47085571 339.3525238 C320.77862915 340.02412537 320.08640259 340.69572693 319.37319946 341.38768005 C318.7119104 342.04896912 318.05062134 342.71025818 317.36929321 343.3915863 C316.03790011 344.72297941 314.70062873 346.04851991 313.35757446 347.3681488 C310.76719312 350.00442273 308.38305169 352.7909394 306.01382446 355.6259613 C303.1085516 358.74567097 301.4210443 360.21220365 297.10757446 360.93455505 C292.05139525 360.1941104 289.49871612 357.80018102 285.62319946 354.63768005 C280.35517435 350.48677642 280.35517435 350.48677642 273.95913696 349.5478363 C271.22191729 350.61311309 268.8649328 351.84586038 266.37319946 353.38768005 C265.71319946 353.38768005 265.05319946 353.38768005 264.37319946 353.38768005 C264.32421509 354.46146912 264.27523071 355.53525818 264.22476196 356.6415863 C264.14966548 358.07780647 264.0741207 359.51400325 263.99819946 360.95018005 C263.96726196 361.65465271 263.93632446 362.35912537 263.90444946 363.08494568 C263.64373865 367.7994662 262.98679089 371.93484239 261.37319946 376.38768005 C257.80902519 379.08254353 254.99493628 379.52128947 250.65835571 379.4540863 C249.45191406 379.4397052 249.45191406 379.4397052 248.22109985 379.42503357 C247.61129272 379.41270691 247.0014856 379.40038025 246.37319946 379.38768005 C246.38208191 380.34044327 246.39096436 381.29320648 246.40011597 382.27484131 C246.4815125 391.29234345 246.5413131 400.3097702 246.58044815 409.32755756 C246.60124493 413.96274546 246.62941639 418.59763469 246.67495728 423.23265076 C246.71869933 427.71307461 246.74239592 432.19321279 246.75270844 436.67383385 C246.76004927 438.37572407 246.77438309 440.07760021 246.79611969 441.77936745 C246.95686325 454.89618541 246.04552464 465.56989076 236.53335571 475.5087738 C229.85913188 481.31402093 222.84047904 482.53691345 214.24760437 482.54830933 C213.30204019 482.55339715 212.356476 482.55848497 211.38225836 482.56372696 C208.19963409 482.57947876 205.01703258 482.58798382 201.8343811 482.59642029 C199.55787002 482.60595676 197.28136041 482.61584783 195.00485229 482.62606812 C187.51437099 482.65748435 180.02387849 482.67772696 172.53335571 482.6962738 C171.25894646 482.69957113 169.98453722 482.70286845 168.6715095 482.70626569 C156.65110527 482.73705368 144.63070053 482.76392245 132.61026859 482.78068447 C129.82608596 482.78463378 127.04190341 482.78863679 124.25772095 482.79270935 C123.56575194 482.79371771 122.87378292 482.79472607 122.16084515 482.79576499 C110.96577556 482.81275089 99.77092784 482.85383609 88.57596643 482.90473234 C77.07227728 482.95659999 65.56873724 482.98515708 54.06492895 482.99288136 C47.61008855 482.997833 41.15564214 483.0128681 34.70091438 483.05262566 C28.62281673 483.08956843 22.54533682 483.09787609 16.46714783 483.08461952 C14.24199385 483.08467335 12.01681197 483.09491891 9.7917614 483.11637115 C-13.79247054 483.33150662 -13.79247054 483.33150662 -23.5940237 474.6440649 C-32.34325758 465.68872308 -32.78487172 454.17927893 -32.82992554 442.3837738 C-32.83562561 441.22773148 -32.84132568 440.07168915 -32.84719849 438.88061523 C-32.85662342 436.4423056 -32.86317247 434.00398336 -32.86703491 431.56565857 C-32.8767752 427.83488463 -32.90783696 424.1046538 -32.93930054 420.37400818 C-32.94582778 418.00226665 -32.95107934 415.6305212 -32.95492554 413.2587738 C-32.96727234 412.14409225 -32.97961914 411.02941071 -32.99234009 409.88095093 C-32.98933899 408.83959488 -32.98633789 407.79823883 -32.98324585 406.72532654 C-32.98689148 405.81298752 -32.99053711 404.9006485 -32.99429321 403.96066284 C-32.53475836 400.74325103 -31.62637653 398.94703984 -29.62680054 396.38768005 C-27.97680054 395.72768005 -26.32680054 395.06768005 -24.62680054 394.38768005 C-24.62680054 387.78768005 -24.62680054 381.18768005 -24.62680054 374.38768005 C-26.27680054 374.05768005 -27.92680054 373.72768005 -29.62680054 373.38768005 C-32.29604087 369.3787227 -33.0017867 366.13984109 -33.00153065 361.38024426 C-33.00873719 360.19297715 -33.01594373 359.00571005 -33.02336866 357.78246516 C-33.01230723 355.83934214 -33.01230723 355.83934214 -33.00102234 353.85696411 C-33.00376388 352.45988961 -33.00781677 351.06281718 -33.01306599 349.66574985 C-33.02364838 345.83146683 -33.01552674 341.99741708 -33.0043155 338.16314423 C-32.9954722 334.02601432 -33.00391748 329.88891488 -33.01017761 325.75178528 C-33.01966764 317.64818813 -33.01306353 309.54468001 -33.00091467 301.44108947 C-32.98729185 292.00246874 -32.98893285 282.5638692 -32.991048 273.12524114 C-32.99423833 256.28114326 -32.98256874 239.43708766 -32.96298218 222.59300232 C-32.94398695 206.25314546 -32.93689222 189.91333818 -32.94247437 173.57347107 C-32.94853518 155.77984828 -32.94834884 137.98624728 -32.93698853 120.1926263 C-32.93578126 118.29429901 -32.93457527 116.39597172 -32.93337059 114.49764442 C-32.93276705 113.56364738 -32.93216351 112.62965033 -32.93154169 111.66735035 C-32.92766518 105.09065667 -32.92805516 98.51397111 -32.92995644 91.93727684 C-32.93208087 83.91835071 -32.92683575 75.89946796 -32.91234288 67.88055404 C-32.90510969 63.79036493 -32.90101265 59.70023891 -32.90558624 55.61004448 C-32.90967449 51.86265662 -32.90446363 48.11539882 -32.89196017 44.36803064 C-32.88766391 42.37673209 -32.89310975 40.38541979 -32.89894944 38.39412516 C-32.84507384 27.35433091 -31.52584025 18.34272497 -24.62680054 9.38768005 C-17.33920247 2.35137847 -9.906115 -0.06765001 0 0 Z M238.37319946 249.38768005 C238.37319946 253.34768005 238.37319946 257.30768005 238.37319946 261.38768005 C239.34257446 261.84143005 240.31194946 262.29518005 241.31069946 262.76268005 C244.37319946 264.38768005 244.37319946 264.38768005 245.37319946 266.38768005 C245.5281571 268.63742167 245.62330874 270.89139542 245.68960571 273.14549255 C245.71038681 273.80854401 245.73116791 274.47159546 245.75257874 275.15473938 C245.81799177 277.273947 245.87692051 279.39327905 245.93569946 281.51268005 C245.97889256 282.94889087 246.02250711 284.38508907 246.06655884 285.8212738 C246.17366445 289.34327599 246.27495521 292.8654183 246.37319946 296.38768005 C252.26468703 295.07436928 256.41673902 291.27889381 259.77944946 286.30955505 C263.11580051 279.68451511 263.79697842 272.75981543 261.49038696 265.67674255 C258.48226597 259.0429393 254.65618308 254.07900842 247.77163696 251.3603363 C243.15550387 249.88487436 243.15550387 249.88487436 238.37319946 249.38768005 Z " fill="#6DBBF2" transform="translate(100.62680053710938,14.612319946289063)"/>
<path d="M0 0 C1.50382971 -0.04926942 3.00773628 -0.09626269 4.51171875 -0.140625 C5.20217285 -0.17881348 5.89262695 -0.21700195 6.60400391 -0.25634766 C10.19025948 -0.31601468 11.96766205 0.16042582 14.93359375 2.21875 C17.66193437 6.06232474 18.27031786 9.25796199 18.88671875 13.859375 C19.00724609 14.6225 19.12777344 15.385625 19.25195312 16.171875 C19.71938336 19.21684908 20.07421875 22.15063774 20.07421875 25.234375 C21.49023589 25.71545775 22.90706312 26.19415641 24.32421875 26.671875 C25.113125 26.93871094 25.90203125 27.20554688 26.71484375 27.48046875 C27.4934375 27.72925781 28.27203125 27.97804687 29.07421875 28.234375 C29.71762207 28.46181396 30.36102539 28.68925293 31.02392578 28.92358398 C33.43556036 29.53336776 33.43556036 29.53336776 36.23828125 26.9609375 C37.40311908 25.93970982 38.5564365 24.90522483 39.69921875 23.859375 C46.94025569 17.41580909 46.94025569 17.41580909 51.19921875 16.734375 C55.27191464 17.25988415 55.89762087 17.59819985 58.7578125 20.21484375 C59.45390625 20.85019043 60.15 21.48553711 60.8671875 22.14013672 C64.63963033 25.71978435 68.34408706 29.36005779 72.01171875 33.046875 C73.16124023 34.1905957 73.16124023 34.1905957 74.33398438 35.35742188 C75.06166016 36.08638672 75.78933594 36.81535156 76.5390625 37.56640625 C77.52314087 38.55217651 77.52314087 38.55217651 78.52709961 39.55786133 C80.71045824 41.92382688 81.05992213 43.1287899 81.5 46.37890625 C80.92391492 51.59538311 78.52164807 53.97958991 75.26171875 57.921875 C71.00072225 63.32901208 71.00072225 63.32901208 70.45703125 69.94140625 C71.76583262 72.95594056 73.16005552 75.56767794 75.07421875 78.234375 C76.93626953 78.39873047 76.93626953 78.39873047 78.8359375 78.56640625 C80.47792772 78.72591387 82.11985153 78.8861062 83.76171875 79.046875 C84.57833984 79.11712891 85.39496094 79.18738281 86.23632812 79.25976562 C90.8364689 79.72536692 94.38314665 80.20670783 98.07421875 83.234375 C100.5003546 86.82283397 100.38056199 90.48458046 100.375 94.66796875 C100.37928513 95.38292007 100.38357025 96.0978714 100.38798523 96.83448792 C100.39371529 98.34317976 100.39423855 99.85189923 100.38989258 101.3605957 C100.38673396 103.66080161 100.41020133 105.95971871 100.43554688 108.25976562 C100.43782026 109.72916505 100.43852318 111.19856792 100.4375 112.66796875 C100.44670975 113.35144882 100.45591949 114.03492889 100.46540833 114.73912048 C100.42366476 119.07778518 99.73689708 121.79229999 97.07421875 125.234375 C93.38564264 127.69342574 89.85800512 128.1585218 85.57421875 128.859375 C84.80207031 128.9934375 84.02992188 129.1275 83.234375 129.265625 C80.14800969 129.78982569 77.21018048 130.234375 74.07421875 130.234375 C73.95046875 131.08 73.82671875 131.925625 73.69921875 132.796875 C73.07421875 136.234375 73.07421875 136.234375 71.703125 139.51171875 C70.74600884 142.98980278 70.74600884 142.98980278 71.92675781 144.99829102 C73.32997707 146.83930433 74.81060716 148.53906169 76.38671875 150.234375 C80.46958672 154.72302494 83.14996744 157.81846088 83.07421875 164.234375 C81.921875 166.38671875 81.921875 166.38671875 80.13671875 168.171875 C79.48832031 168.84089844 78.83992188 169.50992188 78.171875 170.19921875 C77.47964844 170.87082031 76.78742188 171.54242188 76.07421875 172.234375 C75.41292969 172.89566406 74.75164062 173.55695313 74.0703125 174.23828125 C72.7389194 175.56967435 71.40164801 176.89521485 70.05859375 178.21484375 C67.46821241 180.85111768 65.08407098 183.63763435 62.71484375 186.47265625 C59.80957089 189.59236592 58.12206358 191.05889859 53.80859375 191.78125 C48.75241453 191.04080534 46.1997354 188.64687597 42.32421875 185.484375 C37.05619364 181.33347136 37.05619364 181.33347136 30.66015625 180.39453125 C27.92293658 181.45980804 25.56595209 182.69255533 23.07421875 184.234375 C22.41421875 184.234375 21.75421875 184.234375 21.07421875 184.234375 C21.02523438 185.30816406 20.97625 186.38195312 20.92578125 187.48828125 C20.85068477 188.92450142 20.77513999 190.36069819 20.69921875 191.796875 C20.66828125 192.50134766 20.63734375 193.20582031 20.60546875 193.93164062 C20.34475794 198.64616115 19.68781018 202.78153734 18.07421875 207.234375 C14.51004447 209.92923848 11.69595557 210.36798441 7.359375 210.30078125 C6.15293335 210.28640015 6.15293335 210.28640015 4.92211914 210.27172852 C4.31231201 210.25940186 3.70250488 210.2470752 3.07421875 210.234375 C3.0831012 211.18713821 3.09198364 212.13990143 3.10113525 213.12153625 C3.18253179 222.1390384 3.24233239 231.15646515 3.28146744 240.17425251 C3.30226422 244.8094404 3.33043568 249.44432964 3.37597656 254.0793457 C3.41971862 258.55976956 3.44341521 263.03990774 3.45372772 267.52052879 C3.46106855 269.22241901 3.47540237 270.92429516 3.49713898 272.62606239 C3.65788253 285.74288035 2.74654392 296.41658571 -6.765625 306.35546875 C-13.43984883 312.16071588 -20.45850167 313.3836084 -29.05137634 313.39500427 C-29.99694053 313.40009209 -30.94250471 313.40517991 -31.91672236 313.41042191 C-35.09934662 313.42617371 -38.28194813 313.43467877 -41.46459961 313.44311523 C-43.74111069 313.4526517 -46.01762031 313.46254277 -48.29412842 313.47276306 C-55.78460972 313.5041793 -63.27510222 313.5244219 -70.765625 313.54296875 C-72.04003425 313.54626607 -73.3144435 313.54956339 -74.62747121 313.55296063 C-86.64787544 313.58374863 -98.66828018 313.6106174 -110.68871212 313.62737942 C-113.47289476 313.63132872 -116.25707731 313.63533173 -119.04125977 313.6394043 C-119.73322878 313.64041266 -120.42519779 313.64142102 -121.13813556 313.64245994 C-132.33320515 313.65944583 -143.52805287 313.70053104 -154.72301429 313.75142729 C-166.22670343 313.80329493 -177.73024347 313.83185203 -189.23405176 313.8395763 C-195.68889216 313.84452794 -202.14333857 313.85956304 -208.59806633 313.8993206 C-214.67616399 313.93626338 -220.75364389 313.94457103 -226.83183289 313.93131447 C-229.05698687 313.93136829 -231.28216874 313.94161385 -233.50721931 313.9630661 C-257.09145125 314.17820156 -257.09145125 314.17820156 -266.89300442 305.49075985 C-275.64223829 296.53541803 -276.08385244 285.02597387 -276.12890625 273.23046875 C-276.13460632 272.07442642 -276.1403064 270.91838409 -276.1461792 269.72731018 C-276.15560413 267.28900054 -276.16215319 264.85067831 -276.16601562 262.41235352 C-276.17575591 258.68157957 -276.20681768 254.95134874 -276.23828125 251.22070312 C-276.24480849 248.8489616 -276.25006006 246.47721614 -276.25390625 244.10546875 C-276.26625305 242.9907872 -276.27859985 241.87610565 -276.2913208 240.72764587 C-276.2883197 239.68628983 -276.2853186 238.64493378 -276.28222656 237.57202148 C-276.28587219 236.65968246 -276.28951782 235.74734344 -276.29327393 234.80735779 C-275.83373907 231.58994598 -274.92535724 229.79373478 -272.92578125 227.234375 C-268.13458072 224.48374445 -262.99593409 224.97863426 -257.64372253 225.03182983 C-256.07535557 225.03539189 -256.07535557 225.03539189 -254.47530442 225.0390259 C-250.96674491 225.04945462 -247.45843645 225.07433275 -243.94995117 225.09912109 C-241.43693379 225.10954564 -238.92391258 225.11908116 -236.41088867 225.12779236 C-230.99793389 225.14855952 -225.58506615 225.17552023 -220.17217064 225.20811081 C-212.34606265 225.25522043 -204.51993464 225.29116603 -196.69375686 225.32439406 C-183.99607013 225.3786082 -171.29844498 225.44184084 -158.60083008 225.51074219 C-146.2668656 225.57765095 -133.9328916 225.64031404 -121.59887695 225.69726562 C-120.8385067 225.70077807 -120.07813644 225.70429051 -119.29472467 225.70790939 C-115.48013999 225.72550423 -111.66555493 225.74301557 -107.85096967 225.76048541 C-76.20917021 225.90550487 -44.56746165 226.06530954 -12.92578125 226.234375 C-12.92578125 220.624375 -12.92578125 215.014375 -12.92578125 209.234375 C-14.32828125 209.29625 -15.73078125 209.358125 -17.17578125 209.421875 C-20.03888906 209.54818858 -21.51105548 209.48119362 -23.99414062 208.00341797 C-26.31085804 205.88171241 -26.63762468 204.69377555 -27.19140625 201.63671875 C-27.35898437 200.75306641 -27.5265625 199.86941406 -27.69921875 198.95898438 C-27.85648438 198.03923828 -28.01375 197.11949219 -28.17578125 196.171875 C-28.34851563 195.24826172 -28.52125 194.32464844 -28.69921875 193.37304688 C-29.92578125 186.70969742 -29.92578125 186.70969742 -29.92578125 184.234375 C-31.34179839 183.75329225 -32.75862562 183.27459359 -34.17578125 182.796875 C-34.9646875 182.53003906 -35.75359375 182.26320313 -36.56640625 181.98828125 C-37.345 181.73949219 -38.12359375 181.49070312 -38.92578125 181.234375 C-39.5585498 181.00169922 -40.19131836 180.76902344 -40.84326172 180.52929688 C-42.96025692 180.01911286 -42.96025692 180.01911286 -44.75341797 181.22241211 C-45.36459473 181.7303833 -45.97577148 182.23835449 -46.60546875 182.76171875 C-47.28738281 183.30634766 -47.96929687 183.85097656 -48.671875 184.41210938 C-50.08458716 185.57986502 -51.49605884 186.74912309 -52.90625 187.91992188 C-55.89963496 190.3073014 -58.21010356 192.04011963 -61.93359375 193.05078125 C-66.67905469 191.75600144 -69.48680273 188.64027885 -72.92578125 185.234375 C-73.65651855 184.52845215 -74.38725586 183.8225293 -75.14013672 183.09521484 C-77.4022809 180.89098626 -79.63575892 178.66104959 -81.86328125 176.421875 C-82.62962891 175.65939453 -83.39597656 174.89691406 -84.18554688 174.11132812 C-84.91322266 173.38236328 -85.64089844 172.65339844 -86.390625 171.90234375 C-87.04667725 171.24516357 -87.70272949 170.5879834 -88.37866211 169.91088867 C-90.37547923 167.74706617 -90.88311661 166.51027298 -91.3359375 163.58203125 C-90.67043987 158.15030301 -87.14555993 154.83345362 -83.74804688 150.71289062 C-80.68203571 147.06044016 -80.68203571 147.06044016 -80.02734375 142.53125 C-80.32382812 141.77328125 -80.6203125 141.0153125 -80.92578125 140.234375 C-81.05855469 139.51894531 -81.19132813 138.80351562 -81.328125 138.06640625 C-81.93279496 135.78454956 -82.5347179 134.1524872 -83.92578125 132.234375 C-87.96346499 130.43646299 -92.26892869 130.34690689 -96.62890625 130.05078125 C-97.49 129.98761719 -98.35109375 129.92445313 -99.23828125 129.859375 C-100.01816406 129.83101562 -100.79804688 129.80265625 -101.6015625 129.7734375 C-104.99112358 128.9872872 -106.51365213 127.75473753 -108.92578125 125.234375 C-109.42120266 122.18940197 -109.60521249 119.71296898 -109.5546875 116.671875 C-109.55709946 115.84357178 -109.55951141 115.01526855 -109.56199646 114.16186523 C-109.56101853 112.41352544 -109.54763746 110.66515448 -109.52270508 108.91699219 C-109.48839281 106.24306912 -109.50204685 103.57245108 -109.52148438 100.8984375 C-109.51458571 99.19790262 -109.50491314 97.49737626 -109.4921875 95.796875 C-109.49714737 94.99886475 -109.50210724 94.20085449 -109.50721741 93.37866211 C-109.4332608 89.88743971 -109.22429924 87.66204926 -107.2019043 84.76464844 C-104.65385092 83.05155195 -102.9761334 82.55758868 -99.94140625 82.1875 C-99.00683594 82.06503906 -98.07226562 81.94257813 -97.109375 81.81640625 C-95.65724609 81.65205078 -95.65724609 81.65205078 -94.17578125 81.484375 C-93.19222656 81.35933594 -92.20867187 81.23429687 -91.1953125 81.10546875 C-88.77359888 80.79981557 -86.35105817 80.51006127 -83.92578125 80.234375 C-83.78398437 79.28691406 -83.6421875 78.33945312 -83.49609375 77.36328125 C-82.92578125 74.234375 -82.92578125 74.234375 -81.80078125 72.171875 C-80.53433004 69.36759018 -80.9859623 68.18346206 -81.92578125 65.234375 C-84.10586349 61.93607306 -86.64288154 58.90074819 -89.15234375 55.84960938 C-89.64734375 55.21474609 -90.14234375 54.57988281 -90.65234375 53.92578125 C-91.11205566 53.36060791 -91.57176758 52.79543457 -92.04541016 52.21313477 C-93.40710566 49.15252964 -92.91030952 47.40696259 -91.92578125 44.234375 C-90.19613076 42.00910435 -88.55793915 40.14076448 -86.5703125 38.1796875 C-86.03105637 37.63327606 -85.49180023 37.08686462 -84.936203 36.52389526 C-83.79663104 35.37656454 -82.65066502 34.23555349 -81.4987793 33.10058594 C-79.74174024 31.3627961 -78.01603976 29.59763259 -76.29101562 27.828125 C-75.17755284 26.71437189 -74.0623735 25.60233168 -72.9453125 24.4921875 C-72.17620293 23.70015427 -72.17620293 23.70015427 -71.39155579 22.89212036 C-68.83927699 20.42041752 -67.30301566 19.28548082 -63.74145508 18.80297852 C-60.02221486 19.37281268 -57.85781285 20.8772426 -54.80078125 23.046875 C-53.78757812 23.75457031 -52.774375 24.46226562 -51.73046875 25.19140625 C-50.02881582 26.4309111 -48.34456164 27.69548268 -46.6953125 29.00390625 C-44.9845949 30.46335024 -44.9845949 30.46335024 -42.73828125 30.109375 C-38.77949555 28.87775278 -34.84336162 27.59144533 -30.92578125 26.234375 C-30.85230469 24.87505859 -30.85230469 24.87505859 -30.77734375 23.48828125 C-30.35192002 16.55680835 -29.92680423 9.90445161 -27.92578125 3.234375 C-24.93922145 1.24333513 -24.21994657 0.96837686 -20.85546875 0.8203125 C-20.04924072 0.78115723 -19.2430127 0.74200195 -18.41235352 0.70166016 C-17.55053467 0.67120605 -16.68871582 0.64075195 -15.80078125 0.609375 C-14.91511475 0.57505371 -14.02944824 0.54073242 -13.11694336 0.50537109 C-11.28599318 0.43899322 -9.45484007 0.37800522 -7.62353516 0.32226562 C-5.0806071 0.2394191 -2.54130005 0.12182547 0 0 Z M-4.92578125 80.234375 C-4.92578125 84.194375 -4.92578125 88.154375 -4.92578125 92.234375 C-3.95640625 92.688125 -2.98703125 93.141875 -1.98828125 93.609375 C1.07421875 95.234375 1.07421875 95.234375 2.07421875 97.234375 C2.22917638 99.48411661 2.32432803 101.73809036 2.390625 103.9921875 C2.4114061 104.65523895 2.43218719 105.31829041 2.45359802 106.00143433 C2.51901106 108.12064194 2.5779398 110.239974 2.63671875 112.359375 C2.67991184 113.79558581 2.72352639 115.23178402 2.76757812 116.66796875 C2.87468374 120.18997094 2.9759745 123.71211325 3.07421875 127.234375 C8.96570631 125.92106423 13.11775831 122.12558876 16.48046875 117.15625 C19.8168198 110.53121006 20.49799771 103.60651038 18.19140625 96.5234375 C15.18328525 89.88963424 11.35720237 84.92570337 4.47265625 82.20703125 C-0.14347684 80.7315693 -0.14347684 80.7315693 -4.92578125 80.234375 Z " fill="#494D55" transform="translate(343.92578125,183.765625)"/>
<path d="M0 0 C0.95109858 -0.00538554 1.90219716 -0.01077108 2.88211691 -0.01631981 C6.05945299 -0.03059264 9.23637206 -0.02349719 12.41372681 -0.01637268 C14.69569737 -0.02207661 16.97766508 -0.02904096 19.2596283 -0.03717041 C25.45181049 -0.05511495 31.64385107 -0.05393086 37.83605146 -0.04822803 C43.00753285 -0.04513785 48.17898696 -0.05122678 53.35046446 -0.05726677 C66.2495519 -0.07211788 79.14855068 -0.06849495 92.04763658 -0.05640347 C103.23796567 -0.04647378 114.42812935 -0.05940841 125.61843292 -0.08333766 C137.12111703 -0.1077487 148.62370536 -0.11693213 160.1264168 -0.11068493 C166.57930837 -0.10731493 173.03206332 -0.10973346 179.48493576 -0.12693596 C185.55398241 -0.14240897 191.62271346 -0.13844517 197.69174767 -0.11963081 C199.91652682 -0.11594588 202.14132937 -0.11905057 204.36608696 -0.1295166 C207.40856452 -0.14273441 210.44999849 -0.13117128 213.49243164 -0.11352539 C214.80583245 -0.1279329 214.80583245 -0.1279329 216.14576662 -0.14263147 C225.02188023 -0.03707016 232.0995986 3.33218664 238.58023071 9.3212738 C244.90176811 16.60688009 246.51882387 24.49780888 246.55020142 33.84056091 C246.55677261 34.69142776 246.56334381 35.54229462 246.57011414 36.41894531 C246.58980006 39.23013908 246.60149692 42.04127964 246.61148071 44.8525238 C246.61555624 45.81348024 246.61963177 46.77443668 246.6238308 47.76451302 C246.6446677 52.84715178 246.65898182 57.92976371 246.66836548 63.01243591 C246.67944755 68.26279636 246.71387495 73.51273507 246.75353718 78.76294613 C246.77966348 82.80098261 246.78805358 86.83891775 246.79164696 90.87703133 C246.79652028 92.81273319 246.80815545 94.7484303 246.82668495 96.68404961 C246.85100008 99.39151057 246.85012589 102.09786823 246.84317017 104.80540466 C246.86238525 106.00331131 246.86238525 106.00331131 246.88198853 107.22541809 C246.84722221 110.93815343 246.49662832 113.18308799 244.56257629 116.38891602 C242.37319946 118.38768005 242.37319946 118.38768005 238.87319946 118.95018005 C234.90774273 118.31287451 233.77256549 117.52531255 231.37319946 114.38768005 C225.11043472 101.86215057 230.37319946 86.39164775 230.37319946 72.38768005 C148.86319946 72.38768005 67.35319946 72.38768005 -16.62680054 72.38768005 C-16.59199585 93.69717224 -16.55719116 115.00666443 -16.52133179 136.9618988 C-16.50601068 150.4286964 -16.49142717 163.89548867 -16.48031616 177.36228943 C-16.47444237 184.43414836 -16.46838088 191.5060071 -16.46200562 198.5778656 C-16.46121437 199.46423161 -16.46042312 200.35059762 -16.4596079 201.26382321 C-16.44655308 215.58134025 -16.42289783 229.89882121 -16.39534215 244.21631684 C-16.36730674 258.90536993 -16.35062823 273.5944041 -16.34453505 288.28348285 C-16.34041474 297.3504824 -16.32739201 306.41738003 -16.30305114 315.48434822 C-16.28721695 321.69838731 -16.28239491 327.91237356 -16.2862964 334.12643137 C-16.28822158 337.71386778 -16.28523032 341.30112587 -16.26918411 344.88853073 C-16.25192485 348.77545456 -16.25782321 352.66214474 -16.26603699 356.54910278 C-16.25729846 357.68625927 -16.24855994 358.82341576 -16.23955661 359.99503154 C-16.24851633 361.55659203 -16.24851633 361.55659203 -16.25765705 363.14969921 C-16.25594831 364.49561792 -16.25594831 364.49561792 -16.25420505 365.86872691 C-16.71213978 368.9646209 -17.81385665 370.85813002 -19.62680054 373.38768005 C-22.46763695 374.80809826 -24.48157331 374.70220278 -27.62680054 374.38768005 C-30.47460673 372.15561574 -31.4767772 370.83775007 -32.62680054 367.38768005 C-32.72046061 365.51009481 -32.75414149 363.62930712 -32.75543499 361.74938774 C-32.76027166 359.97744681 -32.76027166 359.97744681 -32.76520604 358.16970909 C-32.76365744 356.86555522 -32.76210883 355.56140135 -32.76051331 354.21772766 C-32.76238062 352.82324478 -32.764681 351.42876242 -32.76737863 350.0342809 C-32.77351323 346.19329499 -32.77336108 342.35233079 -32.77218425 338.51134109 C-32.77198066 334.37212028 -32.77749517 330.23290652 -32.78224182 326.09368896 C-32.79055873 317.97968492 -32.79329716 309.86568813 -32.7938542 301.75168018 C-32.794329 295.1557173 -32.79638195 288.55975683 -32.79955482 281.96379471 C-32.80836532 263.26768677 -32.81297375 244.57158458 -32.81222435 225.87547456 C-32.81216442 224.36267839 -32.81216442 224.36267839 -32.81210327 222.81932068 C-32.81206239 221.80955957 -32.81202151 220.79979846 -32.81197939 219.75943853 C-32.81157312 203.40215424 -32.82113687 187.044893 -32.83524164 170.68761538 C-32.8496062 153.89662104 -32.85651173 137.10563794 -32.85564786 120.3146373 C-32.85531585 110.88607252 -32.8580645 101.45753188 -32.86882591 92.02897263 C-32.8779321 83.99900225 -32.88010529 75.96906694 -32.87331649 67.93909363 C-32.87005149 63.84284428 -32.8699938 59.74666219 -32.87866974 55.65041924 C-32.88653688 51.89736914 -32.88510111 48.14443964 -32.87638561 44.39139248 C-32.8741264 42.39696187 -32.88167774 40.40252751 -32.88962525 38.40811145 C-32.84717812 27.36028698 -31.53090485 18.3492989 -24.62680054 9.38768005 C-17.33920247 2.35137847 -9.906115 -0.06765001 0 0 Z " fill="#484C56" transform="translate(100.62680053710938,14.612319946289063)"/>
<path d="M0 0 C5.94 0 11.88 0 18 0 C19.4375 8.25 19.4375 8.25 19.88452148 10.82910156 C20.00384033 11.5094043 20.12315918 12.18970703 20.24609375 12.890625 C20.36654053 13.58188477 20.4869873 14.27314453 20.61108398 14.98535156 C21.18912266 18.02141067 21.18912266 18.02141067 22 21 C23.87716942 21.93511201 23.87716942 21.93511201 26.25 22.375 C31.8636219 23.81873322 36.76218112 26.1813503 41.921875 28.79296875 C45.37995815 30.14899374 47.32813921 30.59300077 51 30 C53.40394217 28.4011786 55.46178317 26.87007062 57.625 25 C63.48986486 20 63.48986486 20 68 20 C70.61328125 22.046875 70.61328125 22.046875 73.3125 24.75 C74.66794922 26.07257813 74.66794922 26.07257813 76.05078125 27.421875 C78 30 78 30 78.08203125 31.93359375 C76.17955497 35.56684267 73.61232318 38.76032226 71.0625 41.95898438 C68.81043776 44.99639953 67.99599584 46.69968793 68.046875 50.515625 C69.0181105 54.06620724 70.25078143 57.13653839 71.875 60.4375 C73.69982383 64.17322426 75.26500036 67.6856592 76.375 71.6875 C77.69802225 75.31329548 77.69802225 75.31329548 81.375 76.375 C82.9117824 76.61674105 84.45484649 76.8193359 86 77 C88.33352723 77.37379155 90.66685182 77.74884975 93 78.125 C94.98 78.41375 96.96 78.7025 99 79 C99 84.94 99 90.88 99 97 C90.25 98.3125 90.25 98.3125 87.51269531 98.7043457 C81.59421403 99.51427549 81.59421403 99.51427549 77 103 C75.72470793 105.76401424 74.79011495 108.59971506 73.875 111.5 C73.37611695 113.03246638 72.87364527 114.56377025 72.3671875 116.09375 C72.15175293 116.77115234 71.93631836 117.44855469 71.71435547 118.14648438 C71 120 71 120 69 123 C68.44434429 127.76276326 68.38771895 130.66304569 71.1875 134.625 C72.10551212 135.76595793 73.04356532 136.89105277 74 138 C74.47695313 138.58394531 74.95390625 139.16789063 75.4453125 139.76953125 C76.61293118 141.19402604 77.80413716 142.5991321 79 144 C77.46356148 147.68069887 75.21849055 149.98775204 72.375 152.75 C71.14910156 153.94882812 71.14910156 153.94882812 69.8984375 155.171875 C69.27195312 155.77515625 68.64546875 156.3784375 68 157 C62.78844467 155.20941137 59.07917478 152.08747685 54.81640625 148.6796875 C51.49612516 146.69949212 49.80436163 146.5055339 46 147 C43.57762488 147.90604949 43.57762488 147.90604949 41.3125 149.25 C36.77990564 151.68798636 32.25499848 153.37793573 27.34765625 154.91015625 C24.40279562 156.27723797 23.48730905 157.09466648 22 160 C21.36626248 163.0673492 21.07864759 166.13187384 20.8125 169.25 C20.4103125 173.58125 20.4103125 173.58125 20 178 C14.06 178 8.12 178 2 178 C0.625 169.75 0.625 169.75 0.20556641 167.17089844 C-0.52470235 161.71313797 -0.52470235 161.71313797 -3 157 C-5.60290774 155.80651427 -8.04917392 154.83535526 -10.75 153.9375 C-12.16257132 153.44982657 -13.57405186 152.95898113 -14.984375 152.46484375 C-15.67080078 152.22749512 -16.35722656 151.99014648 -17.06445312 151.74560547 C-19 151 -19 151 -22.078125 149.31640625 C-25.76088752 147.65719373 -27.99563404 147.43047055 -32 148 C-34.48703273 149.4052197 -36.55470743 151.17258772 -38.6875 153.0625 C-44.30499756 157.97536372 -44.30499756 157.97536372 -47.09375 158.07421875 C-49.70470033 156.60288404 -51.66709075 154.84342034 -53.8125 152.75 C-54.62332031 151.98171875 -55.43414062 151.2134375 -56.26953125 150.421875 C-58 148 -58 148 -58.01171875 145.54296875 C-56.365347 141.40479112 -53.56717294 138.2745046 -50.8125 134.81640625 C-48.75378813 131.61741647 -48.05725264 129.80252963 -48 126 C-48.97440275 123.36911258 -49.96487228 121.08837042 -51.25 118.625 C-51.90867386 117.30198522 -52.56495151 115.97777458 -53.21875 114.65234375 C-53.68861328 113.7085083 -53.68861328 113.7085083 -54.16796875 112.74560547 C-55.18700768 110.60765702 -55.99278655 108.43033331 -56.75 106.1875 C-57.74458961 102.75708853 -57.74458961 102.75708853 -61 101 C-63.02249579 100.54723252 -63.02249579 100.54723252 -65.23046875 100.3671875 C-65.95387451 100.29097168 -66.67728027 100.21475586 -67.42260742 100.13623047 C-68.33502197 100.05002441 -69.24743652 99.96381836 -70.1875 99.875 C-73.095625 99.58625 -76.00375 99.2975 -79 99 C-79 93.06 -79 87.12 -79 81 C-77.66324219 80.75765625 -76.32648438 80.5153125 -74.94921875 80.265625 C-73.19514684 79.92794271 -71.44124932 79.58935366 -69.6875 79.25 C-68.80642578 79.09273438 -67.92535156 78.93546875 -67.01757812 78.7734375 C-62.10450616 77.87618791 -62.10450616 77.87618791 -58.015625 75.22265625 C-56.80928026 72.58261718 -55.89461712 69.96955681 -55.0625 67.1875 C-53.92274464 63.56140572 -52.80703184 60.38571205 -50.75 57.1875 C-48.60476681 53.28011097 -48.46827299 51.41883481 -49 47 C-50.52254856 44.24602046 -52.451182 41.94104178 -54.5 39.5625 C-55.02464844 38.92634766 -55.54929687 38.29019531 -56.08984375 37.63476562 C-57.37807104 36.07718173 -58.68702363 34.53677916 -60 33 C-56.02502128 28.1360221 -51.8639779 23.97497872 -47 20 C-46.0821875 20.721875 -45.164375 21.44375 -44.21875 22.1875 C-42.97992594 23.12600308 -41.74029932 24.06344745 -40.5 25 C-39.89929688 25.47695312 -39.29859375 25.95390625 -38.6796875 26.4453125 C-33.91281157 29.99511373 -30.93293861 30.74235969 -25 30 C-21.88426866 28.86624168 -21.88426866 28.86624168 -19.0625 27.1875 C-15.32195109 25.14418367 -12.01206473 23.63095294 -7.875 22.625 C-5.72987979 22.02185529 -5.72987979 22.02185529 -4 21 C-2.70587612 17.9616222 -2.32931158 16.19481386 -2 13 C-1.6288123 10.66605717 -1.25362678 8.33274757 -0.875 6 C-0.58625 4.02 -0.2975 2.04 0 0 Z M10 64 C10 67.96 10 71.92 10 76 C10.969375 76.45375 11.93875 76.9075 12.9375 77.375 C16 79 16 79 17 81 C17.15495763 83.24974161 17.25010928 85.50371536 17.31640625 87.7578125 C17.33718735 88.42086395 17.35796844 89.08391541 17.37937927 89.76705933 C17.44479231 91.88626694 17.50372105 94.005599 17.5625 96.125 C17.60569309 97.56121081 17.64930764 98.99740902 17.69335938 100.43359375 C17.80046499 103.95559594 17.90175575 107.47773825 18 111 C23.89148756 109.68668923 28.04353956 105.89121376 31.40625 100.921875 C34.74260105 94.29683506 35.42377896 87.37213538 33.1171875 80.2890625 C30.1090665 73.65525924 26.28298362 68.69132837 19.3984375 65.97265625 C14.78230441 64.4971943 14.78230441 64.4971943 10 64 Z " fill="#FDD96C" transform="translate(329,200)"/>
<path d="M0 0 C81.51 0 163.02 0 247 0 C247 46 247 46 244 52 C238.03804391 56.59567449 233.50203107 57.14874371 226.18243408 57.14717102 C225.27009404 57.15084771 224.357754 57.1545244 223.41776729 57.1583125 C220.34784183 57.16936245 217.2779502 57.1731954 214.20800781 57.17700195 C212.01205334 57.18326557 209.81609994 57.18991228 207.62014771 57.19691467 C201.64484299 57.21433284 195.66954627 57.22487851 189.69422245 57.2331202 C185.96253635 57.23826827 182.23085274 57.24434406 178.4991684 57.25063133 C167.49751258 57.26859183 156.49586136 57.28297078 145.49419348 57.29080774 C143.48115502 57.29224622 141.46811657 57.29369759 139.45507812 57.29516602 C138.78871309 57.29564976 138.12234806 57.2961335 137.43579015 57.2966319 C126.64155758 57.30493189 115.84743583 57.33026883 105.05325165 57.36274669 C93.96883276 57.3958257 82.88446 57.41349685 71.79999042 57.41702431 C65.57735342 57.41937718 59.35489162 57.42836865 53.13230133 57.45348549 C47.27838093 57.47673235 41.42475152 57.48101292 35.57079697 57.47072411 C33.42257343 57.47022783 31.27433573 57.47657526 29.12615585 57.49028015 C26.19225428 57.50795007 23.25940251 57.50091671 20.32550049 57.48774719 C19.05179623 57.50420106 19.05179623 57.50420106 17.75236058 57.52098733 C12.02024827 57.45891182 8.57252958 56.56532273 4 53 C0 45 0 45 0 0 Z " fill="#D9E0E6" transform="translate(84,425)"/>
<path d="M0 0 C0.91913573 -0.00694553 1.83827146 -0.01389106 2.78525978 -0.02104706 C5.85449011 -0.03929279 8.92294537 -0.02905934 11.99220276 -0.01878357 C14.19698158 -0.02584325 16.40175555 -0.03458847 18.60652161 -0.04489136 C24.58793789 -0.06738934 30.56908962 -0.06444455 36.5505321 -0.05556989 C41.54565732 -0.05045914 46.54073287 -0.05775329 51.53585297 -0.06504196 C63.99390339 -0.08301396 76.45183636 -0.07662896 88.90987641 -0.05887216 C99.71939697 -0.04417733 110.52863951 -0.05880256 121.33812427 -0.08764232 C132.44869034 -0.11706365 143.55914507 -0.12749285 154.66975075 -0.11846012 C160.90298657 -0.11353121 167.13600631 -0.11574496 173.36921501 -0.13624763 C179.23067435 -0.15460467 185.09161712 -0.14864509 190.95304871 -0.12404823 C193.1024557 -0.11904058 195.25190205 -0.12252885 197.40127754 -0.13519669 C200.33923732 -0.15114056 203.27549886 -0.13616312 206.21337891 -0.11352539 C207.4844576 -0.13127898 207.4844576 -0.13127898 208.78121465 -0.14939123 C214.6306711 -0.05803543 219.48610979 1.2270272 223.67018127 5.5146637 C227.67018127 13.5146637 227.67018127 13.5146637 227.67018127 42.5146637 C145.83018127 42.5146637 63.99018127 42.5146637 -20.32981873 42.5146637 C-20.32981873 11.5146637 -20.32981873 11.5146637 -16.32981873 4.5146637 C-10.92905591 0.41264219 -6.64934524 -0.06449463 0 0 Z " fill="#D7DEE4" transform="translate(104.32981872558594,29.485336303710938)"/>
<path d="M0 0 C10.44787696 6.52386753 16.94430691 15.21010432 20.61328125 26.96484375 C22.7546284 38.23395352 20.18681612 48.82715512 14.4609375 58.63671875 C7.73454698 68.02497471 -1.82008726 73.53983691 -13 76 C-23.38997153 77.43157278 -33.65254165 74.50393716 -42.375 68.8125 C-51.26705647 62.02797639 -56.78083078 52.96903642 -59 42 C-59.89526607 28.96659156 -57.43815772 19.07643893 -49.25 8.8046875 C-36.69607721 -4.95231956 -16.5451912 -8.18830423 0 0 Z M-19 11 C-19 14.96 -19 18.92 -19 23 C-18.030625 23.45375 -17.06125 23.9075 -16.0625 24.375 C-13 26 -13 26 -12 28 C-11.84504237 30.24974161 -11.74989072 32.50371536 -11.68359375 34.7578125 C-11.66281265 35.42086395 -11.64203156 36.08391541 -11.62062073 36.76705933 C-11.55520769 38.88626694 -11.49627895 41.005599 -11.4375 43.125 C-11.39430691 44.56121081 -11.35069236 45.99740902 -11.30664062 47.43359375 C-11.19953501 50.95559594 -11.09824425 54.47773825 -11 58 C-5.10851244 56.68668923 -0.95646044 52.89121376 2.40625 47.921875 C5.74260105 41.29683506 6.42377896 34.37213538 4.1171875 27.2890625 C1.1090665 20.65525924 -2.71701638 15.69132837 -9.6015625 12.97265625 C-14.21769559 11.4971943 -14.21769559 11.4971943 -19 11 Z " fill="#4A4D56" transform="translate(358,253)"/>
<path d="M0 0 C3.5 0.5625 3.5 0.5625 6 2 C8.2901905 5.91240877 7.45872604 9.31512804 6.5 13.5625 C4.69914832 18.85553279 2.55907825 23.99517397 0.4140625 29.15625 C-0.21676566 30.69839391 -0.84624169 32.24109153 -1.47445679 33.78430176 C-2.46321641 36.21292726 -3.45275287 38.64120079 -4.44632149 41.06786346 C-7.80961352 49.28639677 -11.06587676 57.5459085 -14.31577301 65.80978394 C-16.2604889 70.74798513 -18.21893456 75.68075536 -20.17564774 80.61421204 C-21.83991113 84.81218063 -23.49938098 89.01193948 -25.14990234 93.21533203 C-26.78947609 97.39012914 -28.44069408 101.56014204 -30.10017014 105.72706604 C-30.72079069 107.29147615 -31.33718492 108.85757022 -31.94911575 110.42539978 C-32.79299962 112.58573839 -33.65167138 114.73961298 -34.51416016 116.89257812 C-34.99599762 118.11271606 -35.47783508 119.332854 -35.97427368 120.58996582 C-37.52893176 123.61886703 -38.51478368 124.98015682 -41.5 126.5625 C-45.25245951 126.49666738 -47.56312483 126.37848805 -50.4375 123.875 C-52.25072717 119.92856438 -51.80148334 116.54390993 -50.54467773 112.45266724 C-50.09552002 111.34309662 -49.6463623 110.233526 -49.18359375 109.09033203 C-48.81205296 108.16018705 -48.81205296 108.16018705 -48.43300629 107.21125126 C-47.61090285 105.16020218 -46.77426914 103.11541722 -45.9375 101.0703125 C-45.35190158 99.61734018 -44.7672447 98.16398807 -44.18347168 96.71028137 C-42.62281616 92.83117765 -41.04972526 88.95723519 -39.47390747 85.08427048 C-37.85281636 81.09479157 -36.2421505 77.10111072 -34.63085938 73.10766602 C-32.71035251 68.34943929 -30.78890453 63.59160579 -28.86218262 58.83589172 C-25.2732985 49.97538364 -21.71764781 41.10354431 -18.21875 32.20703125 C-17.48047979 30.33511934 -16.74219911 28.46321157 -16.00390625 26.59130859 C-15.01232241 24.07584498 -14.02318944 21.55958037 -13.04248047 19.03985596 C-12.17138008 16.80341997 -11.29003959 14.57128886 -10.40625 12.33984375 C-9.93509766 11.13577881 -9.46394531 9.93171387 -8.97851562 8.69116211 C-5.27170294 0.84723797 -5.27170294 0.84723797 0 0 Z " fill="#484E57" transform="translate(226.5,104.4375)"/>
<path d="M0 0 C4.3717151 1.1421598 7.09469382 4.41447346 10.16796875 7.56640625 C10.98652344 8.36175781 11.80507813 9.15710938 12.6484375 9.9765625 C17.08147786 14.31571093 21.30109691 18.75681018 25.296875 23.5 C28.37159811 26.89567541 31.81601544 29.92181022 35.2265625 32.9765625 C37.16796875 35.56640625 37.16796875 35.56640625 37.890625 38.875 C36.83187775 44.28319542 33.9903576 46.73236378 30.16796875 50.56640625 C29.16706944 51.61362305 28.16854329 52.66311108 27.171875 53.71435547 C24.30799227 56.72372301 21.40669274 59.6937061 18.48876953 62.65063477 C17.26862152 63.89254192 16.0547884 65.14068311 14.84716797 66.39477539 C13.08306005 68.22581746 11.30001048 70.03635729 9.51171875 71.84375 C8.97921509 72.40408432 8.44671143 72.96441864 7.89807129 73.54173279 C4.23143665 77.18870691 1.55027587 78.5444197 -3.83203125 78.56640625 C-6.76953125 76.50390625 -6.76953125 76.50390625 -8.83203125 73.56640625 C-9.35925161 69.80045524 -9.28366811 68.17809561 -6.99951172 65.08447266 C-5.7371167 63.88830322 -5.7371167 63.88830322 -4.44921875 62.66796875 C-3.52882813 61.7759375 -2.6084375 60.88390625 -1.66015625 59.96484375 C-0.67664037 59.03945065 0.30774078 58.11497634 1.29296875 57.19140625 C7.45734809 51.31102271 13.38095504 45.6501814 18.16796875 38.56640625 C17.38558838 37.7892627 16.60320801 37.01211914 15.79711914 36.21142578 C12.90038988 33.33277024 10.00694979 30.45082803 7.11450195 27.56787109 C5.86116863 26.31957254 4.60694007 25.07217218 3.35180664 23.82568359 C1.54989373 22.03587361 -0.24879552 20.2428788 -2.046875 18.44921875 C-2.61043198 17.89082306 -3.17398895 17.33242737 -3.75462341 16.7571106 C-8.7259343 11.78652116 -8.7259343 11.78652116 -9.08203125 7.69140625 C-8.83203125 4.56640625 -8.83203125 4.56640625 -7.83203125 2.19140625 C-5.3067503 0.13961548 -3.22562331 -0.18213902 0 0 Z " fill="#484E58" transform="translate(260.83203125,128.43359375)"/>
<path d="M0 0 C1.875 1.125 1.875 1.125 3 3 C3.625 6.1875 3.625 6.1875 3 10 C-1.79325526 16.85801276 -8.51750891 22.6354156 -14.4375 28.5 C-15.35982422 29.4178125 -16.28214844 30.335625 -17.23242188 31.28125 C-19.48599899 33.52315055 -21.74189075 35.762666 -24 38 C-18.92476095 44.15257006 -13.36466744 49.71672564 -7.6875 55.3125 C-5.87662979 57.09795449 -4.06791792 58.88560159 -2.26171875 60.67578125 C-1.46725342 61.45864502 -0.67278809 62.24150879 0.14575195 63.0480957 C2.6518407 65.68617069 2.9650949 66.68585406 3.375 70.375 C3 74 3 74 0.9375 76.5 C-2.0080898 78.00413096 -3.66891451 78.43167875 -6.91967773 77.86962891 C-11.85212255 75.80773847 -15.38592797 71.2430639 -19 67.4375 C-19.86367187 66.55513672 -20.72734375 65.67277344 -21.6171875 64.76367188 C-26.06943352 60.18624872 -30.37622499 55.51082548 -34.54345703 50.6730957 C-35.73073976 49.30929273 -36.96632329 47.98766131 -38.21484375 46.6796875 C-38.78332031 46.08414063 -39.35179688 45.48859375 -39.9375 44.875 C-40.52402344 44.27429688 -41.11054687 43.67359375 -41.71484375 43.0546875 C-43.61977541 40.00911286 -43.58612151 38.57789627 -43 35 C-40.80035426 31.93652295 -38.12437305 29.40393923 -35.4140625 26.79296875 C-34.64194427 26.02696854 -33.86982605 25.26096832 -33.0743103 24.47175598 C-30.60491188 22.02930014 -28.11517863 19.60874718 -25.625 17.1875 C-23.95441658 15.53843804 -22.28512925 13.88806196 -20.6171875 12.23632812 C-17.56560345 9.22690004 -14.51253459 6.21918928 -11.43994141 3.23120117 C-10.82261139 2.62974777 -10.20528137 2.02829437 -9.56924438 1.40861511 C-6.28738067 -1.53731407 -4.16496692 -1.0199919 0 0 Z " fill="#484E57" transform="translate(160,129)"/>
<path d="M0 0 C0.72567673 -0.00700928 1.45135345 -0.01401855 2.19902039 -0.02124023 C4.5933581 -0.03881904 6.98651003 -0.02719894 9.38085938 -0.01367188 C11.04708076 -0.01636685 12.7133006 -0.02024931 14.3795166 -0.02526855 C17.86986276 -0.03116341 21.35979917 -0.02260137 24.85009766 -0.00390625 C29.322722 0.01888367 33.79438628 0.00576047 38.2669754 -0.01819611 C41.7071251 -0.03265465 45.14704741 -0.02804792 48.58720398 -0.01768494 C50.23622247 -0.01501779 51.88526165 -0.01828703 53.53425598 -0.02760315 C55.83979929 -0.03777017 58.14379095 -0.02226802 60.44921875 0 C61.76063843 0.00318237 63.07205811 0.00636475 64.42321777 0.00964355 C68.25820079 0.59967367 69.45295436 1.42548139 71.72460938 4.51757812 C72.28710938 7.45507812 72.28710938 7.45507812 71.72460938 10.51757812 C69.09845137 13.85529784 67.60838141 15.34952638 63.38562012 16.15249634 C61.4796405 16.15846329 61.4796405 16.15846329 59.53515625 16.16455078 C58.83044693 16.17331238 58.12573761 16.18207397 57.39967346 16.19110107 C55.08026769 16.21303033 52.76278303 16.19856794 50.44335938 16.18164062 C48.82580196 16.18501069 47.20824701 16.18986489 45.59069824 16.19613647 C42.20458815 16.20349894 38.81913862 16.19282332 35.43310547 16.16943359 C31.09828869 16.14094518 26.76501972 16.15735266 22.4302597 16.18729591 C19.09125155 16.20538642 15.7526088 16.19960305 12.41358948 16.18665695 C10.81563635 16.18332774 9.21764976 16.18739303 7.61973572 16.19905472 C5.38362099 16.21179366 3.14999254 16.19234993 0.9140625 16.16455078 C-0.35659058 16.16057281 -1.62724365 16.15659485 -2.93640137 16.15249634 C-7.15916266 15.34952638 -8.64923262 13.85529784 -11.27539062 10.51757812 C-11.83789062 7.45507812 -11.83789062 7.45507812 -11.27539062 4.51757812 C-8.02777828 0.09704268 -5.31492086 0.01289752 0 0 Z " fill="#4B4F58" transform="translate(177.275390625,448.482421875)"/>
<path d="M0 0 C0.93691177 -0.00524185 1.87382355 -0.0104837 2.83912659 -0.0158844 C4.81860362 -0.02230154 6.7981188 -0.02097159 8.77758789 -0.01245117 C11.80228789 -0.00394595 14.82509615 -0.03269906 17.84960938 -0.06445312 C19.77473902 -0.0660654 21.699872 -0.0654871 23.625 -0.0625 C24.52721786 -0.07373398 25.42943573 -0.08496796 26.35899353 -0.09654236 C30.50102209 -0.05069999 32.82056115 0.10447474 36.45336914 2.24584961 C38.37890625 4.43359375 38.37890625 4.43359375 38.94140625 7.93359375 C38.37890625 11.43359375 38.37890625 11.43359375 36.97460938 13.61694336 C32.9576274 16.42830179 29.07819008 16.02499438 24.28515625 16 C23.30148071 16.00619858 22.31780518 16.01239716 21.30432129 16.01878357 C19.22649118 16.02588122 17.1486042 16.0227087 15.07080078 16.01000977 C11.88988771 15.99614163 8.71191468 16.03021896 5.53125 16.06835938 C3.51171803 16.06931055 1.49218237 16.06745185 -0.52734375 16.0625 C-1.95403381 16.08238731 -1.95403381 16.08238731 -3.4095459 16.10267639 C-9.96526613 16.01012076 -9.96526613 16.01012076 -13.25195312 13.12084961 C-15.13304262 9.42877542 -14.78512448 7.36219747 -13.62109375 3.43359375 C-10.00860345 -0.72937126 -5.0879462 -0.01651811 0 0 Z " fill="#4B4F58" transform="translate(214.62109375,42.56640625)"/>
<path d="M0 0 C0.34432346 4.05536514 0.54364431 7.95765468 0 12 C-2.9375 14.6875 -2.9375 14.6875 -6 16 C-7.91219585 17.91219585 -7.24435298 21.33645504 -7.31640625 23.87890625 C-7.33718735 24.5655687 -7.35796844 25.25223114 -7.37937927 25.95970154 C-7.44494143 28.16052935 -7.50379015 30.36147975 -7.5625 32.5625 C-7.60567892 34.05144514 -7.649293 35.54037773 -7.69335938 37.02929688 C-7.8006293 40.68606553 -7.90187772 44.34297318 -8 48 C-13.78158407 46.65699243 -17.64853203 43.71672959 -21.3125 39.0625 C-24.94482306 32.47050629 -25.97256873 26.46649121 -25 19 C-22.27688932 10.52674937 -17.3606819 5.72542619 -10 1.125 C-6.50019023 -0.18742866 -3.70827801 -0.22249668 0 0 Z " fill="#6DBAF0" transform="translate(339,264)"/>
</svg>
