<?xml version="1.0" encoding="UTF-8"?>
<svg version="1.1" xmlns="http://www.w3.org/2000/svg" width="512" height="512">
<path d="M0 0 C3.04977385 2.81662998 3.83041252 4.87100565 4.11767578 9.04589844 C4.10720215 10.32368164 4.09672852 11.60146484 4.0859375 12.91796875 C4.08169266 13.94159515 4.08169266 13.94159515 4.07736206 14.98590088 C4.06620598 17.15614682 4.04111057 19.32597346 4.015625 21.49609375 C4.00558926 22.97134819 3.99646444 24.44660912 3.98828125 25.921875 C3.96628187 29.53008317 3.93178383 33.1380475 3.890625 36.74609375 C4.44915161 36.7372113 5.00767822 36.72832886 5.58312988 36.71917725 C11.42347933 36.63032751 17.26363517 36.5702043 23.10449219 36.52636719 C25.28100388 36.50631611 27.45746214 36.47906804 29.63378906 36.44433594 C32.77161893 36.39553163 35.90873335 36.37305937 39.046875 36.35546875 C40.01177856 36.33482361 40.97668213 36.31417847 41.9708252 36.29290771 C48.12327722 36.29088805 52.76338349 37.21415352 57.890625 40.74609375 C59.94921875 43 59.94921875 43 61.328125 45.30859375 C62.03775391 46.45521484 62.03775391 46.45521484 62.76171875 47.625 C64.63218649 51.13940825 65.01668474 53.88005487 65.02205276 57.7965126 C65.02589391 58.84667093 65.02973505 59.89682925 65.0336926 60.97881055 C65.03282612 62.13647262 65.03195963 63.2941347 65.03106689 64.48687744 C65.03552358 66.3270378 65.03552358 66.3270378 65.0400703 68.20437312 C65.04725891 71.61596994 65.04993026 75.02751641 65.05066776 78.43911719 C65.0525171 82.11613007 65.06006386 85.79313199 65.06680298 89.47013855 C65.08039207 97.51356131 65.08641198 105.55697909 65.09081364 113.60041142 C65.09357521 118.62192198 65.09781242 123.64343062 65.10231781 128.66493988 C65.11451147 142.56541956 65.12481044 156.46589769 65.1281929 170.3663826 C65.12841247 171.25626729 65.12863203 172.14615198 65.12885825 173.06300287 C65.12907653 173.9550297 65.12929481 174.84705653 65.1295197 175.76611447 C65.12996317 177.57373126 65.13040973 179.38134805 65.13085938 181.18896484 C65.1310808 182.08560721 65.13130223 182.98224958 65.13153037 183.90606293 C65.13547833 198.43468464 65.15293183 212.96325618 65.1762189 227.49185851 C65.19992917 242.40476294 65.21239461 257.3176422 65.21356082 272.23056579 C65.21447779 280.60497375 65.22023556 288.97931638 65.23838043 297.35370636 C65.25377708 304.48490522 65.25890449 311.61601854 65.25064233 318.74723086 C65.24673419 322.38556211 65.24767323 326.02372109 65.26169968 329.66203117 C65.27677006 333.60722042 65.26857681 337.55216691 65.25811768 341.49737549 C65.27020228 343.22048427 65.27020228 343.22048427 65.28253102 344.97840333 C65.22539201 354.17452832 63.51688257 359.96573716 56.890625 366.74609375 C52.43267676 369.43333893 49.15709572 370.11882057 43.98098755 370.1068573 C43.31024197 370.10942057 42.63949638 370.11198385 41.94842517 370.1146248 C39.71422824 370.11954286 37.48071607 370.10310345 35.24658203 370.08666992 C33.63980627 370.08582322 32.03302936 370.08629964 30.42625427 370.08799744 C26.07334048 370.08885712 21.72067538 370.07123567 17.36781931 370.05027556 C12.81544669 370.03150437 8.26306819 370.02975797 3.71066284 370.02619934 C-4.90589709 370.01688018 -13.52234264 369.99226813 -22.13885224 369.96215087 C-31.95015496 369.92860286 -41.76146317 369.91211984 -51.57280898 369.89706457 C-71.75174231 369.86571845 -91.93051888 369.81070797 -112.109375 369.74609375 C-112.109375 390.53609375 -112.109375 411.32609375 -112.109375 432.74609375 C-100.29259291 432.58836993 -100.29259291 432.58836993 -88.4765625 432.38574219 C-86.97917836 432.37404387 -85.48178135 432.36385476 -83.984375 432.35546875 C-83.22640625 432.33500488 -82.4684375 432.31454102 -81.6875 432.29345703 C-75.1821467 432.28926544 -70.17415243 434.17557298 -65.17163086 438.37133789 C-61.68427229 442.70684751 -59.03296869 447.14870875 -56.671875 452.18359375 C-56.30900391 452.89580078 -55.94613281 453.60800781 -55.57226562 454.34179688 C-53.06185107 459.62662752 -52.781688 463.02777674 -54.109375 468.74609375 C-56.36389198 471.67696582 -57.59380365 472.57423663 -61.109375 473.74609375 C-63.95984293 473.84657054 -66.78598449 473.88951777 -69.63668823 473.88653564 C-70.51777099 473.88950677 -71.39885374 473.89247789 -72.30663598 473.89553905 C-75.27067699 473.90423808 -78.23467768 473.9057353 -81.19873047 473.90722656 C-83.31911302 473.91185383 -85.43949474 473.91687837 -87.55987549 473.92227173 C-93.32844431 473.93540534 -99.0970015 473.94184241 -104.86558294 473.94628239 C-108.4672661 473.94921119 -112.06894605 473.9533156 -115.67062759 473.95778656 C-126.93293903 473.9714632 -138.19524317 473.98112939 -149.45756233 473.98498845 C-162.47068472 473.98947161 -175.48370219 474.00703082 -188.49679267 474.03598905 C-198.54780573 474.05758165 -208.59878921 474.06769142 -218.64982522 474.06902957 C-224.65662485 474.07007921 -230.66332589 474.07602101 -236.67010117 474.09384918 C-242.31878836 474.11028828 -247.9673024 474.11250561 -253.61600494 474.10371017 C-255.6908858 474.1029376 -257.76577581 474.10731137 -259.84063339 474.11716843 C-262.66999513 474.12982322 -265.49873756 474.12404638 -268.32809448 474.11358643 C-269.56384588 474.12567103 -269.56384588 474.12567103 -270.82456195 474.13799977 C-275.44032243 474.09800451 -278.43770416 473.61076323 -282.109375 470.74609375 C-284.76234301 467.6509644 -285.13171865 466.21886511 -284.9375 462.109375 C-284.23509772 457.27470815 -282.29721366 453.37916757 -279.984375 449.12109375 C-279.61828125 448.39664062 -279.2521875 447.6721875 -278.875 446.92578125 C-275.73482039 441.02993382 -271.87783812 436.73211301 -265.92651367 433.59570312 C-262.12017904 432.44776617 -258.46285984 432.49870952 -254.52734375 432.55078125 C-253.80502563 432.55279541 -253.08270752 432.55480957 -252.33850098 432.55688477 C-249.65789375 432.56729489 -246.97737754 432.5952173 -244.296875 432.62109375 C-238.295 432.66234375 -232.293125 432.70359375 -226.109375 432.74609375 C-226.109375 411.95609375 -226.109375 391.16609375 -226.109375 369.74609375 C-231.00523437 369.77227783 -235.90109375 369.79846191 -240.9453125 369.82543945 C-257.11434017 369.9082579 -273.28337615 369.96376022 -289.45256042 370.00515461 C-299.25673239 370.03092189 -309.06070323 370.06604422 -318.86474609 370.12329102 C-327.4112639 370.17317115 -335.95763602 370.20539549 -344.50429535 370.21653622 C-349.02858009 370.22304719 -353.55244811 370.23831889 -358.07659912 370.27474403 C-362.3382468 370.30877649 -366.59930759 370.3191322 -370.86107826 370.31163216 C-372.42193101 370.31300348 -373.98280414 370.32289311 -375.54353905 370.34212112 C-390.84053801 370.52127435 -390.84053801 370.52127435 -397.109375 364.74609375 C-403.68442815 357.99801289 -403.40225884 350.55886111 -403.38352966 341.66473389 C-403.38876634 340.43751374 -403.39400302 339.21029358 -403.39939839 337.94588494 C-403.41179517 334.54680726 -403.4152422 331.14793658 -403.41480148 327.74885058 C-403.41645207 324.07999968 -403.42952308 320.41118624 -403.44099426 316.74235535 C-403.46382421 308.72370042 -403.47176263 300.70507199 -403.47682071 292.68638897 C-403.4800799 287.67739913 -403.48660371 282.66841696 -403.4938221 277.65943146 C-403.513385 263.78457258 -403.52979116 249.90972082 -403.53269863 236.03484726 C-403.5328862 235.14732262 -403.53307377 234.25979798 -403.53326702 233.34537865 C-403.53363327 231.54623906 -403.53399697 229.74709946 -403.53435814 227.94795987 C-403.53454095 227.05489386 -403.53472376 226.16182784 -403.53491211 225.24169922 C-403.53509266 224.34754029 -403.53527321 223.45338135 -403.53545923 222.53212669 C-403.53900067 208.04447801 -403.56602254 193.55697798 -403.60341 179.06938085 C-403.64150855 164.18687133 -403.66085622 149.30443555 -403.66115814 134.42187619 C-403.66174235 126.06916828 -403.67021042 117.71663773 -403.69915581 109.36397552 C-403.72369037 102.25155369 -403.73093863 95.13937392 -403.71590828 88.02692118 C-403.70874789 84.40023624 -403.70955839 80.77402911 -403.73231888 77.14739799 C-403.7567932 73.20985064 -403.74224858 69.27298164 -403.72410583 65.33538818 C-403.7373058 64.19743388 -403.75050577 63.05947958 -403.76410574 61.88704181 C-403.68701289 54.55087657 -402.3572743 48.83428065 -398.109375 42.74609375 C-394.00661563 38.83838822 -389.798193 36.61998477 -384.10138416 36.62304592 C-383.28377985 36.62105487 -382.46617553 36.61906382 -381.62379533 36.61701244 C-380.7259429 36.61992528 -379.82809047 36.62283812 -378.9030304 36.62583923 C-377.94899942 36.62498481 -376.99496845 36.62413038 -376.01202744 36.62325007 C-372.8013751 36.62159726 -369.59077451 36.62711342 -366.38012695 36.63256836 C-364.08414715 36.6328503 -361.78816725 36.63269236 -359.4921875 36.63212585 C-353.24668871 36.63183815 -347.001209 36.63773057 -340.75571465 36.64469981 C-334.23339957 36.65093779 -327.71108408 36.6515375 -321.18876648 36.65272522 C-310.23741311 36.65548332 -299.28606681 36.66173573 -288.3347168 36.6706543 C-277.0541182 36.67983145 -265.7735215 36.68691081 -254.49291992 36.69116211 C-253.45014722 36.69155619 -253.45014722 36.69155619 -252.38630841 36.69195824 C-248.89883172 36.69326327 -245.41135502 36.69452698 -241.92387831 36.69577014 C-212.98570589 36.70613909 -184.04754062 36.72382848 -155.109375 36.74609375 C-155.13032227 35.83843262 -155.15126953 34.93077148 -155.17285156 33.99560547 C-155.24128433 30.60731733 -155.29129795 27.21977025 -155.32910156 23.83105469 C-155.34913832 22.36837123 -155.37637604 20.90576709 -155.41113281 19.44335938 C-155.46000725 17.33313365 -155.48242159 15.22397239 -155.5 13.11328125 C-155.52094727 11.84597168 -155.54189453 10.57866211 -155.56347656 9.27294922 C-154.93001119 4.35303482 -152.83815205 1.22359507 -149.09375 -1.9765625 C-112.06738219 -24.1794369 -35.75985527 -25.63579029 0 0 Z " fill="#488CF6" transform="translate(425.109375,27.25390625)"/>
<path d="M0 0 C0.81760431 -0.00199105 1.63520863 -0.0039821 2.47758883 -0.00603348 C3.37544126 -0.00312064 4.27329369 -0.0002078 5.19835377 0.00279331 C6.15238474 0.00193889 7.10641572 0.00108446 8.08935672 0.00020415 C11.30000906 -0.00144866 14.51060965 0.0040675 17.72125721 0.00952244 C20.01723701 0.00980438 22.31321691 0.00964644 24.60919666 0.00907993 C30.85469545 0.00879223 37.10017516 0.01468465 43.34566951 0.02165389 C49.86798459 0.02789187 56.39030008 0.02849158 62.91261768 0.0296793 C73.86397105 0.0324374 84.81531735 0.03868981 95.76666737 0.04760838 C107.04726597 0.05678553 118.32786266 0.06386488 129.60846424 0.06811619 C130.65123694 0.06851027 130.65123694 0.06851027 131.71507575 0.06891232 C135.20255244 0.07021734 138.69002914 0.07148106 142.17750585 0.07272422 C171.1156784 0.08309317 200.05384328 0.10098325 228.99200916 0.12304783 C228.99200916 6.39304783 228.99200916 12.66304783 228.99200916 19.12304783 C224.79923016 19.12518536 224.79923016 19.12518536 220.52174854 19.12736607 C194.89393012 19.14274119 169.26624441 19.18283128 143.63850727 19.24990345 C140.2801861 19.25867028 136.92186442 19.26722008 133.56354237 19.27563572 C132.89495621 19.27731478 132.22637005 19.27899384 131.53752371 19.28072379 C120.70946191 19.3073993 109.88145304 19.31648926 99.05336175 19.31908926 C87.94411713 19.32214787 76.83501211 19.34445642 65.72583359 19.3835724 C59.48533047 19.40493399 53.24508621 19.41748666 47.00454617 19.40920162 C41.13331382 19.40168168 35.26260689 19.41740103 29.39147091 19.45110798 C27.23437263 19.45936602 25.07722235 19.45906224 22.92012882 19.44964504 C19.97852475 19.43807221 17.03865671 19.45706678 14.097188 19.48381138 C13.24017978 19.47313812 12.38317157 19.46246486 11.50019342 19.45146817 C7.47738762 19.51987943 5.43008526 19.84607182 1.9621973 22.03866291 C-0.84112019 26.42733525 -0.70002678 30.00035636 -0.63617992 35.11244297 C-0.64327431 36.12661382 -0.6503687 37.14078466 -0.65767807 38.18568796 C-0.67529854 41.58845037 -0.65713173 44.9900767 -0.63909435 48.39282322 C-0.64423155 50.83039464 -0.65151132 53.26796236 -0.66077709 55.70552158 C-0.67739669 61.64127543 -0.67064055 67.57672881 -0.65268887 73.51245338 C-0.638664 78.33593178 -0.6347698 83.15932081 -0.63813114 87.98281765 C-0.63860858 88.6692749 -0.63908603 89.35573214 -0.63957794 90.06299112 C-0.64060426 91.45749655 -0.64165962 92.85200196 -0.6427437 94.24650734 C-0.65131099 106.57692071 -0.63463422 118.9071751 -0.60491467 131.23754978 C-0.57607085 143.20474009 -0.5689966 155.17170143 -0.58440685 167.13891697 C-0.60116312 180.16927082 -0.60520962 193.19951597 -0.58769649 206.22987264 C-0.58585209 207.61894634 -0.58401736 209.00802005 -0.58219242 210.39709377 C-0.58128033 211.08055533 -0.58036824 211.76401689 -0.57942851 212.46818941 C-0.57382 217.28693325 -0.57713315 222.10562407 -0.58373737 226.92436504 C-0.5922704 233.40785439 -0.57933025 239.89108756 -0.55188847 246.37452602 C-0.54498568 248.75781236 -0.54492679 251.14112949 -0.552104 253.52441502 C-0.56075427 256.77019486 -0.54491684 260.01494303 -0.52265453 263.26063633 C-0.53501568 264.68547615 -0.53501568 264.68547615 -0.54762655 266.13910061 C-0.53274599 271.27748773 -0.53274599 271.27748773 1.89917564 275.67694855 C5.71207645 278.31157432 8.10579309 278.2499019 12.75219917 278.25447559 C13.45874908 278.25652823 14.16529899 278.25858086 14.8932595 278.2606957 C17.28477982 278.26639561 19.67624309 278.26490478 22.06776905 278.26348972 C23.79009893 278.26607165 25.51242821 278.26908432 27.23475665 278.27249312 C31.98644573 278.28058668 36.73811972 278.282354 41.48981488 278.28309059 C46.60717338 278.28493706 51.72452398 278.29248232 56.84187794 278.29922581 C68.04008413 278.31282627 79.23828675 278.31883649 90.43649983 278.32323647 C97.42405063 278.32599595 104.41160004 278.33023275 111.39914989 278.33474064 C130.7322684 278.34693545 150.0653858 278.35723441 169.39850807 278.36061573 C170.63664152 278.3608353 171.87477497 278.36105486 173.15042762 278.36128108 C175.01215976 278.3616085 175.01215976 278.3616085 176.91150266 278.36194253 C179.42670079 278.362386 181.94189892 278.36283256 184.45709705 278.3632822 C185.70473147 278.36350363 186.95236589 278.36372506 188.23780742 278.3639532 C208.46161383 278.36790263 228.68538424 278.38536012 248.90917674 278.40864173 C269.65516331 278.4323324 290.40113179 278.44481654 311.1471321 278.44598365 C322.80230588 278.44690169 334.45743276 278.45268633 346.11259365 278.47080326 C356.03591349 278.48617345 365.95917193 278.49134298 375.8825014 278.48306516 C380.94837257 278.47914772 386.01411999 278.48014137 391.07997608 278.49412251 C395.71430638 278.50679607 400.34841911 278.50572187 404.98274883 278.49353179 C406.66244594 278.49156339 408.34215811 278.49470556 410.02183399 278.50337616 C412.29958807 278.51439291 414.57656401 278.50703515 416.85429573 278.49498463 C418.12109777 278.49558172 419.38789981 278.4961788 420.69308978 278.49679399 C424.26458069 278.09216724 426.14019497 277.26897491 428.99200916 275.12304783 C431.79228946 270.63932267 431.27354477 265.44457854 431.25270557 260.33020115 C431.25653112 259.33715363 431.26035667 258.34410611 431.26429814 257.32096624 C431.27462557 253.9899658 431.27063645 250.6591378 431.26666737 247.32812595 C431.27101393 244.94144118 431.27619689 242.55475781 431.28215504 240.16807652 C431.29416841 234.35641064 431.29669589 228.54479855 431.29435477 222.73312175 C431.2925716 218.00978479 431.29432124 213.28646185 431.29857922 208.56312656 C431.299472 207.55468899 431.299472 207.55468899 431.30038282 206.52587894 C431.30159457 205.16012426 431.3028087 203.79436959 431.3040252 202.42861491 C431.31490013 189.6224252 431.31273829 176.81626182 431.30664035 164.01007062 C431.30146952 152.29315394 431.31273106 140.57632036 431.33173857 128.85942012 C431.35110673 116.82798778 431.35937488 104.79659477 431.35561532 92.76514673 C431.35370193 86.01056369 431.35620427 79.25605139 431.37032986 72.50148106 C431.38287276 66.15182091 431.3809976 59.80232758 431.36791897 53.4526701 C431.36554605 51.11978252 431.36831331 48.78688333 431.37654209 46.45400906 C431.38695046 43.27444199 431.37895625 40.09544081 431.36623096 36.91589451 C431.37360525 35.98836888 431.38097953 35.06084325 431.38857728 34.10521078 C431.34804343 29.30554047 431.18017962 25.9795321 427.99200916 22.12304783 C424.18559675 19.58543956 421.02340561 19.77327308 416.60529041 19.70898533 C415.78828159 19.68961918 414.97127277 19.67025303 414.12950611 19.65030003 C411.52127982 19.59054431 408.9130093 19.54413525 406.30450916 19.49804783 C404.53560976 19.45986432 402.76672888 19.42081237 400.99786854 19.38086033 C396.66267871 19.28321175 392.32768494 19.20361295 387.99200916 19.12304783 C387.99200916 12.85304783 387.99200916 6.58304783 387.99200916 0.12304783 C394.39658615 0.02378757 400.80071021 -0.04860634 407.20587635 -0.09667873 C409.38238804 -0.11672981 411.5588463 -0.14397788 413.73517323 -0.17870998 C416.87300309 -0.22751429 420.01011751 -0.24998655 423.14825916 -0.26757717 C424.11316273 -0.28822231 425.07806629 -0.30886745 426.07220936 -0.33013821 C432.22466138 -0.33215788 436.86476765 0.5911076 441.99200916 4.12304783 C444.05060291 6.37695408 444.05060291 6.37695408 445.42950916 8.68554783 C445.9025951 9.44996189 446.37568104 10.21437595 446.86310291 11.00195408 C448.73357066 14.51636233 449.11806891 17.25700894 449.12343693 21.17346668 C449.12727807 22.223625 449.13111922 23.27378333 449.13507676 24.35576463 C449.13421028 25.5134267 449.1333438 26.67108878 449.13245106 27.86383152 C449.13690774 29.70399188 449.13690774 29.70399188 449.14145446 31.5813272 C449.14864307 34.99292401 449.15131442 38.40447048 449.15205193 41.81607127 C449.15390127 45.49308415 449.16144802 49.17008607 449.16818714 52.84709263 C449.18177624 60.89051539 449.18779614 68.93393317 449.1921978 76.97736549 C449.19495938 81.99887606 449.19919659 87.0203847 449.20370197 92.04189396 C449.21589564 105.94237364 449.2261946 119.84285177 449.22957706 133.74333668 C449.22979663 134.63322137 449.2300162 135.52310606 449.23024242 136.43995695 C449.23046069 137.33198378 449.23067897 138.22401061 449.23090386 139.14306855 C449.23134733 140.95068534 449.23179389 142.75830213 449.23224354 144.56591892 C449.23246497 145.46256129 449.2326864 146.35920366 449.23291454 147.28301701 C449.23686249 161.81163872 449.25431599 176.34021026 449.27760306 190.86881259 C449.30131333 205.78171702 449.31377878 220.69459628 449.31494498 235.60751987 C449.31586195 243.98192783 449.32161973 252.35627046 449.3397646 260.73066044 C449.35516124 267.86185929 449.36028865 274.99297262 449.35202649 282.12418494 C449.34811836 285.76251619 449.34905739 289.40067517 449.36308384 293.03898525 C449.37815423 296.98417449 449.36996098 300.92912099 449.35950184 304.87432957 C449.37158645 306.59743835 449.37158645 306.59743835 449.38391519 308.35535741 C449.32677617 317.5514824 447.61826674 323.34269124 440.99200916 330.12304783 C436.53406093 332.81029301 433.25847988 333.49577465 428.08237171 333.48381138 C427.41162613 333.48637465 426.74088054 333.48893793 426.04980934 333.49157888 C423.81561241 333.49649694 421.58210024 333.48005753 419.34796619 333.463624 C417.74119044 333.4627773 416.13441352 333.46325372 414.52763844 333.46495152 C410.17472464 333.4658112 405.82205954 333.44818974 401.46920347 333.42722964 C396.91683086 333.40845845 392.36445235 333.40671205 387.812047 333.40315342 C379.19548708 333.39383426 370.57904152 333.36922221 361.96253192 333.33910495 C352.15122921 333.30555694 342.33992099 333.28907392 332.52857518 333.27401865 C312.34964185 333.24267253 292.17086528 333.18766205 271.99200916 333.12304783 C271.99200916 353.91304783 271.99200916 374.70304783 271.99200916 396.12304783 C283.80879125 395.96532401 283.80879125 395.96532401 295.62482166 395.76269627 C297.1222058 395.75099795 298.61960281 395.74080884 300.11700916 395.73242283 C300.87497791 395.71195896 301.63294666 395.69149509 302.41388416 395.67041111 C308.91923746 395.66621952 313.92723173 397.55252706 318.9297533 401.74829197 C322.41711188 406.08380159 325.06841548 410.52566283 327.42950916 415.56054783 C327.79238026 416.27275486 328.15525135 416.98496189 328.52911854 417.71875095 C331.0395331 423.0035816 331.31969616 426.40473082 329.99200916 432.12304783 C327.73749218 435.0539199 326.50758051 435.95119071 322.99200916 437.12304783 C320.14154123 437.22352462 317.31539967 437.26647185 314.46469593 437.26348972 C313.58361318 437.26646085 312.70253042 437.26943197 311.79474819 437.27249312 C308.83070717 437.28119216 305.86670648 437.28268938 302.90265369 437.28418064 C300.78227114 437.28880791 298.66188942 437.29383245 296.54150867 437.29922581 C290.77293985 437.31235942 285.00438266 437.31879649 279.23580122 437.32323647 C275.63411807 437.32616527 272.03243811 437.33026968 268.43075657 437.33474064 C257.16844514 437.34841728 245.906141 437.35808347 234.64382184 437.36194253 C221.63069945 437.36642569 208.61768197 437.3839849 195.60459149 437.41294312 C185.55357844 437.43453573 175.50259496 437.44464549 165.45155895 437.44598365 C159.44475931 437.44703329 153.43805827 437.45297509 147.431283 437.47080326 C141.7825958 437.48724236 136.13408176 437.48945969 130.48537922 437.48066425 C128.41049836 437.47989168 126.33560836 437.48426545 124.26075077 437.49412251 C121.43138903 437.5067773 118.60264661 437.50100045 115.77328968 437.4905405 C114.53753828 437.50262511 114.53753828 437.50262511 113.27682221 437.51495385 C108.66106173 437.47495859 105.66368 436.9877173 101.99200916 434.12304783 C99.33904115 431.02791848 98.96966551 429.59581918 99.16388416 425.48632908 C99.86628644 420.65166223 101.80417051 416.75612165 104.11700916 412.49804783 C104.48310291 411.7735947 104.84919666 411.04914158 105.22638416 410.30273533 C108.36656377 404.4068879 112.22354604 400.10906709 118.17487049 396.9726572 C121.98120513 395.82472025 125.63852432 395.87566359 129.57404041 395.92773533 C130.29635853 395.92974949 131.01867664 395.93176365 131.76288319 395.93383884 C134.44349041 395.94424897 137.12400662 395.97217138 139.80450916 395.99804783 C145.80638416 396.03929783 151.80825916 396.08054783 157.99200916 396.12304783 C157.99200916 375.33304783 157.99200916 354.54304783 157.99200916 333.12304783 C153.09614979 333.14923191 148.20029041 333.17541599 143.15607166 333.20239353 C126.98704399 333.28521197 110.81800802 333.3407143 94.64882374 333.38210869 C84.84465177 333.40787597 75.04068093 333.4429983 65.23663807 333.50024509 C56.69012026 333.55012523 48.14374814 333.58234957 39.59708881 333.5934903 C35.07280407 333.60000127 30.54893605 333.61527297 26.02478504 333.65169811 C21.76313736 333.68573057 17.50207657 333.69608628 13.2403059 333.68858624 C11.67945315 333.68995756 10.11858003 333.69984719 8.55784512 333.7190752 C-6.73915385 333.89822843 -6.73915385 333.89822843 -13.00799084 328.12304783 C-19.58304398 321.37496697 -19.30087468 313.93581519 -19.2821455 305.04168797 C-19.28738218 303.81446781 -19.29261886 302.58724766 -19.29801422 301.32283902 C-19.31041101 297.92376134 -19.31385804 294.52489066 -19.31341732 291.12580466 C-19.31506791 287.45695376 -19.32813891 283.78814032 -19.3396101 280.11930943 C-19.36244004 272.1006545 -19.37037847 264.08202607 -19.37543654 256.06334305 C-19.37869574 251.05435321 -19.38521954 246.04537104 -19.39243793 241.03638554 C-19.41200084 227.16152666 -19.428407 213.2866749 -19.43131447 199.41180134 C-19.43150204 198.5242767 -19.43168961 197.63675206 -19.43188286 196.72233273 C-19.43224911 194.92319314 -19.43261281 193.12405354 -19.43297397 191.32491395 C-19.43315678 190.43184793 -19.4333396 189.53878192 -19.43352795 188.6186533 C-19.4337085 187.72449436 -19.43388904 186.83033543 -19.43407506 185.90908077 C-19.43761651 171.42143209 -19.46463838 156.93393206 -19.50202584 142.44633493 C-19.54012439 127.56382541 -19.55947206 112.68138963 -19.55977398 97.79883027 C-19.56035818 89.44612235 -19.56882626 81.09359181 -19.59777164 72.7409296 C-19.62230621 65.62850776 -19.62955446 58.516328 -19.61452412 51.40387526 C-19.60736373 47.77719032 -19.60817423 44.15098319 -19.63093472 40.52435207 C-19.65540904 36.58680471 -19.64086442 32.64993572 -19.62272167 28.71234226 C-19.63592164 27.57438796 -19.64912161 26.43643365 -19.66272157 25.26399589 C-19.58562872 17.92783064 -18.25589014 12.21123473 -14.00799084 6.12304783 C-9.90523147 2.21534229 -5.69680884 -0.00306115 0 0 Z " fill="#57595B" transform="translate(41.00799083709717,63.876952171325684)"/>
<path d="M0 0 C2.74135161 2.53178548 3.77651217 4.62518231 4.15627384 8.35551834 C4.16352199 9.35172573 4.17077013 10.34793312 4.17823792 11.37432861 C4.19110336 12.5210051 4.20396881 13.66768158 4.21722412 14.84910583 C4.22103088 16.10320755 4.22483765 17.35730927 4.22875977 18.64941406 C4.23965866 19.98676681 4.25133077 21.32411345 4.26371765 22.66145325 C4.29419668 26.29179021 4.31123487 29.92206384 4.32393384 33.55250263 C4.33202579 35.82268797 4.34220666 38.09285525 4.35294914 40.36302948 C4.38566203 47.47184889 4.40956366 54.58062424 4.421763 61.68950868 C4.43601123 69.88468465 4.47986441 78.07899847 4.54926449 86.27388883 C4.60111001 92.61545532 4.62594116 98.95677714 4.63058513 105.29855227 C4.63397759 109.08295871 4.64874358 112.8664929 4.69186592 116.65067291 C4.7317538 120.21335748 4.73796533 123.77456614 4.71896553 127.33740807 C4.71710538 129.2587151 4.74982651 131.17995956 4.78378296 133.10096741 C4.70761841 140.14926825 3.86862099 144.16788769 -1.20434666 149.21157455 C-26.34789525 169.46495194 -72.72946805 167.04629006 -103.13964844 163.92114258 C-120.3526379 161.81975411 -142.4526487 158.9231933 -154.109375 144.74609375 C-155.1410613 141.65103484 -155.24257204 139.50754211 -155.25654602 136.26261902 C-155.26370132 135.12284103 -155.27085663 133.98306305 -155.27822876 132.80874634 C-155.28091766 131.557258 -155.28360657 130.30576965 -155.28637695 129.01635742 C-155.29294815 127.6990715 -155.29951935 126.38178558 -155.30628967 125.02458191 C-155.32731324 120.65442113 -155.33768984 116.28426006 -155.34765625 111.9140625 C-155.35170432 110.40882156 -155.35582126 108.90358079 -155.36000633 107.39834023 C-155.37905356 100.32689348 -155.39328607 93.25545716 -155.4016183 86.1839897 C-155.41139208 78.02413433 -155.43771698 69.86455012 -155.47811919 61.70479029 C-155.50828569 55.3955564 -155.52308764 49.08640023 -155.52639931 42.77709562 C-155.52874904 39.00974925 -155.53769911 35.24269274 -155.56286049 31.47542381 C-155.58615618 27.93029332 -155.59036882 24.38564323 -155.58009911 20.84045601 C-155.57936842 18.92360444 -155.59844881 17.00677718 -155.61816406 15.09002686 C-155.5795189 8.69961973 -155.51606988 4.5546422 -151.109375 -0.25390625 C-118.93259859 -27.75382563 -33.04961194 -23.69285094 0 0 Z " fill="#A44AF3" transform="translate(425.109375,27.25390625)"/>
<path d="M0 0 C37.62 0 75.24 0 114 0 C114 20.79 114 41.58 114 63 C125.81678209 62.84227618 125.81678209 62.84227618 137.6328125 62.63964844 C139.13019664 62.62795012 140.62759365 62.61776101 142.125 62.609375 C143.26195312 62.5786792 143.26195312 62.5786792 144.421875 62.54736328 C150.9272283 62.54317169 155.93522257 64.42947923 160.93774414 68.62524414 C164.42510271 72.96075376 167.07640631 77.402615 169.4375 82.4375 C169.80037109 83.14970703 170.16324219 83.86191406 170.53710938 84.59570312 C173.04752393 89.88053377 173.327687 93.28168299 172 99 C169.74548302 101.93087207 168.51557135 102.82814288 165 104 C162.14953207 104.10047679 159.32339051 104.14342402 156.47268677 104.14044189 C155.59160401 104.14341302 154.71052126 104.14638414 153.80273902 104.1494453 C150.83869801 104.15814433 147.87469732 104.15964155 144.91064453 104.16113281 C142.79026198 104.16576008 140.66988026 104.17078462 138.54949951 104.17617798 C132.78093069 104.18931159 127.0123735 104.19574866 121.24379206 104.20018864 C117.6421089 104.20311744 114.04042895 104.20722185 110.43874741 104.21169281 C99.17643597 104.22536945 87.91413183 104.23503564 76.65181267 104.2388947 C63.63869028 104.24337786 50.62567281 104.26093707 37.61258233 104.2898953 C27.56156927 104.3114879 17.51058579 104.32159767 7.45954978 104.32293582 C1.45275015 104.32398546 -4.55395089 104.32992726 -10.56072617 104.34775543 C-16.20941336 104.36419453 -21.8579274 104.36641186 -27.50662994 104.35761642 C-29.5815108 104.35684385 -31.65640081 104.36121762 -33.73125839 104.37107468 C-36.56062013 104.38372947 -39.38936256 104.37795263 -42.21871948 104.36749268 C-43.45447088 104.37957728 -43.45447088 104.37957728 -44.71518695 104.39190602 C-49.33094743 104.35191076 -52.32832916 103.86466948 -56 101 C-58.65296801 97.90487065 -59.02234365 96.47277136 -58.828125 92.36328125 C-58.12572272 87.5286144 -56.18783866 83.63307382 -53.875 79.375 C-53.32585937 78.28832031 -53.32585937 78.28832031 -52.765625 77.1796875 C-49.62544539 71.28384007 -45.76846312 66.98601926 -39.81713867 63.84960938 C-36.01080404 62.70167242 -32.35348484 62.75261577 -28.41796875 62.8046875 C-27.69565063 62.80670166 -26.97333252 62.80871582 -26.22912598 62.81079102 C-23.54851875 62.82120114 -20.86800254 62.84912355 -18.1875 62.875 C-12.185625 62.91625 -6.18375 62.9575 0 63 C0 42.21 0 21.42 0 0 Z " fill="#57585A" transform="translate(199,397)"/>
<path d="M0 0 C2.25355284 -0.06256216 4.50760433 -0.10734791 6.76171875 -0.14453125 C8.01686279 -0.17135986 9.27200684 -0.19818848 10.56518555 -0.22583008 C13.90740047 -0.00608818 15.28511922 0.22270717 17.8125 2.3125 C20.53418824 5.65628841 21.12432737 7.9675631 21.13142776 12.14740467 C21.13526891 12.99614275 21.13911005 13.84488083 21.1430676 14.71933824 C21.14220112 15.65200743 21.14133463 16.58467662 21.14044189 17.54560852 C21.14489858 19.03155818 21.14489858 19.03155818 21.1494453 20.54752702 C21.158149 23.88236045 21.15964195 27.21715805 21.16113281 30.55200195 C21.16575978 32.93676836 21.17078428 35.32153403 21.17617798 37.70629883 C21.18931516 44.19598519 21.19578601 50.68566467 21.20018864 57.17536187 C21.20295101 61.22731867 21.20718836 65.27927307 21.21169281 69.33122826 C21.22388542 80.54925671 21.23418479 91.76728325 21.2375679 102.98531818 C21.23778747 103.70333298 21.23800703 104.42134778 21.23823325 105.1611206 C21.23845153 105.88085591 21.23866981 106.60059122 21.2388947 107.34213668 C21.23933817 108.80060089 21.23978473 110.25906509 21.24023438 111.7175293 C21.2404558 112.44097832 21.24067723 113.16442734 21.24090537 113.90979906 C21.24485351 125.6326294 21.26230801 137.35539757 21.2855939 149.07820389 C21.30930655 161.11296239 21.32176971 173.14768969 21.32293582 185.18247193 C21.32385262 191.93991778 21.32960626 198.69728265 21.34775543 205.45470619 C21.36419888 211.81007864 21.36640969 218.16529719 21.35761642 224.52068329 C21.35684407 226.85476531 21.36121478 229.18885547 21.37107468 231.52291679 C21.38373617 234.70660939 21.37794865 237.88975215 21.36749268 241.07344055 C21.37957728 242.46240609 21.37957728 242.46240609 21.39190602 243.87943155 C21.35277566 248.9656759 21.00473413 252.68969747 18 257 C13.94179329 260.06584442 10.89876319 260.37622726 5.87345982 260.38031673 C4.80889205 260.38730661 4.80889205 260.38730661 3.72281787 260.3944377 C1.33842645 260.40641355 -1.04539787 260.39698257 -3.42979431 260.38768005 C-5.15400352 260.39185184 -6.87820998 260.39732851 -8.60241133 260.40399987 C-13.34544325 260.4184935 -18.08830198 260.41419754 -22.83134353 260.40683305 C-27.94459102 260.40211337 -33.05780039 260.41460057 -38.17103577 260.42485046 C-48.19013647 260.44206727 -58.20917454 260.44287252 -68.2282862 260.43763756 C-76.36980859 260.43360006 -84.51131244 260.43503442 -92.65283394 260.44038582 C-94.38937076 260.44150845 -94.38937076 260.44150845 -96.16098912 260.44265376 C-98.51265307 260.4441852 -100.86431702 260.44572355 -103.21598095 260.44726873 C-125.28108244 260.46100415 -147.34614849 260.45554872 -169.41124917 260.44408352 C-189.60834179 260.43414958 -209.80534282 260.44709277 -230.00242131 260.47101771 C-250.72930558 260.49538571 -271.45614714 260.50502227 -292.18304545 260.49836498 C-303.82424079 260.49486771 -315.46536567 260.49713834 -327.10655022 260.51461601 C-337.01625113 260.52930924 -346.92583196 260.53001118 -356.83553045 260.5125451 C-361.89347429 260.50400905 -366.95120334 260.50194895 -372.0091362 260.51719666 C-376.63729957 260.53097629 -381.26506279 260.5263677 -385.89320261 260.50695742 C-387.56945987 260.50317635 -389.24574867 260.5061796 -390.92197799 260.51656907 C-393.19767661 260.52967358 -395.47198074 260.51821588 -397.74761868 260.50057125 C-399.01241477 260.50046391 -400.27721087 260.50035658 -401.58033413 260.50024599 C-405.64081782 259.90625793 -407.82243742 258.54976295 -411 256 C-412.53266582 252.93466836 -412.10276471 249.73245728 -412.0625 246.375 C-412.05573242 245.31539063 -412.05573242 245.31539063 -412.04882812 244.234375 C-412.03703875 242.48954725 -412.01910324 240.744763 -412 239 C-411.14031923 238.99978263 -410.28063846 238.99956526 -409.39490676 238.99934131 C-358.48192171 238.9858355 -307.56901329 238.94640373 -256.65607731 238.87314438 C-250.54757394 238.86437727 -244.43907028 238.85582752 -238.33056641 238.84741211 C-236.50636995 238.84489352 -236.50636995 238.84489352 -234.64532104 238.84232404 C-214.93481312 238.81562933 -195.22433427 238.80655719 -175.51381013 238.80395857 C-155.30008821 238.80090282 -135.08645059 238.77899997 -114.87276673 238.73947543 C-102.39240214 238.71566995 -89.91220564 238.70669534 -77.43182144 238.71648689 C-68.88211641 238.72178861 -60.33256248 238.70884024 -51.78290048 238.6813371 C-46.8446959 238.66599684 -41.90682934 238.65889798 -36.96861458 238.67340279 C-32.45189594 238.68649258 -27.93583432 238.67678298 -23.4191902 238.64856227 C-21.78118507 238.64241973 -20.1431223 238.64480764 -18.50514647 238.65637074 C-16.28545074 238.67082019 -14.06802574 238.65478396 -11.84846115 238.63085651 C-10.61361064 238.62971735 -9.37876012 238.62857819 -8.1064899 238.62740451 C-4.84354022 238.2545641 -4.84354022 238.2545641 -2.60370922 235.72645187 C-1.0289978 233.0492989 -0.49873197 231.78568212 -0.49219131 228.74591351 C-0.48074373 227.92432709 -0.46929614 227.10274068 -0.45750165 226.25625771 C-0.46914228 224.91821759 -0.46914228 224.91821759 -0.48101807 223.55314636 C-0.47351681 222.59740654 -0.46601556 221.64166671 -0.458287 220.65696508 C-0.43797649 217.45232375 -0.44611931 214.24838768 -0.45410156 211.04370117 C-0.44536841 208.74741922 -0.43488354 206.45114335 -0.42277527 204.15487671 C-0.39486334 197.91772018 -0.39151174 191.68076171 -0.39249516 185.44355178 C-0.38937054 178.92654062 -0.36376172 172.40961927 -0.34051514 165.89265442 C-0.30453171 154.95325709 -0.28244437 144.01391237 -0.27099609 133.07446289 C-0.25916702 121.80750143 -0.23896921 110.54060616 -0.20751953 99.27368164 C-0.20558343 98.57902529 -0.20364733 97.88436894 -0.20165256 97.16866239 C-0.19188795 93.68372656 -0.18195885 90.19879123 -0.17194796 86.7138561 C-0.08912889 57.80927312 -0.03543728 28.9046784 0 0 Z " fill="#2467D2" transform="translate(452,83)"/>
<path d="M0 0 C2.74135161 2.53178548 3.77651217 4.62518231 4.15627384 8.35551834 C4.16352199 9.35172573 4.17077013 10.34793312 4.17823792 11.37432861 C4.19110336 12.5210051 4.20396881 13.66768158 4.21722412 14.84910583 C4.22103088 16.10320755 4.22483765 17.35730927 4.22875977 18.64941406 C4.23965866 19.98676681 4.25133077 21.32411345 4.26371765 22.66145325 C4.29419668 26.29179021 4.31123487 29.92206384 4.32393384 33.55250263 C4.33202579 35.82268797 4.34220666 38.09285525 4.35294914 40.36302948 C4.38566203 47.47184889 4.40956366 54.58062424 4.421763 61.68950868 C4.43601123 69.88468465 4.47986441 78.07899847 4.54926449 86.27388883 C4.60111001 92.61545532 4.62594116 98.95677714 4.63058513 105.29855227 C4.63397759 109.08295871 4.64874358 112.8664929 4.69186592 116.65067291 C4.7317538 120.21335748 4.73796533 123.77456614 4.71896553 127.33740807 C4.71710538 129.2587151 4.74982651 131.17995956 4.78378296 133.10096741 C4.70761841 140.14926825 3.86862099 144.16788769 -1.20434666 149.21157455 C-26.34789525 169.46495194 -72.72946805 167.04629006 -103.13964844 163.92114258 C-141.01111778 159.29773482 -141.01111778 159.29773482 -151.859375 146.87109375 C-152.973125 145.32421875 -152.973125 145.32421875 -154.109375 143.74609375 C-151.39608768 144.60292133 -148.72055955 145.47525511 -146.1171875 146.62890625 C-140.69120296 149.01333544 -135.24731686 150.56807111 -129.484375 151.87109375 C-128.45715332 152.10868408 -128.45715332 152.10868408 -127.40917969 152.35107422 C-112.98079519 155.4718755 -98.68681961 156.11885661 -83.984375 156.05859375 C-83.08406555 156.05710327 -82.1837561 156.05561279 -81.25616455 156.05407715 C-67.69884358 156.01375395 -54.41572931 155.58103099 -41.109375 152.74609375 C-40.41360352 152.60155762 -39.71783203 152.45702148 -39.00097656 152.30810547 C-28.83875042 150.11172198 -12.03563268 146.33184756 -5.98242188 137.01074219 C-4.84283796 134.05470741 -4.88420039 131.61460205 -4.9140625 128.44921875 C-4.92050781 127.24394531 -4.92695313 126.03867188 -4.93359375 124.796875 C-4.95035156 123.54261719 -4.96710938 122.28835937 -4.984375 120.99609375 C-4.99339844 119.72636719 -5.00242187 118.45664063 -5.01171875 117.1484375 C-5.03528495 114.01413282 -5.06818668 110.88020834 -5.109375 107.74609375 C-5.60711426 108.00583984 -6.10485352 108.26558594 -6.61767578 108.53320312 C-42.50895901 126.92504232 -95.29874639 125.12859 -133.109375 113.74609375 C-141.17576069 111.1426571 -147.15861565 107.81936873 -153.109375 101.74609375 C-152.119375 101.25109375 -152.119375 101.25109375 -151.109375 100.74609375 C-149.27165175 101.40912734 -147.46378444 102.15519742 -145.671875 102.93359375 C-140.06824742 105.16512686 -134.57540512 106.70993127 -128.671875 107.93359375 C-127.56598022 108.16502075 -127.56598022 108.16502075 -126.43774414 108.40112305 C-124.00034398 108.88649847 -121.55825995 109.32241748 -119.109375 109.74609375 C-118.11172119 109.9270459 -117.11406738 110.10799805 -116.08618164 110.29443359 C-106.69967044 111.83635155 -97.5012112 112.05353869 -88.00708008 112.00683594 C-85.44262657 111.99617998 -82.87888463 112.00675944 -80.31445312 112.01953125 C-57.34224473 112.03974564 -25.03601333 111.4819141 -7.109375 94.74609375 C-4.88944812 91.32191802 -4.87606994 88.47642972 -4.9140625 84.44921875 C-4.92050781 83.24394531 -4.92695313 82.03867188 -4.93359375 80.796875 C-4.95035156 79.54261719 -4.96710938 78.28835937 -4.984375 76.99609375 C-4.99339844 75.72636719 -5.00242187 74.45664063 -5.01171875 73.1484375 C-5.03528495 70.01413282 -5.06818668 66.88020834 -5.109375 63.74609375 C-5.63249268 64.01164062 -6.15561035 64.2771875 -6.69458008 64.55078125 C-24.27425974 73.41849678 -44.03309007 76.84852843 -63.65625 76.94921875 C-64.54814026 76.95491882 -65.44003052 76.9606189 -66.35894775 76.9664917 C-68.24140257 76.97588449 -70.1238734 76.98245273 -72.00634766 76.98632812 C-74.81053583 76.99592658 -77.61395527 77.02696025 -80.41796875 77.05859375 C-96.92443929 77.15634681 -113.42568357 75.73678172 -129.296875 70.93359375 C-130.59999634 70.54892944 -130.59999634 70.54892944 -131.92944336 70.15649414 C-140.34116695 67.5589539 -148.14766648 64.41418873 -153.109375 56.74609375 C-151.8925 57.15859375 -150.675625 57.57109375 -149.421875 57.99609375 C-147.65146634 58.58071468 -145.88058743 59.16391251 -144.109375 59.74609375 C-143.14257812 60.0709375 -142.17578125 60.39578125 -141.1796875 60.73046875 C-126.7143443 65.41998151 -111.83658872 67.86782938 -96.6328125 67.94921875 C-95.75287125 67.95623306 -94.87292999 67.96324738 -93.96632385 67.97047424 C-91.13895503 67.98789456 -88.31179553 67.99432704 -85.484375 67.99609375 C-84.51984406 67.99676849 -83.55531311 67.99744324 -82.56155396 67.99813843 C-68.24623671 67.9822082 -54.16853424 67.72781074 -40.109375 64.74609375 C-39.29839355 64.5744873 -38.48741211 64.40288086 -37.65185547 64.22607422 C-26.78871467 61.80603549 -14.79024191 58.55213231 -6.8046875 50.390625 C-3.68606167 45.27674931 -4.4255804 38.64901987 -4.359375 32.87109375 C-4.32972656 31.61039063 -4.30007813 30.3496875 -4.26953125 29.05078125 C-4.19903975 25.94915509 -4.14623759 22.84827178 -4.109375 19.74609375 C-4.73408691 20.07657715 -5.35879883 20.40706055 -6.00244141 20.74755859 C-27.53633198 31.87062095 -52.04203374 33.32960871 -75.859375 33.18359375 C-76.91320374 33.18055237 -77.96703247 33.17751099 -79.05279541 33.17437744 C-94.36101945 33.10903339 -109.2415567 32.76368436 -124.109375 28.74609375 C-124.9446875 28.52646973 -125.78 28.3068457 -126.640625 28.08056641 C-136.6169355 25.361329 -147.64517214 22.09938023 -153.86328125 13.25 C-155.65554135 9.6486247 -155.2018455 7.5697405 -154.109375 3.74609375 C-143.37411117 -9.91696931 -121.58702965 -12.79873156 -105.44921875 -14.87890625 C-72.91476396 -18.67040811 -28.02235775 -20.08887567 0 0 Z " fill="#8839DC" transform="translate(425.109375,27.25390625)"/>
<path d="M0 0 C4.15223467 1.51402999 5.88778753 2.6517437 8.25 6.4375 C8.75015625 7.21996094 9.2503125 8.00242187 9.765625 8.80859375 C11.75229804 12.3355671 12.12598007 15.07583514 12.13142776 19.05041885 C12.13526891 20.10057718 12.13911005 21.1507355 12.1430676 22.2327168 C12.14220112 23.39037887 12.14133463 24.54804095 12.14044189 25.74078369 C12.14489858 27.58094405 12.14489858 27.58094405 12.1494453 29.45827937 C12.15663391 32.86987619 12.15930526 36.28142266 12.16004276 39.69302344 C12.1618921 43.37003632 12.16943886 47.04703824 12.17617798 50.7240448 C12.18976707 58.76746756 12.19578698 66.81088534 12.20018864 74.85431767 C12.20295021 79.87582823 12.20718742 84.89733687 12.21169281 89.91884613 C12.22388647 103.81932581 12.23418544 117.71980394 12.2375679 131.62028885 C12.23778747 132.51017354 12.23800703 133.40005823 12.23823325 134.31690912 C12.23845153 135.20893595 12.23866981 136.10096278 12.2388947 137.02002072 C12.23933817 138.82763751 12.23978473 140.6352543 12.24023438 142.44287109 C12.2404558 143.33951346 12.24067723 144.23615583 12.24090537 145.15996918 C12.24485333 159.68859089 12.26230683 174.21716243 12.2855939 188.74576476 C12.30930417 203.65866919 12.32176961 218.57154845 12.32293582 233.48447204 C12.32385279 241.85888 12.32961056 250.23322263 12.34775543 258.60761261 C12.36315208 265.73881147 12.36827949 272.86992479 12.36001733 280.00113711 C12.35610919 283.63946836 12.35704823 287.27762734 12.37107468 290.91593742 C12.38614506 294.86112667 12.37795181 298.80607316 12.36749268 302.75128174 C12.37957728 304.47439052 12.37957728 304.47439052 12.39190602 306.23230958 C12.33476701 315.42843457 10.62625757 321.21964341 4 328 C-0.55469864 330.78639143 -4.3517595 331.43221939 -9.58758354 331.38311005 C-10.33499426 331.38806956 -11.08240497 331.39302908 -11.8524645 331.39813888 C-14.35908121 331.41110111 -16.86516578 331.40270847 -19.37179565 331.39440918 C-21.18618845 331.39929779 -23.00057813 331.40548745 -24.81496251 331.41286707 C-29.80270067 331.4292935 -34.79028105 331.42694315 -39.77803683 331.4214921 C-45.15647756 331.41882525 -50.5348759 331.43334721 -55.91329956 331.44558716 C-66.45096224 331.46665778 -76.98856993 331.47118108 -87.52625118 331.46939927 C-96.09012036 331.46809249 -104.65397235 331.47189151 -113.21783829 331.47932434 C-115.68311504 331.4814235 -118.1483918 331.4835211 -120.61366856 331.48561716 C-122.45412976 331.48718245 -122.45412976 331.48718245 -124.33177198 331.48877937 C-147.54529379 331.50768826 -170.758784 331.50662952 -193.97231032 331.49981004 C-215.21557987 331.49423386 -236.45872884 331.51506212 -257.7019702 331.54817051 C-279.50692847 331.58189099 -301.31182895 331.5970779 -323.11681378 331.59245348 C-335.36170211 331.59020716 -347.60647898 331.59547575 -359.85134506 331.62034607 C-370.27554399 331.64133792 -380.69957034 331.64497212 -391.1237763 331.62604648 C-396.44327462 331.61687574 -401.76245101 331.61578676 -407.08192444 331.63640213 C-411.95138623 331.65506496 -416.82026137 331.65066125 -421.6897005 331.62785631 C-423.45142925 331.6236587 -425.21320256 331.62790945 -426.97488426 331.64145225 C-443.98987119 331.76334768 -443.98987119 331.76334768 -450 326 C-450.55864648 325.51224641 -451.11729295 325.02449283 -451.69286811 324.52195883 C-453 323 -453 323 -453 320 C-451.61119062 320.00227832 -451.61119062 320.00227832 -450.19432449 320.00460267 C-395.33973557 320.09423705 -340.48515343 320.16272997 -285.63050598 320.20426132 C-279.04647652 320.20926424 -272.46244721 320.21444152 -265.87841797 320.21972656 C-264.56763657 320.2207758 -263.25685517 320.22182505 -261.90635312 320.22290608 C-240.67242853 320.24031916 -219.43854718 320.27186184 -198.20464826 320.30861118 C-176.42249329 320.34599544 -154.64036101 320.36823053 -132.85817528 320.37635398 C-119.4135413 320.38184696 -105.96902955 320.39920644 -92.5244332 320.43166587 C-83.30943272 320.45278268 -74.09449559 320.45920645 -64.87947267 320.45400551 C-59.56004777 320.45143934 -54.2408367 320.45541889 -48.92144966 320.4768219 C-44.05183775 320.49627236 -39.18258369 320.49727967 -34.31295538 320.48359558 C-32.55104092 320.48190406 -30.78910423 320.48699094 -29.0272336 320.49953273 C-16.89765924 320.77415113 -16.89765924 320.77415113 -6 316 C-1.54449238 311.42724218 0.25129191 306.95307357 0.24609566 300.60584545 C0.25007775 299.52997116 0.25405985 298.45409687 0.25816262 297.34562033 C0.24942409 295.58152138 0.24942409 295.58152138 0.24050903 293.78178406 C0.24221788 292.52794491 0.24392673 291.27410576 0.24568737 289.98227149 C0.25015884 286.50464037 0.24216 283.02713246 0.23213124 279.54951704 C0.22349616 275.79837701 0.22641695 272.04724397 0.22793579 268.2960968 C0.2289846 261.79784689 0.22270837 255.29963713 0.21146011 248.80139732 C0.1952076 239.40603352 0.18999736 230.01068913 0.18748413 220.61531279 C0.18310664 205.3720302 0.16979606 190.12876902 0.15087891 174.88549805 C0.13252152 160.07788195 0.11836432 145.27027166 0.10986328 130.46264648 C0.10933783 129.54993946 0.10881239 128.63723243 0.10827102 127.69686761 C0.10566095 123.11809501 0.10313353 118.53932238 0.10064721 113.96054971 C0.07991302 75.97368482 0.04468601 37.98684382 0 0 Z " fill="#414042" transform="translate(478,66)"/>
<path d="M0 0 C37.62 0 75.24 0 114 0 C114 21.12 114 42.24 114 64 C76.38 64 38.76 64 0 64 C0 42.88 0 21.76 0 0 Z " fill="#929497" transform="translate(199,397)"/>
<path d="M0 0 C3.3 0 6.6 0 10 0 C10.11405579 30.85459582 10.20254457 61.70914344 10.25532665 92.5638997 C10.2615802 96.20633713 10.26805181 99.84877414 10.2746582 103.49121094 C10.27596976 104.21635646 10.27728131 104.94150199 10.2786326 105.68862163 C10.30039093 117.43107852 10.33981475 129.17341306 10.38576398 140.91579737 C10.43251685 152.96401092 10.4602929 165.01216038 10.47044247 177.06046093 C10.4766883 183.82809306 10.49171394 190.59547001 10.52865028 197.36301041 C10.56254493 203.73071155 10.57306592 210.09802036 10.56553841 216.46580315 C10.56691585 218.80473778 10.57688671 221.14368531 10.59602737 223.48254204 C10.62086233 226.67326326 10.61493901 229.8624984 10.60127258 233.05325317 C10.61583679 233.98127656 10.630401 234.90929995 10.64540654 235.86544526 C10.6354513 236.72385667 10.62549606 237.58226809 10.61523914 238.46669197 C10.61713775 239.20258997 10.61903635 239.93848797 10.62099248 240.69668591 C9.67172853 244.21758689 7.80693585 246.74939647 5 249 C1.70519131 249.74519098 1.70519131 249.74519098 -2.12768269 249.73828697 C-2.83750373 249.74521004 -3.54732478 249.7521331 -4.27865556 249.75926596 C-6.6640189 249.77518473 -9.04696571 249.74820966 -11.4322052 249.7215271 C-13.15656802 249.72414303 -14.88092853 249.72939554 -16.60527629 249.7370621 C-21.34874036 249.7505003 -26.09139405 249.72644933 -30.83475482 249.69639373 C-35.94787079 249.67052169 -41.06093979 249.67924844 -46.17410278 249.68380737 C-55.03462901 249.68695595 -63.89489048 249.66810538 -72.75535011 249.63438034 C-85.5660958 249.58565126 -98.37671325 249.56999506 -111.18754157 249.56245239 C-131.97137311 249.54931539 -152.75506348 249.50937154 -173.53881836 249.45263672 C-193.73021742 249.39757615 -213.92157815 249.35509893 -234.11303711 249.32958984 C-235.35730065 249.3280135 -236.60156419 249.32643716 -237.88353268 249.32481305 C-244.12553698 249.31698292 -250.36754155 249.30940065 -256.6095463 249.30194163 C-308.40646178 249.23972501 -360.20322401 249.13403179 -412 249 C-412 245.7 -412 242.4 -412 239 C-411.14031923 238.99978263 -410.28063846 238.99956526 -409.39490676 238.99934131 C-358.48192171 238.9858355 -307.56901329 238.94640373 -256.65607731 238.87314438 C-250.54757394 238.86437727 -244.43907028 238.85582752 -238.33056641 238.84741211 C-236.50636995 238.84489352 -236.50636995 238.84489352 -234.64532104 238.84232404 C-214.93481312 238.81562933 -195.22433427 238.80655719 -175.51381013 238.80395857 C-155.30008821 238.80090282 -135.08645059 238.77899997 -114.87276673 238.73947543 C-102.39240214 238.71566995 -89.91220564 238.70669534 -77.43182144 238.71648689 C-68.88211641 238.72178861 -60.33256248 238.70884024 -51.78290048 238.6813371 C-46.8446959 238.66599684 -41.90682934 238.65889798 -36.96861458 238.67340279 C-32.45189594 238.68649258 -27.93583432 238.67678298 -23.4191902 238.64856227 C-21.78118507 238.64241973 -20.1431223 238.64480764 -18.50514647 238.65637074 C-16.28545074 238.67082019 -14.06802574 238.65478396 -11.84846115 238.63085651 C-10.61361064 238.62971735 -9.37876012 238.62857819 -8.1064899 238.62740451 C-4.84354022 238.2545641 -4.84354022 238.2545641 -2.60370922 235.72645187 C-1.0289978 233.0492989 -0.49873197 231.78568212 -0.49219131 228.74591351 C-0.48074373 227.92432709 -0.46929614 227.10274068 -0.45750165 226.25625771 C-0.46914228 224.91821759 -0.46914228 224.91821759 -0.48101807 223.55314636 C-0.47351681 222.59740654 -0.46601556 221.64166671 -0.458287 220.65696508 C-0.43797649 217.45232375 -0.44611931 214.24838768 -0.45410156 211.04370117 C-0.44536841 208.74741922 -0.43488354 206.45114335 -0.42277527 204.15487671 C-0.39486334 197.91772018 -0.39151174 191.68076171 -0.39249516 185.44355178 C-0.38937054 178.92654062 -0.36376172 172.40961927 -0.34051514 165.89265442 C-0.30453171 154.95325709 -0.28244437 144.01391237 -0.27099609 133.07446289 C-0.25916702 121.80750143 -0.23896921 110.54060616 -0.20751953 99.27368164 C-0.20558343 98.57902529 -0.20364733 97.88436894 -0.20165256 97.16866239 C-0.19188795 93.68372656 -0.18195885 90.19879123 -0.17194796 86.7138561 C-0.08912889 57.80927312 -0.03543728 28.9046784 0 0 Z " fill="#377DE2" transform="translate(452,83)"/>
<path d="M0 0 C0.33 0 0.66 0 1 0 C1.16370543 17.07237701 1.28705027 34.14450821 1.3626852 51.21749115 C1.39874137 59.1452614 1.44787597 67.07254328 1.52807617 75 C1.59796622 81.91165072 1.6430356 88.82294768 1.65861946 95.73494196 C1.66772579 99.39317288 1.68904176 103.05039196 1.7401104 106.70829773 C1.79673476 110.79751981 1.79792173 114.88499628 1.79467773 118.97460938 C1.83242813 120.78291229 1.83242813 120.78291229 1.87094116 122.62774658 C1.81124969 129.58569171 0.89043071 133.46853209 -4.09385586 138.45157623 C-29.10891307 158.77213241 -75.70318459 156.29165729 -106.03027344 153.17504883 C-143.90174278 148.55164107 -143.90174278 148.55164107 -154.75 136.125 C-155.86375 134.578125 -155.86375 134.578125 -157 133 C-154.28671268 133.85682758 -151.61118455 134.72916136 -149.0078125 135.8828125 C-143.58182796 138.26724169 -138.13794186 139.82197736 -132.375 141.125 C-131.34777832 141.36259033 -131.34777832 141.36259033 -130.29980469 141.60498047 C-115.87142019 144.72578175 -101.57744461 145.37276286 -86.875 145.3125 C-85.97469055 145.31100952 -85.0743811 145.30951904 -84.14678955 145.3079834 C-70.58946858 145.2676602 -57.30635431 144.83493724 -44 142 C-43.30422852 141.85546387 -42.60845703 141.71092773 -41.89160156 141.56201172 C-31.72937542 139.36562823 -14.92625768 135.58575381 -8.87304688 126.26464844 C-7.73346296 123.30861366 -7.77482539 120.8685083 -7.8046875 117.703125 C-7.81113281 116.49785156 -7.81757813 115.29257813 -7.82421875 114.05078125 C-7.84097656 112.79652344 -7.85773438 111.54226562 -7.875 110.25 C-7.88402344 108.98027344 -7.89304687 107.71054688 -7.90234375 106.40234375 C-7.92590995 103.26803907 -7.95881168 100.13411459 -8 97 C-8.49773926 97.25974609 -8.99547852 97.51949219 -9.50830078 97.78710938 C-45.39958401 116.17894857 -98.18937139 114.38249625 -136 103 C-144.06638569 100.39656335 -150.04924065 97.07327498 -156 91 C-155.01 90.505 -155.01 90.505 -154 90 C-152.16227675 90.66303359 -150.35440944 91.40910367 -148.5625 92.1875 C-142.95887242 94.41903311 -137.46603012 95.96383752 -131.5625 97.1875 C-130.45660522 97.418927 -130.45660522 97.418927 -129.32836914 97.6550293 C-126.89096898 98.14040472 -124.44888495 98.57632373 -122 99 C-121.00234619 99.18095215 -120.00469238 99.3619043 -118.97680664 99.54833984 C-109.59029544 101.0902578 -100.3918362 101.30744494 -90.89770508 101.26074219 C-88.33325157 101.25008623 -85.76950963 101.26066569 -83.20507812 101.2734375 C-60.23286973 101.29365189 -27.92663833 100.73582035 -10 84 C-7.78007312 80.57582427 -7.76669494 77.73033597 -7.8046875 73.703125 C-7.81113281 72.49785156 -7.81757813 71.29257813 -7.82421875 70.05078125 C-7.84097656 68.79652344 -7.85773438 67.54226562 -7.875 66.25 C-7.88402344 64.98027344 -7.89304687 63.71054688 -7.90234375 62.40234375 C-7.92590995 59.26803907 -7.95881168 56.13411459 -8 53 C-8.52311768 53.26554687 -9.04623535 53.53109375 -9.58520508 53.8046875 C-27.16488474 62.67240303 -46.92371507 66.10243468 -66.546875 66.203125 C-67.43876526 66.20882507 -68.33065552 66.21452515 -69.24957275 66.22039795 C-71.13202757 66.22979074 -73.0144984 66.23635898 -74.89697266 66.24023438 C-77.70116083 66.24983283 -80.50458027 66.2808665 -83.30859375 66.3125 C-99.81506429 66.41025306 -116.31630857 64.99068797 -132.1875 60.1875 C-133.05624756 59.93105713 -133.92499512 59.67461426 -134.82006836 59.41040039 C-143.23179195 56.81286015 -151.03829148 53.66809498 -156 46 C-154.783125 46.4125 -153.56625 46.825 -152.3125 47.25 C-150.54209134 47.83462093 -148.77121243 48.41781876 -147 49 C-146.03320312 49.32484375 -145.06640625 49.6496875 -144.0703125 49.984375 C-129.6049693 54.67388776 -114.72721372 57.12173563 -99.5234375 57.203125 C-98.20352562 57.21364647 -98.20352562 57.21364647 -96.85694885 57.22438049 C-94.02958003 57.24180081 -91.20242053 57.24823329 -88.375 57.25 C-87.41046906 57.25067474 -86.44593811 57.25134949 -85.45217896 57.25204468 C-71.13686171 57.23611445 -57.05915924 56.98171699 -43 54 C-42.18901855 53.82839355 -41.37803711 53.65678711 -40.54248047 53.47998047 C-29.64617297 51.05255302 -17.73403752 47.78222271 -9.67578125 39.65625 C-6.00769723 33.64737385 -7.53435189 24.84860667 -7.59960938 18.09960938 C-7.51501964 8.68029336 -7.51501964 8.68029336 -4.58984375 4.81640625 C-3.30787109 3.91728516 -3.30787109 3.91728516 -2 3 C-1.34 2.01 -0.68 1.02 0 0 Z " fill="#893BDE" transform="translate(428,38)"/>
<path d="M0 0 C3.22575664 0.23894494 4.11765373 1.12560069 6.37109375 3.53125 C9.31740189 7.19275552 11.36516587 11.14456263 13.375 15.375 C13.74238281 16.09171875 14.10976563 16.8084375 14.48828125 17.546875 C17.02837951 22.85711816 17.34369716 26.24574135 16 32 C13.74548302 34.93087207 12.51557135 35.82814288 9 37 C6.14953207 37.10047679 3.32339051 37.14342402 0.47268677 37.14044189 C-0.40839599 37.14341302 -1.28947874 37.14638414 -2.19726098 37.1494453 C-5.16130199 37.15814433 -8.12530268 37.15964155 -11.08935547 37.16113281 C-13.20973802 37.16576008 -15.33011974 37.17078462 -17.45050049 37.17617798 C-23.21906931 37.18931159 -28.9876265 37.19574866 -34.75620794 37.20018864 C-38.3578911 37.20311744 -41.95957105 37.20722185 -45.56125259 37.21169281 C-56.82356403 37.22536945 -68.08586817 37.23503564 -79.34818733 37.2388947 C-92.36130972 37.24337786 -105.37432719 37.26093707 -118.38741767 37.2898953 C-128.43843073 37.3114879 -138.48941421 37.32159767 -148.54045022 37.32293582 C-154.54724985 37.32398546 -160.55395089 37.32992726 -166.56072617 37.34775543 C-172.20941336 37.36419453 -177.8579274 37.36641186 -183.50662994 37.35761642 C-185.5815108 37.35684385 -187.65640081 37.36121762 -189.73125839 37.37107468 C-192.56062013 37.38372947 -195.38936256 37.37795263 -198.21871948 37.36749268 C-199.04255375 37.37554908 -199.86638801 37.38360548 -200.71518695 37.39190602 C-205.32378616 37.35197281 -208.34866168 36.88874062 -212 34 C-214.1477418 31.03759752 -215 29.68553144 -215 26 C-213.34483478 25.99918285 -213.34483478 25.99918285 -211.65623188 25.99834919 C-184.82457042 25.98396283 -157.99307136 25.94098381 -131.16150379 25.86790943 C-118.18601916 25.83323544 -105.21064102 25.80790074 -92.23510742 25.80444336 C-80.92749329 25.80140683 -69.62006872 25.78095814 -58.31252784 25.73947543 C-52.32353271 25.71811567 -46.33480728 25.70556022 -40.3457737 25.71384621 C-34.71091615 25.72136733 -29.07660593 25.70564208 -23.44184875 25.67193985 C-21.37182923 25.66368323 -19.30175552 25.66398396 -17.23174095 25.67340279 C-14.40834593 25.68497962 -11.58675818 25.66597556 -8.76350403 25.63923645 C-7.94151435 25.64990971 -7.11952468 25.66058297 -6.27262622 25.67157966 C-2.06367242 25.59704586 -0.44372915 25.34061221 3.0086565 22.69051647 C5.16071585 19.78285583 5.71470032 17.88225563 5.5078125 14.26171875 C4.67604159 10.55713906 2.93220586 7.40056941 1.09375 4.1015625 C0 2 0 2 0 0 Z " fill="#424143" transform="translate(355,464)"/>
<path d="M0 0 C0.92099078 -0.00260775 1.84198156 -0.00521549 2.79088116 -0.00790226 C3.81449655 -0.00567154 4.83811193 -0.00344082 5.89274597 -0.0011425 C6.97095265 -0.00270249 8.04915934 -0.00426248 9.16003895 -0.00586975 C12.80296983 -0.00988484 16.44585964 -0.00668814 20.08879089 -0.00355339 C22.68826828 -0.00490721 25.28774547 -0.00668703 27.88722229 -0.00886345 C34.23282738 -0.01332179 40.57842068 -0.0123444 46.92402625 -0.00945081 C52.07893455 -0.00719703 57.23383952 -0.00688414 62.38874817 -0.00797462 C63.4871549 -0.00820447 63.4871549 -0.00820447 64.60775167 -0.00843897 C66.0951124 -0.00875868 67.58247314 -0.00908289 69.06983387 -0.00941156 C83.03329829 -0.01226654 96.99675616 -0.00897905 110.9602195 -0.00361119 C122.95457731 0.00085686 134.94892545 0.00008094 146.94328308 -0.00452995 C160.85507078 -0.0098754 174.76685273 -0.01199185 188.67864132 -0.00891769 C190.16068458 -0.00859912 191.64272785 -0.00828475 193.12477112 -0.00797462 C193.85406053 -0.00782035 194.58334994 -0.00766607 195.33473903 -0.00750712 C200.48645116 -0.00664188 205.63815965 -0.008105 210.78987122 -0.01045418 C217.71724239 -0.01354346 224.64459491 -0.01135989 231.57196426 -0.00555992 C234.12261042 -0.00423154 236.6732581 -0.00462775 239.22390366 -0.00682259 C242.68954814 -0.00953103 246.15513271 -0.00615672 249.62077332 -0.0011425 C250.6443887 -0.00337322 251.66800409 -0.00560395 252.72263813 -0.00790226 C254.1041243 -0.00399064 254.1041243 -0.00399064 255.51351929 0 C256.31456683 0.00016235 257.11561438 0.0003247 257.94093609 0.00049198 C259.75675964 0.12584114 259.75675964 0.12584114 260.75675964 1.12584114 C260.94425964 3.56334114 260.94425964 3.56334114 260.75675964 6.12584114 C258.32466384 8.55793695 257.73875409 8.37616695 254.40888214 8.37752342 C253.03055954 8.38534666 253.03055954 8.38534666 251.62439203 8.39332795 C250.60826255 8.38886651 249.59213307 8.38440506 248.54521179 8.37980843 C247.4709398 8.38292841 246.39666781 8.38604839 245.28984213 8.38926291 C241.6661297 8.39728265 238.04258289 8.3909038 234.41886902 8.3846302 C231.83071799 8.3873383 229.24256773 8.3908982 226.65441895 8.39525032 C220.34002014 8.40416152 214.02566877 8.40221466 207.71126807 8.39642504 C202.58117954 8.39191532 197.45110434 8.39129264 192.3210144 8.39347267 C191.22740703 8.39393237 191.22740703 8.39393237 190.11170658 8.39440136 C188.63079011 8.39504078 187.14987364 8.39568921 185.66895717 8.39634654 C171.76983091 8.40205489 157.870731 8.39548404 143.97160906 8.38474581 C132.03555881 8.37580983 120.09954747 8.37736173 108.16349792 8.38658333 C94.31541315 8.39727706 80.4673515 8.40150552 66.61926317 8.3953588 C65.14367708 8.39472168 63.66809098 8.39409294 62.19250488 8.39347267 C61.10337048 8.39300984 61.10337048 8.39300984 59.99223337 8.39253767 C54.86602227 8.39080803 49.73982578 8.3937316 44.61361694 8.39843178 C37.71903984 8.40461416 30.82453768 8.40023687 23.92996788 8.38864326 C21.39264232 8.38598835 18.85531059 8.38677582 16.31798744 8.39116859 C12.86800897 8.39659278 9.41827046 8.38982807 5.9683075 8.37980843 C4.95217802 8.38426987 3.93604854 8.38873131 2.88912725 8.39332795 C1.97024552 8.38811246 1.05136378 8.38289696 0.10463715 8.37752342 C-0.69245084 8.37719872 -1.48953883 8.37687401 -2.310781 8.37653947 C-4.24324036 8.12584114 -4.24324036 8.12584114 -6.24324036 6.12584114 C-5.61095272 0.94108252 -5.12813623 0.00103935 0 0 Z " fill="#F7C626" transform="translate(171.2432403564453,272.87415885925293)"/>
<path d="M0 0 C1.33261024 -0.00576172 1.33261024 -0.00576172 2.69214189 -0.01163983 C4.17299081 -0.01034011 4.17299081 -0.01034011 5.68375587 -0.00901413 C7.24382124 -0.01347081 7.24382124 -0.01347081 8.83540308 -0.01801753 C12.34928458 -0.02674649 15.86313219 -0.0282163 19.3770237 -0.02970505 C21.88458772 -0.03433023 24.39215103 -0.03935448 26.89971352 -0.04475021 C33.73228272 -0.05790453 40.56484068 -0.06436125 47.39742041 -0.06876087 C51.66074022 -0.07152008 55.92405775 -0.07575684 60.18737602 -0.08026505 C71.98265313 -0.09246028 83.7779284 -0.10275905 95.57321167 -0.10614014 C96.32866273 -0.1063597 97.08411379 -0.10657927 97.86245731 -0.10680549 C98.9984032 -0.10713291 98.9984032 -0.10713291 100.15729749 -0.10746694 C101.69196534 -0.10791041 103.22663319 -0.10835697 104.76130104 -0.10880661 C105.52255537 -0.10902804 106.28380971 -0.10924947 107.06813236 -0.10947761 C119.4074351 -0.1134269 131.74667883 -0.13088378 144.08595876 -0.15416613 C156.74327617 -0.17785653 169.40056394 -0.19034093 182.05790389 -0.19150805 C189.16907438 -0.19242613 196.280168 -0.19821152 203.39131737 -0.21632767 C210.07742898 -0.2333005 216.76336946 -0.23499863 223.44950485 -0.22618866 C225.909012 -0.22541447 228.36852678 -0.22981079 230.82801437 -0.23964691 C234.17488094 -0.25225107 237.52122013 -0.24655258 240.86808205 -0.23606491 C242.3422388 -0.24814952 242.3422388 -0.24814952 243.84617651 -0.26047826 C244.73979882 -0.25388841 245.63342114 -0.24729857 246.55412292 -0.24050903 C247.32707116 -0.24110612 248.1000194 -0.24170321 248.89639032 -0.24231839 C251.44034849 0.23153597 252.3613915 1.0852352 253.9029026 3.13142776 C253.65143681 5.26888698 253.44364481 6.59068556 251.9029026 8.13142776 C250.53391469 8.22963522 249.15989992 8.25881663 247.78739452 8.26006222 C246.44863415 8.26489889 246.44863415 8.26489889 245.0828281 8.26983327 C244.09102242 8.26828466 243.09921674 8.26673606 242.07735634 8.26514053 C241.03252364 8.26740609 239.98769094 8.26967165 238.91119665 8.27200586 C235.38115862 8.27837781 231.85115867 8.27751446 228.32111549 8.27669144 C225.8020771 8.27968093 223.28303917 8.28308297 220.76400185 8.28686905 C214.61458011 8.29481204 208.46517252 8.29792462 202.31574614 8.29848143 C197.31959892 8.29895582 192.32345487 8.30100672 187.32730865 8.30418205 C173.17693925 8.31299301 159.02657744 8.31760074 144.87620527 8.31685158 C144.11262526 8.31681162 143.34904524 8.31677167 142.56232643 8.3167305 C141.79781917 8.31668962 141.03331191 8.31664874 140.24563777 8.31660662 C127.85070821 8.31620001 115.45580901 8.325772 103.06088824 8.33986887 C90.34820525 8.35421358 77.63553708 8.3611401 64.92284578 8.36027509 C57.77986873 8.35994246 50.63692349 8.36271826 43.4939537 8.37345314 C36.77914334 8.3834795 30.06441157 8.38324233 23.34959412 8.37593651 C20.87838201 8.37488543 18.40716579 8.37728425 15.93596077 8.38329697 C12.57570379 8.39094631 9.21568392 8.38641927 5.85543251 8.37866592 C4.37107007 8.38638127 4.37107007 8.38638127 2.85672051 8.39425248 C1.96160584 8.38965368 1.06649118 8.38505489 0.14425182 8.38031673 C-1.02029676 8.38064279 -1.02029676 8.38064279 -2.20837158 8.38097543 C-4.0970974 8.13142776 -4.0970974 8.13142776 -6.0970974 6.13142776 C-5.47752194 1.05090905 -5.04336619 0.00813662 0 0 Z " fill="#FBC720" transform="translate(104.09709739685059,246.86857223510742)"/>
<path d="M0 0 C3.3 0 6.6 0 10 0 C10 21.12 10 42.24 10 64 C-27.62 64 -65.24 64 -104 64 C-104 60.7 -104 57.4 -104 54 C-102.21261162 53.99120064 -102.21261162 53.99120064 -100.38911438 53.98222351 C-89.16212016 53.92502255 -77.93532013 53.85227454 -66.70852375 53.76428509 C-60.93663744 53.71954844 -55.16482226 53.68029943 -49.39282227 53.65356445 C-43.82302041 53.62756457 -38.25349178 53.58718533 -32.68385887 53.53681374 C-30.55842676 53.52012264 -28.43294737 53.50862236 -26.30745888 53.50238609 C-23.33138986 53.49276956 -20.3560234 53.46473904 -17.38012695 53.43237305 C-16.06058517 53.43452568 -16.06058517 53.43452568 -14.71438599 53.4367218 C-10.03214925 53.36465667 -6.7290292 53.15146799 -3 50 C-1.0399856 47.12617604 -0.73778596 44.75901474 -0.68115234 41.32324219 C-0.66128265 40.40258972 -0.64141296 39.48193726 -0.62094116 38.53338623 C-0.60938995 37.54783752 -0.59783875 36.56228882 -0.5859375 35.546875 C-0.56657135 34.53151672 -0.5472052 33.51615845 -0.5272522 32.47003174 C-0.46751901 29.23010635 -0.42109572 25.99014532 -0.375 22.75 C-0.33681449 20.55206792 -0.29776242 18.35415072 -0.2578125 16.15625 C-0.16182245 10.77095426 -0.07776795 5.38558846 0 0 Z " fill="#7E8083" transform="translate(303,397)"/>
<path d="M0 0 C0.77780353 0.0015486 1.55560705 0.0030972 2.35698038 0.00469273 C3.1772177 0.00242718 3.99745502 0.00016162 4.84254801 -0.00217259 C7.61251461 -0.00854223 10.38243265 -0.00768134 13.1524058 -0.00685817 C15.1295793 -0.00984781 17.10675222 -0.01324988 19.08392435 -0.01703578 C24.47019439 -0.02589969 29.85644857 -0.02821489 35.24272519 -0.02885157 C39.7310914 -0.02979863 44.21945386 -0.03347457 48.70781863 -0.03702366 C59.29237694 -0.04517726 69.87692674 -0.04760707 80.46148783 -0.04689723 C91.39904638 -0.04629615 102.33655566 -0.05685201 113.27410173 -0.0726409 C122.64817559 -0.08569323 132.02223329 -0.09108211 141.39631617 -0.09044182 C147.00228552 -0.09018616 152.60821112 -0.09307472 158.21417147 -0.10361987 C163.48442021 -0.1132622 168.75458302 -0.11340677 174.02483469 -0.10610324 C175.96390316 -0.10505257 177.90297688 -0.10744861 179.84203631 -0.1134637 C182.47977029 -0.12111887 185.11720266 -0.11658222 187.7549296 -0.10883266 C188.53050241 -0.11397622 189.30607521 -0.11911978 190.10515022 -0.12441921 C195.3911756 -0.08986571 195.3911756 -0.08986571 197.61944681 2.1384055 C197.80694681 4.7009055 197.80694681 4.7009055 197.61944681 7.1384055 C195.8635147 8.89433762 193.55265206 8.26609984 191.21272051 8.276811 C190.43102604 8.2752624 189.64933156 8.2737138 188.84394938 8.27211827 C188.01962851 8.27438383 187.19530764 8.27664938 186.34600735 8.27898359 C183.56222128 8.28535328 180.77848353 8.28449234 177.99469095 8.28366917 C176.00766536 8.28665881 174.02064036 8.29006088 172.03361613 8.29384679 C166.62048745 8.30271073 161.20737457 8.3050259 155.79423934 8.30566257 C151.28350519 8.30660963 146.77277477 8.31028557 142.26204205 8.31383467 C131.62474603 8.32198828 120.98745848 8.32441807 110.3501597 8.32370824 C99.35806968 8.32310715 88.36602869 8.33366302 77.37395108 8.3494519 C67.95316849 8.36250419 58.53240198 8.36789311 49.11161041 8.36725283 C43.47769547 8.36699716 37.84382406 8.36988579 32.20991808 8.38043088 C26.91340465 8.39007313 21.61697673 8.39021783 16.32046038 8.38291425 C14.37171657 8.38186357 12.42296754 8.38425967 10.47423273 8.3902747 C7.82336207 8.39792973 5.17279155 8.39339331 2.52192789 8.38564366 C1.35273226 8.39335901 1.35273226 8.39335901 0.15991652 8.40123022 C-5.15228197 8.36667671 -5.15228197 8.36667671 -7.38055319 6.1384055 C-6.66531715 0.27346997 -5.77888522 0.02658463 0 0 Z " fill="#FAC722" transform="translate(150.3805531859398,297.8615944981575)"/>
<path d="M0 0 C1.10352782 0.00334608 1.10352782 0.00334608 2.22934914 0.00675976 C3.39338485 0.00441978 3.39338485 0.00441978 4.58093643 0.00203252 C7.201227 -0.00198055 9.82146041 0.00121334 12.44175148 0.00434887 C14.31217419 0.00299497 16.18259664 0.0012151 18.05301857 -0.00096118 C23.14791194 -0.0055368 28.24278516 -0.00374543 33.33767891 -0.0005821 C38.65703831 0.00194084 43.97639592 -0.00039585 49.29575539 -0.00196826 C58.23049163 -0.00379015 67.16521962 -0.00138315 76.09995461 0.00337231 C86.4456244 0.00881497 96.7912745 0.00705232 107.13694382 0.00154591 C116.00230071 -0.00298468 124.86765166 -0.00363604 133.73300934 -0.00101542 C139.03544246 0.00054765 144.33786631 0.00074028 149.64029884 -0.00255191 C154.62407547 -0.00542983 159.60782657 -0.0034564 164.59160042 0.00234234 C166.42627101 0.00367037 168.26094372 0.00327511 170.09561348 0.00107968 C172.58911477 -0.00163017 175.08253291 0.00174725 177.57602882 0.00675976 C178.31171404 0.00452904 179.04739925 0.00229832 179.80537796 0 C184.78853913 0.01959355 184.78853913 0.01959355 185.90268898 1.13374341 C186.09018898 3.57124341 186.09018898 3.57124341 185.90268898 6.13374341 C183.44581143 8.59062096 182.08622696 8.37463893 178.73330498 8.40123022 C177.64684244 8.39453805 177.64684244 8.39453805 176.53843117 8.38771069 C175.38642282 8.39239066 175.38642282 8.39239066 174.21114159 8.39716518 C171.62387221 8.40517666 169.03683533 8.39880937 166.44956398 8.39253247 C164.60031941 8.39524093 162.75107592 8.39880105 160.90183449 8.40315259 C155.86889455 8.41229604 150.83603629 8.4087243 145.80309486 8.40239441 C140.54560049 8.39734452 135.2881133 8.40202304 130.03061867 8.40516675 C121.2002022 8.40880935 112.36981913 8.40399959 103.53940773 8.39448559 C93.31811661 8.38360049 83.09690526 8.38712586 72.87561607 8.3981384 C64.11297737 8.40720291 55.35036274 8.40850066 46.58772087 8.40326107 C41.34841796 8.40013675 36.10915259 8.39974462 30.86985207 8.40633404 C25.94512621 8.41209474 21.02050361 8.4081341 16.09578896 8.39654553 C14.28411468 8.39389209 12.47243177 8.39467562 10.66076088 8.39907086 C8.1960373 8.40450091 5.73164878 8.39772341 3.26694679 8.38771069 C2.54263844 8.39217213 1.81833008 8.39663358 1.07207298 8.40123022 C-3.86901085 8.36204357 -3.86901085 8.36204357 -6.09731102 6.13374341 C-6.28481102 3.57124341 -6.28481102 3.57124341 -6.09731102 1.13374341 C-4.3973165 -0.56625112 -2.26817527 0.00891836 0 0 Z " fill="#F5C527" transform="translate(162.09731101989746,221.8662565946579)"/>
<path d="M0 0 C3.10331257 0.92260644 4.74711947 1.70497271 6.875 4.1875 C8.39147943 7.97869858 8.11751323 10.0887037 7 14 C-3.93815972 27.51184437 -23.63024424 31.14720609 -39.97265625 33.3046875 C-65.75720044 35.96864754 -94.81822846 36.80463312 -120 30 C-120.8353125 29.78037598 -121.670625 29.56075195 -122.53125 29.33447266 C-131.75919514 26.81921678 -140.99035079 23.84393646 -148 17 C-148.33 16.01 -148.66 15.02 -149 14 C-146.2439797 14.89384442 -143.50659423 15.79482026 -140.8203125 16.8828125 C-134.84094537 19.24848112 -128.83561509 20.84312805 -122.5625 22.1875 C-121.80042236 22.35427246 -121.03834473 22.52104492 -120.25317383 22.69287109 C-107.26051856 25.36302709 -94.05838614 25.24509297 -80.8503418 25.29516602 C-78.76140531 25.30661445 -76.6724964 25.32695101 -74.58374023 25.35668945 C-51.63607912 25.681686 -24.11508023 24.3553491 -5 10 C-1.80563679 6.80563679 -0.5131061 4.4896784 0 0 Z " fill="#6D2BC2" transform="translate(421,26)"/>
<path d="M0 0 C2.93453261 0.36681658 3.86437246 0.86437246 6 3 C6.25168228 5.09897614 6.25168228 5.09897614 6.25396729 7.74475098 C6.26242676 9.24646599 6.26242676 9.24646599 6.27105713 10.77851868 C6.26700867 11.88092392 6.26296021 12.98332916 6.25878906 14.11914062 C6.2622937 15.27689499 6.26579834 16.43464935 6.26940918 17.62748718 C6.27824183 21.47046837 6.27237185 25.31326681 6.265625 29.15625 C6.26697121 31.81661205 6.26890803 34.47696846 6.27142334 37.1373291 C6.27506459 42.71933996 6.27025974 48.30129794 6.26074219 53.88330078 C6.2498573 60.34192915 6.25338277 66.80043126 6.264395 73.25905657 C6.27346337 78.79879607 6.27475537 84.3384975 6.26951766 89.87824202 C6.26639546 93.18930458 6.26677765 96.50029458 6.27259064 99.81135559 C6.27764644 103.50127813 6.26995877 107.1909552 6.25878906 110.88085938 C6.26283752 111.98326462 6.26688599 113.08566986 6.27105713 114.22148132 C6.26259766 115.72319633 6.26259766 115.72319633 6.25396729 117.25524902 C6.25321323 118.12835472 6.25245918 119.00146042 6.25168228 119.90102386 C6 122 6 122 4 124 C1.4375 124.1875 1.4375 124.1875 -1 124 C-2.62962803 122.37037197 -2.12947012 120.54964339 -2.13371277 118.29957581 C-2.13797775 117.28297882 -2.14224274 116.26638184 -2.14663696 115.21897888 C-2.14618378 114.09427689 -2.14573059 112.96957489 -2.14526367 111.81079102 C-2.14862228 110.63367554 -2.1519809 109.45656006 -2.15544128 108.24377441 C-2.16333684 105.00618931 -2.16662022 101.76864261 -2.16725707 98.53104901 C-2.1682046 95.83211801 -2.17188109 93.13319322 -2.17542917 90.4342646 C-2.18358118 84.06872205 -2.18601272 77.70319365 -2.18530273 71.33764648 C-2.18470177 64.7626002 -2.19525555 58.18763592 -2.2110464 51.6126104 C-2.22410486 45.9752344 -2.22948735 40.33788525 -2.22884732 34.70049423 C-2.22859183 31.33016738 -2.23147106 27.95991336 -2.24202538 24.58960152 C-2.25176792 20.83253198 -2.24896998 17.07567612 -2.24291992 13.31860352 C-2.24853943 12.19592575 -2.25415894 11.07324799 -2.25994873 9.91654968 C-2.25575424 8.89713287 -2.25155975 7.87771606 -2.24723816 6.82740784 C-2.24778293 5.93825463 -2.24832769 5.04910143 -2.24888897 4.13300419 C-2 2 -2 2 0 0 Z " fill="#5C9BF7" transform="translate(50,153)"/>
<path d="M0 0 C3.23080927 0.8959075 5.86256919 2.2310878 8.81176758 3.828125 C9.38365814 4.13554123 9.95554871 4.44295746 10.54476929 4.75968933 C12.39147899 5.75481569 14.23272293 6.75954749 16.07348633 7.765625 C17.33807158 8.45249605 18.6028019 9.13910008 19.86767578 9.82543945 C22.3607023 11.17988806 24.85117087 12.53889542 27.34008789 13.90087891 C30.26022829 15.49265969 33.19007572 17.06283814 36.12817383 18.62109375 C37.56869894 19.39765715 39.008846 20.17492256 40.44848633 20.953125 C41.09406494 21.29021484 41.73964355 21.62730469 42.40478516 21.97460938 C46.55905703 24.26036087 46.55905703 24.26036087 47.65551758 27.00390625 C47.70772461 27.87595703 47.70772461 27.87595703 47.76098633 28.765625 C44.22872348 31.74790833 40.68793387 34.03140464 36.60473633 36.19140625 C36.02115356 36.50208542 35.4375708 36.81276459 34.83630371 37.13285828 C32.98041802 38.11951975 31.1208585 39.09900261 29.26098633 40.078125 C27.43823938 41.04418088 25.61627217 42.01169402 23.79443359 42.97946167 C22.58638786 43.61982911 21.37724032 44.25812237 20.16699219 44.89431763 C17.13157085 46.49209383 14.11795909 48.1173629 11.13208008 49.80615234 C9.41698242 50.76642334 9.41698242 50.76642334 7.66723633 51.74609375 C6.64952148 52.32641357 5.63180664 52.9067334 4.58325195 53.50463867 C1.6535907 54.81360929 -0.07692589 55.20537422 -3.23901367 54.765625 C-3.89901367 54.105625 -4.55901367 53.445625 -5.23901367 52.765625 C-5.15380859 50.31762695 -5.15380859 50.31762695 -4.23901367 47.765625 C-2.23632812 46.22338867 -2.23632812 46.22338867 0.39770508 44.93359375 C1.36184326 44.44858398 2.32598145 43.96357422 3.31933594 43.46386719 C4.35195557 42.96532227 5.3845752 42.46677734 6.44848633 41.953125 C8.54852107 40.90188715 10.647482 39.84850143 12.74536133 38.79296875 C13.77209961 38.2810498 14.79883789 37.76913086 15.85668945 37.24169922 C19.70815542 35.28423762 23.46473344 33.18757943 27.19848633 31.015625 C28.29032227 30.38140625 29.3821582 29.7471875 30.50708008 29.09375 C31.25086914 28.65546875 31.9946582 28.2171875 32.76098633 27.765625 C29.876489 25.48488886 26.96339904 23.72975344 23.69067383 22.05859375 C22.71098633 21.55392578 21.73129883 21.04925781 20.72192383 20.52929688 C19.70356445 20.00916016 18.68520508 19.48902344 17.63598633 18.953125 C11.73446742 15.93738768 5.84914371 12.89475078 0.08129883 9.62890625 C-0.72807129 9.17427002 -1.53744141 8.71963379 -2.37133789 8.2512207 C-4.23901367 6.765625 -4.23901367 6.765625 -5.0793457 4.69995117 C-5.23901367 2.765625 -5.23901367 2.765625 -4.11401367 0.953125 C-2.23901367 -0.234375 -2.23901367 -0.234375 0 0 Z " fill="#F8FAFE" transform="translate(180.239013671875,122.234375)"/>
<path d="M0 0 C1.67542976 0.28604898 3.34385343 0.61781233 5 1 C5.495 3.475 5.495 3.475 6 6 C2.21427274 9.25238019 -1.75847212 11.59954112 -6.19921875 13.8203125 C-6.87547806 14.16504608 -7.55173737 14.50977966 -8.24848938 14.86495972 C-10.39211025 15.95708909 -12.53941664 17.04167752 -14.6875 18.125 C-16.84594034 19.21612201 -19.00345942 20.30892707 -21.15864563 21.40646362 C-22.49552286 22.0870633 -23.83432104 22.76390581 -25.17521667 23.43655396 C-27.79720057 24.76964318 -29.90557554 25.90557554 -32 28 C-29.6458872 29.28787423 -27.29137185 30.5750019 -24.9362793 31.86108398 C-22.93011451 32.95750865 -20.92507463 34.05599402 -18.92114258 35.15649414 C-14.39001115 37.6383408 -9.85920538 40.09889141 -5.234375 42.40234375 C-4.19615601 42.92634766 -4.19615601 42.92634766 -3.13696289 43.4609375 C-1.29953189 44.38137883 0.54723614 45.28311293 2.39453125 46.18359375 C5 48 5 48 6.01171875 50.59765625 C6 53 6 53 4 55 C0.1375974 55.43322685 -2.18278378 54.68440954 -5.52734375 52.796875 C-6.82442261 52.07624878 -6.82442261 52.07624878 -8.14770508 51.34106445 C-9.0683374 50.81601318 -9.98896973 50.29096191 -10.9375 49.75 C-12.89822538 48.65456816 -14.85916973 47.55952818 -16.8203125 46.46484375 C-17.83125977 45.89620605 -18.84220703 45.32756836 -19.88378906 44.74169922 C-25.95645843 41.34758897 -32.08675573 38.05838269 -38.20483398 34.74707031 C-39.08212158 34.26979492 -39.95940918 33.79251953 -40.86328125 33.30078125 C-42.02790894 32.66910034 -42.02790894 32.66910034 -43.21606445 32.0246582 C-45 31 -45 31 -46 30 C-46.04063832 28.33382885 -46.042721 26.66611905 -46 25 C-33.46198107 18.0954867 -20.87385132 11.30798658 -8.15209961 4.74707031 C-7.22921143 4.26979492 -6.30632324 3.79251953 -5.35546875 3.30078125 C-4.53715576 2.87966064 -3.71884277 2.45854004 -2.87573242 2.0246582 C-1.04503905 1.13889332 -1.04503905 1.13889332 0 0 Z " fill="#F8FBFE" transform="translate(126,122)"/>
<path d="M0 0 C0.95769287 -0.00478363 1.91538574 -0.00956726 2.90209961 -0.01449585 C4.92270555 -0.01789151 6.94336668 -0.00871245 8.96386719 0.01220703 C12.05268111 0.0389774 15.1378613 0.01244798 18.2265625 -0.01953125 C20.19271634 -0.01622709 22.15886791 -0.00982074 24.125 0 C25.04595459 -0.01012115 25.96690918 -0.02024231 26.91577148 -0.03067017 C31.41875567 0.05143406 33.45095052 0.20394709 37.14453125 2.98291016 C39.0625 5.6640625 39.0625 5.6640625 39.6875 9.2265625 C39.0625 12.6640625 39.0625 12.6640625 37.16040039 14.84570312 C32.73234399 17.44481764 28.92002481 17.23852847 23.87109375 17.1953125 C22.88883316 17.1991394 21.90657257 17.20296631 20.89454651 17.20690918 C18.82267224 17.20962578 16.75076353 17.20228226 14.67895508 17.18554688 C11.50719893 17.16411115 8.33770203 17.1853693 5.16601562 17.2109375 C3.15103667 17.20829463 1.13605912 17.20317049 -0.87890625 17.1953125 C-1.8268959 17.20340942 -2.77488556 17.21150635 -3.75160217 17.21984863 C-10.27747276 17.12682094 -10.27747276 17.12682094 -13.53100586 14.84570312 C-15.63796046 11.57756455 -15.53783665 9.46619463 -14.9375 5.6640625 C-10.75086501 -0.20043054 -6.66198961 -0.07321428 0 0 Z " fill="#B0AEAB" transform="translate(243.9375,361.3359375)"/>
<path d="M0 0 C2.625 0.375 2.625 0.375 5 1 C6.87059819 6.19948625 4.7802572 9.84469846 2.7109375 14.62109375 C1.96101504 16.42079663 1.21341608 18.22146893 0.46777344 20.02294922 C0.06602905 20.98738953 -0.33571533 21.95182983 -0.74963379 22.94549561 C-2.95579897 28.33490967 -5.01474144 33.78027262 -7.0859375 39.22265625 C-7.96209654 41.51372658 -8.83839968 43.80474181 -9.71484375 46.09570312 C-11.05930693 49.61506239 -12.40256705 53.13486965 -13.74365234 56.65551758 C-15.06283163 60.11664861 -16.38654538 63.57601719 -17.7109375 67.03515625 C-18.31402237 68.62397362 -18.31402237 68.62397362 -18.92929077 70.24488831 C-19.30373322 71.22118698 -19.67817566 72.19748566 -20.06396484 73.20336914 C-20.39069183 74.06015762 -20.71741882 74.91694611 -21.05404663 75.79969788 C-22 78 -22 78 -24 81 C-26.5625 81.25 -26.5625 81.25 -29 81 C-29.33 80.67 -29.66 80.34 -30 80 C-29.64623688 72.74260673 -27.71262539 66.81353225 -25.02734375 60.10546875 C-24.62600723 59.07803055 -24.22467072 58.05059235 -23.81117249 56.99201965 C-22.53010413 53.7197509 -21.23404881 50.45366147 -19.9375 47.1875 C-19.09341694 45.03749547 -18.25030982 42.88710752 -17.40820312 40.73632812 C-15.35252373 35.49423827 -13.27922801 30.25934399 -11.19940186 25.02679443 C-10.01324616 22.03342782 -8.8377591 19.03605922 -7.66455078 16.03759766 C-6.94448634 14.20859963 -6.22427919 12.37965779 -5.50390625 10.55078125 C-5.17744614 9.71073044 -4.85098602 8.87067963 -4.51463318 8.00517273 C-4.05988365 6.85659538 -4.05988365 6.85659538 -3.59594727 5.68481445 C-3.33451431 5.0177095 -3.07308136 4.35060455 -2.8037262 3.6632843 C-2 2 -2 2 0 0 Z " fill="#F8FAFE" transform="translate(166,109)"/>
<path d="M0 0 C1.17461792 -0.00630432 2.34923584 -0.01260864 3.55944824 -0.019104 C5.47038269 -0.01303131 5.47038269 -0.01303131 7.41992188 -0.00683594 C8.72191528 -0.00874939 10.02390869 -0.01066284 11.36535645 -0.01263428 C14.12268816 -0.01558485 16.87989036 -0.01129018 19.63720703 -0.00195312 C23.17494261 0.00944153 26.71237474 0.00288168 30.25009918 -0.00909805 C33.61923121 -0.01805488 36.98828121 -0.01178734 40.35742188 -0.00683594 C41.63137817 -0.0108844 42.90533447 -0.01493286 44.21789551 -0.019104 C45.39251343 -0.01279968 46.56713135 -0.00649536 47.77734375 0 C48.81499878 0.00159119 49.85265381 0.00318237 50.92175293 0.00482178 C53.38867188 0.25878906 53.38867188 0.25878906 55.38867188 2.25878906 C55.51367188 4.88378906 55.51367188 4.88378906 55.38867188 7.25878906 C52.71389123 8.59617938 50.66466332 8.38593236 47.66967773 8.38818359 C45.87287819 8.39291183 45.87287819 8.39291183 44.03977966 8.3977356 C42.74081253 8.39571136 41.4418454 8.39368713 40.10351562 8.39160156 C38.76355471 8.39227488 37.42359392 8.39324514 36.08363342 8.39450073 C33.27506345 8.39597588 30.46652527 8.39382869 27.65795898 8.38916016 C24.05070185 8.38345747 20.44351903 8.38674642 16.83626461 8.39273262 C14.06970149 8.39633849 11.30315612 8.39519963 8.53659248 8.39260483 C6.55726702 8.39160973 4.57794087 8.39465594 2.59861755 8.3977356 C1.40390335 8.39458344 0.20918915 8.39143127 -1.02172852 8.38818359 C-2.60818932 8.3869902 -2.60818932 8.3869902 -4.22669983 8.38577271 C-6.61132812 8.25878906 -6.61132812 8.25878906 -7.61132812 7.25878906 C-7.79882812 4.82128906 -7.79882812 4.82128906 -7.61132812 2.25878906 C-4.95524059 -0.39729848 -3.70827953 0.00568644 0 0 Z " fill="#FBC721" transform="translate(376.611328125,246.7412109375)"/>
<path d="M0 0 C1.17469345 -0.00637985 2.3493869 -0.0127597 3.55967712 -0.01933289 C5.4783535 -0.02100212 5.4783535 -0.02100212 7.43579102 -0.02270508 C8.73919937 -0.02603348 10.04260773 -0.02936188 11.38551331 -0.03279114 C14.14878161 -0.03878833 16.91201861 -0.04063044 19.67529297 -0.04003906 C23.220882 -0.03993742 26.76627084 -0.05358863 30.3118124 -0.07081127 C33.68647526 -0.08458646 37.06110036 -0.08401955 40.43579102 -0.08520508 C42.35143105 -0.09598335 42.35143105 -0.09598335 44.30577087 -0.10697937 C46.07253929 -0.10236443 46.07253929 -0.10236443 47.875 -0.09765625 C49.43600685 -0.09979378 49.43600685 -0.09979378 51.02854919 -0.10197449 C53.50219727 0.14526367 53.50219727 0.14526367 55.50219727 2.14526367 C55.13538069 5.07979628 54.63782481 6.00963613 52.50219727 8.14526367 C50.11120605 8.39923096 50.11120605 8.39923096 47.07446289 8.40405273 C45.93988647 8.41035706 44.80531006 8.41666138 43.63635254 8.42315674 C41.79103943 8.41708405 41.79103943 8.41708405 39.90844727 8.41088867 C38.65084595 8.41280212 37.39324463 8.41471558 36.09753418 8.41668701 C33.43426851 8.41805016 30.77136797 8.41534373 28.1081543 8.40600586 C24.69148332 8.39461119 21.27512654 8.40117115 17.8584671 8.41315079 C14.60428247 8.42210821 11.35013599 8.41583995 8.09594727 8.41088867 C6.86573853 8.41493713 5.63552979 8.4189856 4.36804199 8.42315674 C2.66617737 8.41370026 2.66617737 8.41370026 0.92993164 8.40405273 C-0.0721936 8.40246155 -1.07431885 8.40087036 -2.10681152 8.39923096 C-4.49780273 8.14526367 -4.49780273 8.14526367 -6.49780273 6.14526367 C-6.68530273 3.58276367 -6.68530273 3.58276367 -6.49780273 1.14526367 C-4.75727141 -0.59526765 -2.36777271 0.00867938 0 0 Z " fill="#F5C528" transform="translate(86.497802734375,221.854736328125)"/>
<path d="M0 0 C1.55170898 -0.00945648 1.55170898 -0.00945648 3.13476562 -0.019104 C4.81602539 -0.01303131 4.81602539 -0.01303131 6.53125 -0.00683594 C7.67787109 -0.00874939 8.82449219 -0.01066284 10.00585938 -0.01263428 C12.43359598 -0.01399715 14.86133984 -0.01029361 17.2890625 -0.00195312 C21.01579073 0.00874469 24.74203686 -0.00184525 28.46875 -0.01464844 C30.82291774 -0.01332686 33.17708517 -0.01076451 35.53125 -0.00683594 C36.65208984 -0.0108844 37.77292969 -0.01493286 38.92773438 -0.019104 C39.96220703 -0.01279968 40.99667969 -0.00649536 42.0625 0 C43.43245117 0.00238678 43.43245117 0.00238678 44.83007812 0.00482178 C47.03125 0.25878906 47.03125 0.25878906 49.03125 2.25878906 C49.15625 4.88378906 49.15625 4.88378906 49.03125 7.25878906 C46.51067097 8.51907858 44.77566419 8.38578098 41.95483398 8.38818359 C40.89711288 8.39133575 39.83939178 8.39448792 38.74961853 8.3977356 C37.03084251 8.39469925 37.03084251 8.39469925 35.27734375 8.39160156 C33.52056053 8.39303665 33.52056053 8.39303665 31.72828674 8.39450073 C29.24927721 8.39518214 26.77026589 8.3933306 24.29125977 8.38916016 C20.48124212 8.38380662 16.67134211 8.38910898 12.86132812 8.39550781 C10.45833307 8.39484712 8.05533809 8.39356614 5.65234375 8.39160156 C3.93053139 8.39463791 3.93053139 8.39463791 2.17393494 8.3977356 C1.119366 8.39458344 0.06479706 8.39143127 -1.02172852 8.38818359 C-1.9550148 8.387388 -2.88830109 8.38659241 -3.84986877 8.38577271 C-5.96875 8.25878906 -5.96875 8.25878906 -6.96875 7.25878906 C-7.15625 4.82128906 -7.15625 4.82128906 -6.96875 2.25878906 C-4.42601278 -0.28394815 -3.52435561 0.00614026 0 0 Z " fill="#F9C723" transform="translate(86.96875,297.7412109375)"/>
<path d="M0 0 C0.97448593 -0.00637985 1.94897186 -0.0127597 2.95298767 -0.01933289 C4.54355736 -0.02100212 4.54355736 -0.02100212 6.16625977 -0.02270508 C7.24770767 -0.02603348 8.32915558 -0.02936188 9.44337463 -0.03279114 C11.73584567 -0.0378651 14.02832413 -0.04019932 16.32080078 -0.04003906 C19.83907168 -0.04222478 23.35702883 -0.06037361 26.87524414 -0.0793457 C29.09724827 -0.0822796 31.3192539 -0.08426442 33.54125977 -0.08520508 C34.59961533 -0.09239059 35.65797089 -0.09957611 36.74839783 -0.10697937 C37.72603592 -0.10390274 38.70367401 -0.10082611 39.7109375 -0.09765625 C41.00547096 -0.09979378 41.00547096 -0.09979378 42.32615662 -0.10197449 C44.42016602 0.14526367 44.42016602 0.14526367 46.42016602 2.14526367 C46.17016602 4.70776367 46.17016602 4.70776367 45.42016602 7.14526367 C43.01728175 8.34670581 41.5017685 8.27838393 38.81860352 8.29052734 C37.38701904 8.30009712 37.38701904 8.30009712 35.92651367 8.30986023 C34.89316895 8.31097305 33.85982422 8.31208588 32.79516602 8.31323242 C31.20841064 8.31822502 31.20841064 8.31822502 29.58959961 8.32331848 C27.35018347 8.32838723 25.11075976 8.33072682 22.87133789 8.33056641 C19.43436336 8.33275463 15.99770878 8.35091584 12.56079102 8.36987305 C10.38891712 8.37280655 8.21704169 8.37479163 6.04516602 8.37573242 C4.49514893 8.3865107 4.49514893 8.3865107 2.91381836 8.39750671 C1.48223389 8.39289177 1.48223389 8.39289177 0.02172852 8.38818359 C-1.2416333 8.39032112 -1.2416333 8.39032112 -2.53051758 8.39250183 C-4.57983398 8.14526367 -4.57983398 8.14526367 -6.57983398 6.14526367 C-5.92011988 0.73560804 -5.31274166 0.02348698 0 0 Z " fill="#F6C626" transform="translate(104.579833984375,272.854736328125)"/>
<path d="M0 0 C2.375 1.625 2.375 1.625 4 4 C4.61195145 7.6717087 4.48706506 9.28813568 2.375 12.375 C-0.71186432 14.48706506 -2.3282913 14.61195145 -6 14 C-8.375 12.375 -8.375 12.375 -10 10 C-10.61195145 6.3282913 -10.48706506 4.71186432 -8.375 1.625 C-5.28813568 -0.48706506 -3.6717087 -0.61195145 0 0 Z " fill="#FAC326" transform="translate(323,160)"/>
<path d="M0 0 C4.30169173 1.40272556 4.30169173 1.40272556 5.875 3.9375 C6.41568562 7.56781776 6.33879841 9.25964079 4.25 12.3125 C1.16313568 14.42456506 -0.4532913 14.54945145 -4.125 13.9375 C-7.21384321 11.82408096 -7.99608765 10.62503254 -8.6875 6.9375 C-8.125 3.9375 -8.125 3.9375 -6 1.5 C-3.125 -0.0625 -3.125 -0.0625 0 0 Z " fill="#FBC325" transform="translate(295.125,153.0625)"/>
<path d="M0 0 C2.3125 1.625 2.3125 1.625 4 4 C4.61195145 7.6717087 4.48706506 9.28813568 2.375 12.375 C-0.71186432 14.48706506 -2.3282913 14.61195145 -6 14 C-8.4375 12.4375 -8.4375 12.4375 -10 10 C-10 6.17610254 -9.85254277 3.94388664 -7.25 1.0625 C-4.50508782 -0.23370853 -2.99925788 -0.52487013 0 0 Z " fill="#FBC325" transform="translate(323,116)"/>
<path d="M0 0 C4.32624283 1.50478011 4.32624283 1.50478011 5.875 4 C6.41568562 7.63031776 6.33879841 9.32214079 4.25 12.375 C1.21136094 14.45406883 -0.50949608 14.46155369 -4.125 14 C-7.125 12 -7.125 12 -8.125 8.6875 C-8.125 5 -8.125 5 -6.0625 2 C-3.125 0 -3.125 0 0 0 Z " fill="#FBC325" transform="translate(295.125,109)"/>
<path d="M0 0 C1.875 1.1875 1.875 1.1875 3 3 C3.54068562 6.63031776 3.46379841 8.32214079 1.375 11.375 C-1.71186432 13.48706506 -3.3282913 13.61195145 -7 13 C-9.4375 11.4375 -9.4375 11.4375 -11 9 C-11 5.18846501 -10.80074051 2.94902579 -8.3125 0 C-5.12832007 -1.37694267 -3.29075199 -0.980224 0 0 Z " fill="#FBC425" transform="translate(324,73)"/>
<path d="M0 0 C2.54685809 0.0785782 3.81954973 0.17584047 6.0625 1.4375 C7.54799091 4.22279546 7.44300713 6.20502511 7.0625 9.3125 C6 11.6875 6 11.6875 4.0625 13.3125 C0.1197344 13.88599318 -2.03110864 13.8789946 -5.4375 11.75 C-6.9375 9.3125 -6.9375 9.3125 -6.8125 5.6875 C-5.56526038 0.87671861 -5.01226784 0.39779904 0 0 Z " fill="#FBC424" transform="translate(293.9375,65.6875)"/>
<path d="M0 0 C2.93453261 0.36681658 3.86437246 0.86437246 6 3 C5.44444444 7.55555556 5.44444444 7.55555556 4 9 C1.5 9.125 1.5 9.125 -1 9 C-2 8 -2 8 -2.1875 5.0625 C-2 2 -2 2 0 0 Z " fill="#5C9AF7" transform="translate(50,136)"/>
</svg>
