<?xml version="1.0" encoding="UTF-8"?>
<svg version="1.1" xmlns="http://www.w3.org/2000/svg" width="512" height="512">
<path d="M0 0 C1.72582588 -0.00461468 3.45164783 -0.01097139 5.17746162 -0.01890898 C9.89733791 -0.03554752 14.61688907 -0.02738091 19.33676624 -0.0149641 C24.43569409 -0.00589347 29.53456703 -0.01989332 34.63348389 -0.03088379 C44.61335561 -0.0486521 54.59310686 -0.04483653 64.57298326 -0.03323323 C72.68524188 -0.02419255 80.79746679 -0.02297766 88.909729 -0.02732849 C90.06516366 -0.02794142 91.22059832 -0.02855436 92.41104615 -0.02918586 C94.75843224 -0.03046479 97.10581832 -0.03176164 99.45320439 -0.03307623 C121.45459403 -0.04447708 143.45591696 -0.03137606 165.45729566 -0.00987476 C184.32752087 0.00799575 203.19764765 0.00489151 222.06787109 -0.0135498 C243.99158028 -0.03496523 265.91523102 -0.04337849 287.8389492 -0.03110075 C290.17760594 -0.02982658 292.51626268 -0.0285691 294.85491943 -0.02732849 C296.58082752 -0.02640284 296.58082752 -0.02640284 298.34160244 -0.02545848 C306.44228783 -0.02200761 314.54293609 -0.02782829 322.64361572 -0.0372467 C332.5182667 -0.0484755 342.39279052 -0.04540803 352.26742697 -0.02412373 C357.30375001 -0.01362526 362.33986118 -0.00947105 367.37618256 -0.02272034 C371.99018845 -0.03467487 376.60378689 -0.02803128 381.21775603 -0.00681013 C382.88315294 -0.00235703 384.54858455 -0.00458117 386.21395898 -0.01431328 C399.81152694 -0.08765401 410.70157321 1.78907019 420.88232422 11.50793457 C429.84486386 20.89641669 432.49459673 31.03422128 432.39025879 43.76623535 C432.39961873 45.5450368 432.39961873 45.5450368 432.40916777 47.35977364 C432.42227636 50.62034745 432.41767563 53.88031611 432.40522289 57.14087391 C432.39612034 60.66924416 432.41016774 64.19753664 432.42114258 67.72589111 C432.43887723 74.62565631 432.43511048 81.52524691 432.42349201 88.42501879 C432.41443798 94.03537453 432.41324219 99.64568152 432.41758728 105.25604248 C432.41820021 106.0562309 432.41881314 106.85641932 432.41944465 107.68085587 C432.42072362 109.30670597 432.42202048 110.93255605 432.42333502 112.55840611 C432.434726 127.78411152 432.42165041 143.0097204 432.40013355 158.23540998 C432.3822639 171.28398211 432.38536843 184.33241188 432.40380859 197.38098145 C432.42524153 212.55427072 432.43362751 227.72747552 432.42135954 242.90077782 C432.42008542 244.52046075 432.41882793 246.1401437 432.41758728 247.75982666 C432.41666163 248.95502558 432.41666163 248.95502558 432.41571727 250.17436993 C432.41227164 255.77436875 432.41807571 261.37431372 432.42750549 266.9743042 C432.43875384 273.80403903 432.43562612 280.63359011 432.41438252 287.46330404 C432.40390999 290.94425405 432.39968468 294.42489828 432.41297913 297.90584564 C432.42394461 301.68741124 432.41015687 305.46812231 432.39025879 309.24963379 C432.40364312 310.88287944 432.40364312 310.88287944 432.41729784 312.54911995 C432.30104996 323.97557724 428.80438954 333.20937506 420.88232422 341.50793457 C410.96175082 350.97842525 400.44229854 353.10806651 387.05737305 353.05383301 C385.70600202 353.06258864 384.35464132 353.07308128 383.0032959 353.0851593 C379.36968162 353.11279709 375.7364093 353.11642897 372.10270524 353.11543941 C368.29232694 353.11858785 364.48209835 353.1442458 360.67179871 353.16741943 C353.47210077 353.20783619 346.27249307 353.22828625 339.07269925 353.24139333 C330.86937583 353.25731218 322.66620493 353.29574811 314.46297038 353.33598661 C297.60279897 353.41818929 280.74266 353.4724037 263.88232422 353.50793457 C265.59911626 356.95813112 267.31862805 360.40696568 269.03857422 363.85559082 C269.51713867 364.81743286 269.99570312 365.7792749 270.48876953 366.77026367 C274.10988235 374.02620565 277.84875832 381.21253502 281.67581177 388.36177063 C286.44781167 397.28065846 290.43699773 405.28866215 287.88232422 415.57043457 C285.55890366 422.33043195 281.62632594 426.71505066 275.69970703 430.58740234 C269.38685391 433.65827959 262.4509739 433.06599655 255.59716797 433.0255127 C254.05233095 433.03093948 252.50749912 433.03806526 250.962677 433.04675293 C246.78493075 433.06492322 242.60758147 433.05794499 238.42982864 433.04523659 C234.04801653 433.03507614 229.66623734 433.0445107 225.28442383 433.05078125 C217.92734708 433.05804882 210.5704312 433.0484934 203.21337891 433.02941895 C194.71994732 433.00765187 186.22689988 433.01470387 177.73347759 433.03672457 C170.42791053 433.05490402 163.1224588 433.05742448 155.81687641 433.04696989 C151.4593864 433.04074892 147.10207667 433.03986073 142.74459839 433.05311584 C138.64697249 433.0647109 134.5498396 433.05658247 130.45226669 433.03353882 C128.95272513 433.02827115 127.45314175 433.02973213 125.9536171 433.03858948 C116.81806563 433.08755662 109.8176609 432.83280278 102.64013672 426.54309082 C102.10130859 425.89211426 101.56248047 425.2411377 101.00732422 424.57043457 C100.45302734 423.92203613 99.89873047 423.2736377 99.32763672 422.60559082 C95.39206387 416.89369185 94.55075371 410.63212519 95.37304688 403.80725098 C97.35192008 394.87291354 102.63354696 386.52322457 106.88232422 378.50793457 C107.83411393 376.67786477 108.78468309 374.84715953 109.73388672 373.01574707 C111.7282744 369.18506781 113.74913713 365.36986507 115.79833984 361.5682373 C117.20114822 358.90195354 118.53752231 356.20385665 119.88232422 353.50793457 C119.18640262 353.50646801 118.49048101 353.50500145 117.77347088 353.50349045 C100.80368565 353.46636353 83.8341314 353.4072712 66.86451244 353.32403183 C58.65796285 353.28430122 50.45150831 353.25187849 42.24487305 353.23693848 C35.08807693 353.22389083 27.93149051 353.19684727 20.77481252 353.1533215 C16.98887881 353.13077622 13.20320306 353.11501969 9.41719627 353.11605072 C5.84572766 353.11680148 2.27482776 353.0986864 -1.29649353 353.06676674 C-3.21590734 353.05433071 -5.13541701 353.06129929 -7.05485535 353.06907654 C-18.99301897 352.92685627 -28.40208581 349.82811025 -37.11767578 341.50793457 C-46.08021543 332.11945245 -48.72994829 321.98164786 -48.62561035 309.24963379 C-48.63185031 308.06376616 -48.63809028 306.87789852 -48.64451933 305.6560955 C-48.65762792 302.39552169 -48.65302719 299.13555303 -48.64057446 295.87499523 C-48.6314719 292.34662498 -48.64551931 288.8183325 -48.65649414 285.28997803 C-48.67422879 278.39021283 -48.67046205 271.49062223 -48.65884358 264.59085035 C-48.64978954 258.98049462 -48.64859375 253.37018762 -48.65293884 247.75982666 C-48.65355177 246.95963824 -48.65416471 246.15944982 -48.65479621 245.33501327 C-48.65607519 243.70916317 -48.65737204 242.08331309 -48.65868658 240.45746303 C-48.67007757 225.23175762 -48.65700197 210.00614874 -48.63548511 194.78045917 C-48.61761547 181.73188703 -48.62071999 168.68345726 -48.63916016 155.6348877 C-48.66059309 140.46159842 -48.66897907 125.28839362 -48.6567111 110.11509132 C-48.65543698 108.49540839 -48.6541795 106.87572544 -48.65293884 105.25604248 C-48.65232174 104.4592432 -48.65170464 103.66244392 -48.65106884 102.84149921 C-48.6476232 97.2415004 -48.65342728 91.64155542 -48.66285706 86.04156494 C-48.6741054 79.21183011 -48.67097769 72.38227903 -48.64973408 65.5525651 C-48.63926156 62.0716151 -48.63503624 58.59097086 -48.64833069 55.1100235 C-48.65929617 51.3284579 -48.64550843 47.54774683 -48.62561035 43.76623535 C-48.63453324 42.67740492 -48.64345613 41.58857449 -48.6526494 40.46674919 C-48.53640152 29.0402919 -45.0397411 19.80649408 -37.11767578 11.50793457 C-26.18237271 1.06875111 -14.43174467 -0.08433623 0 0 Z " fill="#F0F1F1" transform="translate(64.11767578125,39.4920654296875)"/>
<path d="M0 0 C41.4871875 -0.12375 41.4871875 -0.12375 83.8125 -0.25 C92.53534424 -0.28641602 101.25818848 -0.32283203 110.24536133 -0.36035156 C120.92321777 -0.37841797 120.92321777 -0.37841797 125.92704773 -0.3817749 C129.41083533 -0.3854912 132.89437742 -0.40043962 136.37809753 -0.42230225 C140.83120057 -0.44987529 145.28395005 -0.45793962 149.73713052 -0.4522891 C151.36555475 -0.45346949 152.9939922 -0.46132058 154.62234271 -0.47686052 C168.11772511 -0.59959856 178.90600117 1.36395197 189 11 C197.55994949 19.96675897 200.62816418 29.85541047 200.48101807 42.07951355 C200.48443577 43.13838518 200.48785347 44.19725681 200.49137473 45.28821546 C200.49791835 48.80595203 200.4760352 52.32291092 200.45410156 55.84057617 C200.45297233 58.37418601 200.45360843 60.90779717 200.45587158 63.44140625 C200.45677993 68.88049754 200.44549817 74.31934223 200.42292023 79.7583828 C200.39029865 87.62209369 200.37998288 95.48571196 200.37496826 103.34948317 C200.36623146 116.11040163 200.33965993 128.87121735 200.30175781 141.63208008 C200.26499577 154.02204892 200.23675049 166.41198963 200.21972656 178.80200195 C200.21865457 179.57455226 200.21758258 180.34710256 200.21647811 181.14306349 C200.20815956 187.18564891 200.20033216 193.22823494 200.19265985 199.27082121 C200.15498086 228.84730848 200.07449469 258.42353828 200 288 C134 288 68 288 0 288 C0 192.96 0 97.92 0 0 Z " fill="#F0F1F1" transform="translate(296,40)"/>
<path d="M0 0 C5.28 0 10.56 0 16 0 C16 95.04 16 190.08 16 288 C82 288 148 288 216 288 C216 329.47722772 216 329.47722772 205 341 C195.0794266 350.47049068 184.55997432 352.60013194 171.17504883 352.54589844 C169.8236778 352.55465407 168.4723171 352.56514671 167.12097168 352.57722473 C163.4873574 352.60486252 159.85408508 352.6084944 156.22038102 352.60750484 C152.41000272 352.61065328 148.59977414 352.63631123 144.78947449 352.65948486 C137.58977655 352.69990162 130.39016885 352.72035168 123.19037503 352.73345876 C114.98705161 352.74937761 106.78388071 352.78781354 98.58064616 352.82805204 C81.72047475 352.91025472 64.86033578 352.96446913 48 353 C49.71679204 356.45019655 51.43630383 359.89903111 53.15625 363.34765625 C53.63481445 364.30949829 54.11337891 365.27134033 54.60644531 366.2623291 C58.22755813 373.51827108 61.9664341 380.70460045 65.79348755 387.85383606 C70.56548745 396.77272389 74.55467352 404.78072758 72 415.0625 C69.67657944 421.82249738 65.74400172 426.20711609 59.81738281 430.07946777 C53.50452969 433.15034502 46.56864968 432.55806198 39.71484375 432.51757812 C38.17000674 432.52300491 36.6251749 432.53013069 35.08035278 432.53881836 C30.90260653 432.55698865 26.72525725 432.55001042 22.54750443 432.53730202 C18.16569232 432.52714157 13.78391312 432.53657613 9.40209961 432.54284668 C2.04502286 432.55011425 -5.31189302 432.54055883 -12.66894531 432.52148438 C-21.1623769 432.4997173 -29.65542434 432.5067693 -38.14884663 432.52879 C-45.45441369 432.54696945 -52.75986542 432.54948991 -60.06544781 432.53903532 C-64.42293782 432.53281435 -68.78024755 432.53192616 -73.13772583 432.54518127 C-77.23535172 432.55677633 -81.33248462 432.5486479 -85.43005753 432.52560425 C-86.92959908 432.52033658 -88.42918247 432.52179756 -89.92870712 432.53065491 C-99.06425859 432.57962205 -106.06466332 432.32486821 -113.2421875 426.03515625 C-113.78101563 425.38417969 -114.31984375 424.73320312 -114.875 424.0625 C-115.42929688 423.41410156 -115.98359375 422.76570313 -116.5546875 422.09765625 C-120.49026035 416.38575728 -121.33157051 410.12419062 -120.50927734 403.29931641 C-118.53040413 394.36497897 -113.24877725 386.01529 -109 378 C-108.04821029 376.1699302 -107.09764113 374.33922496 -106.1484375 372.5078125 C-104.15404982 368.67713324 -102.13318709 364.8619305 -100.08398438 361.06030273 C-98.68117599 358.39401897 -97.34480191 355.69592208 -96 353 C-96.6959216 352.99853344 -97.3918432 352.99706688 -98.10885334 352.99555588 C-115.07863857 352.95842896 -132.04819282 352.89933663 -149.01781178 352.81609726 C-157.22436137 352.77636665 -165.4308159 352.74394391 -173.63745117 352.72900391 C-180.79424729 352.71595626 -187.95083371 352.6889127 -195.1075117 352.64538693 C-198.89344541 352.62284165 -202.67912116 352.60708512 -206.46512794 352.60811615 C-210.03659656 352.60886691 -213.60749646 352.59075183 -217.17881775 352.55883217 C-219.09823156 352.54639614 -221.01774123 352.55336472 -222.93717957 352.56114197 C-234.87534319 352.4189217 -244.28441003 349.32017568 -253 341 C-267.68666002 325.6153601 -264 309.34251059 -264 288 C-176.88 288 -89.76 288 0 288 C0 192.96 0 97.92 0 0 Z " fill="#6B71F2" transform="translate(280,40)"/>
<path d="M0 0 C0.75293264 -0.00297112 1.50586528 -0.00594224 2.28161407 -0.0090034 C4.81802318 -0.01771184 7.35438521 -0.01920046 9.89080811 -0.02069092 C11.70400596 -0.02531763 13.51720283 -0.03034209 15.33039856 -0.03573608 C20.26647561 -0.04887748 25.20253905 -0.05530859 30.13863087 -0.05974674 C33.22120409 -0.06267506 36.30377357 -0.06677943 39.38634491 -0.07125092 C49.02709825 -0.08493129 58.66784306 -0.09459493 68.30860543 -0.09845281 C79.44435871 -0.10293309 90.57998921 -0.12047738 101.71570516 -0.1494534 C110.31789377 -0.17106122 118.92004782 -0.18115663 127.52226329 -0.18249393 C132.66224173 -0.18354273 137.80210484 -0.18946635 142.94205475 -0.20731354 C147.77817253 -0.22377833 152.61408812 -0.22595745 157.45022392 -0.21717453 C159.22474903 -0.21640326 160.99928493 -0.22075865 162.77378273 -0.23063278 C165.19781834 -0.24332944 167.62113538 -0.23748816 170.04516602 -0.22705078 C170.74615016 -0.23510719 171.44713431 -0.24316359 172.1693604 -0.25146413 C177.4288297 -0.19856089 181.53304567 1.04614898 185.42108154 4.67559814 C189.44093014 9.93232323 189.9320773 12.92509136 189.95355225 19.42633057 C189.96012344 20.28344635 189.96669464 21.14056213 189.97346497 22.02365112 C189.99322213 24.86857181 190.00486732 27.71343959 190.01483154 30.55841064 C190.01890707 31.52973749 190.0229826 32.50106434 190.02718163 33.50182533 C190.04805492 38.64511529 190.06234991 43.78837848 190.07171631 48.93170166 C190.08276979 54.24021388 190.11715393 59.54830565 190.15688801 64.85666943 C190.18306012 68.94111398 190.19140879 73.0254586 190.19499779 77.10997963 C190.19986397 79.06635686 190.21147884 81.02272962 190.23003578 82.97902489 C190.2544347 85.72221299 190.2534606 88.46431673 190.246521 91.20758057 C190.26573608 92.41344063 190.26573608 92.41344063 190.28533936 93.6436615 C190.23368639 99.26428365 188.97677477 102.49936815 185.77655029 107.14044189 C180.82508457 111.72960525 176.96324169 112.28931584 170.43284607 112.28761292 C169.30216547 112.29312795 169.30216547 112.29312795 168.14864284 112.29875439 C165.61534407 112.30979353 163.08208632 112.31363544 160.54876709 112.31744385 C158.73542144 112.32370825 156.92207708 112.33035503 155.10873413 112.33735657 C150.17685249 112.35476664 145.24498054 112.36531807 140.31307578 112.3735621 C137.23267495 112.3787116 134.15227714 112.38478731 131.07187843 112.39107323 C121.43647022 112.41012421 111.80106968 112.42435629 102.16564626 112.4326852 C91.03835688 112.44246224 79.91126618 112.46879437 68.78404683 112.50918609 C60.18608514 112.53932722 51.58818047 112.55415211 42.99016696 112.55746621 C37.8535152 112.55981871 32.71707573 112.56880533 27.58048058 112.59392738 C22.74841111 112.61717847 17.91669415 112.62145327 13.08458328 112.611166 C11.31166348 112.61066983 9.53872649 112.61701415 7.7658596 112.63072205 C5.34388488 112.64840033 2.92318086 112.64135571 0.50120544 112.62818909 C-0.19909658 112.63915833 -0.89939861 112.65012758 -1.62092191 112.66142923 C-6.59558885 112.59621075 -9.37427973 111.22018251 -13.22344971 108.14044189 C-18.03311537 102.81081238 -18.37742457 98.67895266 -18.40045166 91.72515869 C-18.41030846 90.43685654 -18.41030846 90.43685654 -18.42036438 89.12252808 C-18.44008656 86.27823805 -18.45175712 83.43400077 -18.46173096 80.58966064 C-18.46580648 79.61800272 -18.46988201 78.6463448 -18.47408104 77.64524269 C-18.49493642 72.50310097 -18.50924087 67.3609859 -18.51861572 62.21881104 C-18.52968353 56.90910871 -18.56408932 51.59982507 -18.60378742 46.29027081 C-18.62993608 42.20586876 -18.63830597 38.12156679 -18.6418972 34.03708839 C-18.64676709 32.07988467 -18.65839252 30.12268553 -18.6769352 28.16556358 C-18.70129101 25.42467447 -18.70036825 22.68487297 -18.69342041 19.94390869 C-18.70623047 19.13797775 -18.71904053 18.33204681 -18.73223877 17.50169373 C-18.68381256 12.2518572 -17.66495411 9.32294514 -14.22344971 5.14044189 C-9.29516816 0.79886053 -6.42158386 -0.00783791 0 0 Z " fill="#0FF2B2" transform="translate(66.22344970703125,79.85955810546875)"/>
<path d="M0 0 C46.86 0 93.72 0 142 0 C145.3 6.27 148.6 12.54 152 19 C153.96453125 22.63322266 153.96453125 22.63322266 155.96875 26.33984375 C157.1460581 28.53894218 158.32314741 30.73815777 159.5 32.9375 C160.10585938 34.03900391 160.71171875 35.14050781 161.3359375 36.27539062 C165.89191567 44.86594058 169.30771847 53.46045444 167.0625 63.25 C164.39160116 70.53639946 159.63028766 75.73823795 152.64143372 79.13795471 C146.89384069 81.01371084 140.70299887 80.55294878 134.71484375 80.51757812 C133.17000674 80.52300491 131.6251749 80.53013069 130.08035278 80.53881836 C125.90260653 80.55698865 121.72525725 80.55001042 117.54750443 80.53730202 C113.16569232 80.52714157 108.78391312 80.53657613 104.40209961 80.54284668 C97.04502286 80.55011425 89.68810698 80.54055883 82.33105469 80.52148438 C73.8376231 80.4997173 65.34457566 80.5067693 56.85115337 80.52879 C49.54558631 80.54696945 42.24013458 80.54948991 34.93455219 80.53903532 C30.57706218 80.53281435 26.21975245 80.53192616 21.86227417 80.54518127 C17.76464828 80.55677633 13.66751538 80.5486479 9.56994247 80.52560425 C8.07040092 80.52033658 6.57081753 80.52179756 5.07129288 80.53065491 C-4.06425859 80.57962205 -11.06466332 80.32486821 -18.2421875 74.03515625 C-18.78101563 73.38417969 -19.31984375 72.73320312 -19.875 72.0625 C-20.42929688 71.41410156 -20.98359375 70.76570313 -21.5546875 70.09765625 C-25.49026035 64.38575728 -26.33157051 58.12419062 -25.50927734 51.29931641 C-23.52997514 42.36304213 -18.24510523 34.01913201 -14 26 C-13.05948122 24.18187661 -12.12061073 22.36289936 -11.18359375 20.54296875 C-7.5907274 13.6082517 -3.87595032 6.78291306 0 0 Z " fill="#090E25" transform="translate(185,392)"/>
<path d="M0 0 C0.70266495 -0.0049649 1.4053299 -0.00992981 2.12928772 -0.01504517 C4.45957411 -0.0296782 6.78979235 -0.03647172 9.12011719 -0.04199219 C10.73956301 -0.04774404 12.35900881 -0.05350177 13.97845459 -0.05926514 C17.37805499 -0.06977928 20.77763172 -0.0756188 24.17724609 -0.07910156 C28.52622633 -0.08457797 32.87489215 -0.10858578 37.22377396 -0.13707352 C40.57129823 -0.15573287 43.9187474 -0.16090731 47.26631927 -0.16243744 C48.86904361 -0.16545859 50.47176679 -0.17346898 52.07444 -0.18662262 C54.32200212 -0.20374762 56.56880471 -0.20178721 58.81640625 -0.1953125 C60.09388733 -0.19895813 61.37136841 -0.20260376 62.68756104 -0.20635986 C67.13552458 0.26342786 70.52368608 1.62712022 73.81152344 4.69628906 C77.57891002 9.62287152 78.29596223 11.77542368 78.34399414 17.97827148 C78.35056534 18.67933014 78.35713654 19.38038879 78.36390686 20.10269165 C78.38365285 22.42816269 78.39530741 24.753569 78.40527344 27.07910156 C78.40934896 27.87390741 78.41342449 28.66871326 78.41762352 29.48760414 C78.43849325 33.69721848 78.45278908 37.90680017 78.4621582 42.11645508 C78.4732038 46.45646351 78.50757925 50.79595654 78.5473299 55.1357832 C78.57353316 58.47905909 78.58185347 61.82221312 78.58543968 65.16558266 C78.59029881 66.76470723 78.60189361 68.3638266 78.62047768 69.96285057 C78.64494161 72.20798312 78.64389132 74.45179524 78.63696289 76.69702148 C78.64282913 77.97228195 78.64869537 79.24754242 78.65473938 80.56144714 C77.91059053 86.05343563 75.71122406 89.72989352 71.60449219 93.53613281 C67.43999991 96.312461 64.12534996 96.30017737 59.22045898 96.33813477 C58.51764801 96.34470596 57.81483704 96.35127716 57.09072876 96.35804749 C54.76588836 96.37775073 52.44111246 96.38943626 50.11621094 96.39941406 C48.92350554 96.40552735 48.92350554 96.40552735 47.70670509 96.41176414 C43.49823899 96.432612 39.28980538 96.44691937 35.08129883 96.45629883 C30.74010065 96.46736192 26.39941522 96.50176391 22.05839825 96.54147053 C18.71516482 96.56764506 15.37205345 96.57599137 12.02872658 96.57958031 C10.42877552 96.58444396 8.82882983 96.59605176 7.22897911 96.6146183 C4.98614491 96.63902938 2.74463602 96.63804198 0.50170898 96.63110352 C-1.40998833 96.63990288 -1.40998833 96.63990288 -3.36030579 96.64888 C-8.61003609 95.91154602 -11.65460073 93.46693526 -15.14550781 89.59863281 C-18.01287807 85.45687578 -17.97187175 82.14283057 -18.01000977 77.21459961 C-18.01658096 76.51178864 -18.02315216 75.80897766 -18.02992249 75.08486938 C-18.04962573 72.76002898 -18.06131126 70.43525308 -18.07128906 68.11035156 C-18.07536459 67.31521463 -18.07944012 66.52007771 -18.08363914 65.70084572 C-18.104487 61.49237962 -18.11879437 57.283946 -18.12817383 53.07543945 C-18.13923692 48.73424127 -18.17363891 44.39355585 -18.21334553 40.05253887 C-18.23952006 36.70930544 -18.24786637 33.36619408 -18.25145531 30.0228672 C-18.25631896 28.42291614 -18.26792676 26.82297046 -18.2864933 25.22311974 C-18.31090438 22.98028554 -18.30991698 20.73877664 -18.30297852 18.49584961 C-18.30884476 17.22138474 -18.314711 15.94691986 -18.320755 14.63383484 C-17.57967589 9.35743965 -15.13880427 6.31147731 -11.20800781 2.84863281 C-7.22470678 0.01839261 -4.89834411 0.02624652 0 0 Z " fill="#0FF2B2" transform="translate(177.8330078125,207.8388671875)"/>
<path d="M0 0 C0.70266495 -0.0049649 1.4053299 -0.00992981 2.12928772 -0.01504517 C4.45957411 -0.0296782 6.78979235 -0.03647172 9.12011719 -0.04199219 C10.73956301 -0.04774404 12.35900881 -0.05350177 13.97845459 -0.05926514 C17.37805499 -0.06977928 20.77763172 -0.0756188 24.17724609 -0.07910156 C28.52622633 -0.08457797 32.87489215 -0.10858578 37.22377396 -0.13707352 C40.57129823 -0.15573287 43.9187474 -0.16090731 47.26631927 -0.16243744 C48.86904361 -0.16545859 50.47176679 -0.17346898 52.07444 -0.18662262 C54.32200212 -0.20374762 56.56880471 -0.20178721 58.81640625 -0.1953125 C60.09388733 -0.19895813 61.37136841 -0.20260376 62.68756104 -0.20635986 C67.13552458 0.26342786 70.52368608 1.62712022 73.81152344 4.69628906 C77.57891002 9.62287152 78.29596223 11.77542368 78.34399414 17.97827148 C78.35056534 18.67933014 78.35713654 19.38038879 78.36390686 20.10269165 C78.38365285 22.42816269 78.39530741 24.753569 78.40527344 27.07910156 C78.40934896 27.87390741 78.41342449 28.66871326 78.41762352 29.48760414 C78.43849325 33.69721848 78.45278908 37.90680017 78.4621582 42.11645508 C78.4732038 46.45646351 78.50757925 50.79595654 78.5473299 55.1357832 C78.57353316 58.47905909 78.58185347 61.82221312 78.58543968 65.16558266 C78.59029881 66.76470723 78.60189361 68.3638266 78.62047768 69.96285057 C78.64494161 72.20798312 78.64389132 74.45179524 78.63696289 76.69702148 C78.64282913 77.97228195 78.64869537 79.24754242 78.65473938 80.56144714 C77.91059053 86.05343563 75.71122406 89.72989352 71.60449219 93.53613281 C67.43999991 96.312461 64.12534996 96.30017737 59.22045898 96.33813477 C58.51764801 96.34470596 57.81483704 96.35127716 57.09072876 96.35804749 C54.76588836 96.37775073 52.44111246 96.38943626 50.11621094 96.39941406 C48.92350554 96.40552735 48.92350554 96.40552735 47.70670509 96.41176414 C43.49823899 96.432612 39.28980538 96.44691937 35.08129883 96.45629883 C30.74010065 96.46736192 26.39941522 96.50176391 22.05839825 96.54147053 C18.71516482 96.56764506 15.37205345 96.57599137 12.02872658 96.57958031 C10.42877552 96.58444396 8.82882983 96.59605176 7.22897911 96.6146183 C4.98614491 96.63902938 2.74463602 96.63804198 0.50170898 96.63110352 C-1.40998833 96.63990288 -1.40998833 96.63990288 -3.36030579 96.64888 C-8.61003609 95.91154602 -11.65460073 93.46693526 -15.14550781 89.59863281 C-18.01287807 85.45687578 -17.97187175 82.14283057 -18.01000977 77.21459961 C-18.01658096 76.51178864 -18.02315216 75.80897766 -18.02992249 75.08486938 C-18.04962573 72.76002898 -18.06131126 70.43525308 -18.07128906 68.11035156 C-18.07536459 67.31521463 -18.07944012 66.52007771 -18.08363914 65.70084572 C-18.104487 61.49237962 -18.11879437 57.283946 -18.12817383 53.07543945 C-18.13923692 48.73424127 -18.17363891 44.39355585 -18.21334553 40.05253887 C-18.23952006 36.70930544 -18.24786637 33.36619408 -18.25145531 30.0228672 C-18.25631896 28.42291614 -18.26792676 26.82297046 -18.2864933 25.22311974 C-18.31090438 22.98028554 -18.30991698 20.73877664 -18.30297852 18.49584961 C-18.30884476 17.22138474 -18.314711 15.94691986 -18.320755 14.63383484 C-17.57967589 9.35743965 -15.13880427 6.31147731 -11.20800781 2.84863281 C-7.22470678 0.01839261 -4.89834411 0.02624652 0 0 Z " fill="#0FF2B2" transform="translate(65.8330078125,207.8388671875)"/>
<path d="M0 0 C5.28 0 10.56 0 16 0 C16 95.04 16 190.08 16 288 C10.72 288 5.44 288 0 288 C0 192.96 0 97.92 0 0 Z " fill="#0A0F26" transform="translate(280,40)"/>
<path d="M0 0 C1.21189499 -0.00554901 2.42378998 -0.01109802 3.67240906 -0.01681519 C6.98903489 -0.0265929 10.30409834 -0.01402681 13.62055779 0.00946999 C17.09489473 0.02960797 20.56919813 0.02369791 24.0435791 0.0213623 C29.87766191 0.02141585 35.71142052 0.04115355 41.54541016 0.07324219 C48.28528902 0.11013385 55.0247433 0.11891746 61.76470995 0.11194468 C68.25475312 0.10563404 74.74465106 0.11640428 81.23466492 0.13591003 C83.99372938 0.14407354 86.75271952 0.14679553 89.51179504 0.1452179 C93.3660937 0.14417378 97.22000933 0.16837667 101.07421875 0.1953125 C102.21722946 0.1923819 103.36024017 0.18945129 104.53788757 0.18643188 C106.11501274 0.20345657 106.11501274 0.20345657 107.72399902 0.2208252 C108.63468895 0.22455391 109.54537888 0.22828262 110.48366547 0.23212433 C113.59447653 0.69885985 115.49506771 1.79130185 118.03710938 3.61523438 C119.44168674 6.42438911 119.28606095 8.50333972 119.03710938 11.61523438 C117.25726533 14.75115008 116.51402731 15.45626173 113.03710938 16.61523438 C111.34843891 16.71551059 109.65612165 16.75880484 107.96450806 16.76913452 C106.91584061 16.77773499 105.86717316 16.78633545 104.78672791 16.79519653 C103.06142601 16.80158646 103.06142601 16.80158646 101.30126953 16.80810547 C100.0896666 16.81628296 98.87806366 16.82446045 97.62974548 16.83288574 C93.61189097 16.85774208 89.59407404 16.87440688 85.57617188 16.88867188 C84.19225432 16.89403262 82.80833683 16.89941013 81.4244194 16.90480423 C75.66823796 16.92642502 69.9120593 16.9451623 64.15584755 16.95642662 C55.90908434 16.97267193 47.66279179 17.00587217 39.416206 17.06282747 C33.61569067 17.10152278 27.81530126 17.12105862 22.01466024 17.12634718 C18.55074417 17.13000054 15.08733051 17.14201914 11.62355423 17.17444992 C7.75947481 17.21011182 3.89598698 17.2061607 0.03173828 17.19873047 C-1.11441452 17.2151358 -2.26056732 17.23154114 -3.44145203 17.2484436 C-11.18087486 17.18737957 -11.18087486 17.18737957 -15.17349243 14.26626587 C-16.96289062 11.61523438 -16.96289062 11.61523438 -17.58789062 8.61523438 C-15.62891684 -0.78783981 -7.85308355 -0.09112545 0 0 Z " fill="#0A0F26" transform="translate(344.962890625,287.384765625)"/>
<path d="M0 0 C1.21189499 -0.00554901 2.42378998 -0.01109802 3.67240906 -0.01681519 C6.98903489 -0.0265929 10.30409834 -0.01402681 13.62055779 0.00946999 C17.09489473 0.02960797 20.56919813 0.02369791 24.0435791 0.0213623 C29.87766191 0.02141585 35.71142052 0.04115355 41.54541016 0.07324219 C48.28528902 0.11013385 55.0247433 0.11891746 61.76470995 0.11194468 C68.25475312 0.10563404 74.74465106 0.11640428 81.23466492 0.13591003 C83.99372938 0.14407354 86.75271952 0.14679553 89.51179504 0.1452179 C93.3660937 0.14417378 97.22000933 0.16837667 101.07421875 0.1953125 C102.21722946 0.1923819 103.36024017 0.18945129 104.53788757 0.18643188 C106.11501274 0.20345657 106.11501274 0.20345657 107.72399902 0.2208252 C108.63468895 0.22455391 109.54537888 0.22828262 110.48366547 0.23212433 C113.59447653 0.69885985 115.49506771 1.79130185 118.03710938 3.61523438 C119.44168674 6.42438911 119.28606095 8.50333972 119.03710938 11.61523438 C117.25726533 14.75115008 116.51402731 15.45626173 113.03710938 16.61523438 C111.34843891 16.71551059 109.65612165 16.75880484 107.96450806 16.76913452 C106.91584061 16.77773499 105.86717316 16.78633545 104.78672791 16.79519653 C103.06142601 16.80158646 103.06142601 16.80158646 101.30126953 16.80810547 C100.0896666 16.81628296 98.87806366 16.82446045 97.62974548 16.83288574 C93.61189097 16.85774208 89.59407404 16.87440688 85.57617188 16.88867188 C84.19225432 16.89403262 82.80833683 16.89941013 81.4244194 16.90480423 C75.66823796 16.92642502 69.9120593 16.9451623 64.15584755 16.95642662 C55.90908434 16.97267193 47.66279179 17.00587217 39.416206 17.06282747 C33.61569067 17.10152278 27.81530126 17.12105862 22.01466024 17.12634718 C18.55074417 17.13000054 15.08733051 17.14201914 11.62355423 17.17444992 C7.75947481 17.21011182 3.89598698 17.2061607 0.03173828 17.19873047 C-1.11441452 17.2151358 -2.26056732 17.23154114 -3.44145203 17.2484436 C-11.18087486 17.18737957 -11.18087486 17.18737957 -15.17349243 14.26626587 C-16.96289062 11.61523438 -16.96289062 11.61523438 -17.58789062 8.61523438 C-15.62891684 -0.78783981 -7.85308355 -0.09112545 0 0 Z " fill="#0A0F26" transform="translate(344.962890625,247.384765625)"/>
<path d="M0 0 C1.21189499 -0.00554901 2.42378998 -0.01109802 3.67240906 -0.01681519 C6.98903489 -0.0265929 10.30409834 -0.01402681 13.62055779 0.00946999 C17.09489473 0.02960797 20.56919813 0.02369791 24.0435791 0.0213623 C29.87766191 0.02141585 35.71142052 0.04115355 41.54541016 0.07324219 C48.28528902 0.11013385 55.0247433 0.11891746 61.76470995 0.11194468 C68.25475312 0.10563404 74.74465106 0.11640428 81.23466492 0.13591003 C83.99372938 0.14407354 86.75271952 0.14679553 89.51179504 0.1452179 C93.3660937 0.14417378 97.22000933 0.16837667 101.07421875 0.1953125 C102.21722946 0.1923819 103.36024017 0.18945129 104.53788757 0.18643188 C106.11501274 0.20345657 106.11501274 0.20345657 107.72399902 0.2208252 C108.63468895 0.22455391 109.54537888 0.22828262 110.48366547 0.23212433 C113.59447653 0.69885985 115.49506771 1.79130185 118.03710938 3.61523438 C119.44168674 6.42438911 119.28606095 8.50333972 119.03710938 11.61523438 C117.25726533 14.75115008 116.51402731 15.45626173 113.03710938 16.61523438 C111.34843891 16.71551059 109.65612165 16.75880484 107.96450806 16.76913452 C106.91584061 16.77773499 105.86717316 16.78633545 104.78672791 16.79519653 C103.06142601 16.80158646 103.06142601 16.80158646 101.30126953 16.80810547 C100.0896666 16.81628296 98.87806366 16.82446045 97.62974548 16.83288574 C93.61189097 16.85774208 89.59407404 16.87440688 85.57617188 16.88867188 C84.19225432 16.89403262 82.80833683 16.89941013 81.4244194 16.90480423 C75.66823796 16.92642502 69.9120593 16.9451623 64.15584755 16.95642662 C55.90908434 16.97267193 47.66279179 17.00587217 39.416206 17.06282747 C33.61569067 17.10152278 27.81530126 17.12105862 22.01466024 17.12634718 C18.55074417 17.13000054 15.08733051 17.14201914 11.62355423 17.17444992 C7.75947481 17.21011182 3.89598698 17.2061607 0.03173828 17.19873047 C-1.11441452 17.2151358 -2.26056732 17.23154114 -3.44145203 17.2484436 C-11.18087486 17.18737957 -11.18087486 17.18737957 -15.17349243 14.26626587 C-16.96289062 11.61523438 -16.96289062 11.61523438 -17.58789062 8.61523438 C-15.62891684 -0.78783981 -7.85308355 -0.09112545 0 0 Z " fill="#0A0F26" transform="translate(344.962890625,207.384765625)"/>
<path d="M0 0 C6.52927593 1.36026582 10.80454619 9.01690206 14.6875 14.0625 C15.29674316 14.85366211 15.90598633 15.64482422 16.53369141 16.45996094 C18.36167872 18.84387512 20.18110237 21.23414727 22 23.625 C22.53544434 24.32061035 23.07088867 25.0162207 23.62255859 25.73291016 C25.05621841 27.60207709 26.46896721 29.48500384 27.875 31.375 C28.29740967 31.92212646 28.71981934 32.46925293 29.1550293 33.03295898 C30.92724403 35.46302705 31.97776742 37.52704189 32.64453125 40.46484375 C31.65043347 45.33893528 28.83623833 48.56891685 25.8125 52.4375 C25.18698242 53.25976074 24.56146484 54.08202148 23.91699219 54.92919922 C22.61103612 56.6428156 21.29891868 58.35175232 19.98095703 60.05615234 C18.04948463 62.56082976 16.14406418 65.08315572 14.24609375 67.61328125 C13.0813426 69.15931651 11.91600315 70.70490877 10.75 72.25 C10.20190674 72.97807861 9.65381348 73.70615723 9.08911133 74.45629883 C8.58017334 75.12298584 8.07123535 75.78967285 7.546875 76.4765625 C7.10182617 77.06260254 6.65677734 77.64864258 6.19824219 78.25244141 C4.32971457 80.3927964 3.00968196 80.62370907 0.1875 81 C-3 80.625 -3 80.625 -5.875 78.5 C-8 75.625 -8 75.625 -8.54296875 73.02734375 C-7.70654626 67.78616395 -4.65098366 64.43109861 -1.4375 60.3125 C-0.82841797 59.50876953 -0.21933594 58.70503906 0.40820312 57.87695312 C2.25589127 55.44660777 4.12426669 53.03374975 6 50.625 C6.6688623 49.76342285 7.33772461 48.9018457 8.02685547 48.01416016 C9.68257486 45.88287511 11.34028558 43.75317447 13 41.625 C11.58611188 38.59328525 9.91503118 36.00480573 7.91796875 33.32421875 C7.31533203 32.51146484 6.71269531 31.69871094 6.09179688 30.86132812 C5.46337891 30.02021484 4.83496094 29.17910156 4.1875 28.3125 C2.35311451 25.84556779 0.52006534 23.37768387 -1.30957031 20.90722656 C-2.38287818 19.45816793 -3.4599242 18.01186482 -4.54199219 16.56933594 C-6.57768085 13.81004059 -7.94371407 11.90642965 -8.625 8.5 C-7.54977624 3.55397069 -4.93861502 1.02887813 0 0 Z " fill="#0E132A" transform="translate(432,87.375)"/>
<path d="M0 0 C3.10837764 2.29749651 4.74217367 3.76651431 5.54296875 7.59765625 C4.70654626 12.83883605 1.65098366 16.19390139 -1.5625 20.3125 C-2.17158203 21.11623047 -2.78066406 21.91996094 -3.40820312 22.74804688 C-5.25589127 25.17839223 -7.12426669 27.59125025 -9 30 C-9.6688623 30.86157715 -10.33772461 31.7231543 -11.02685547 32.61083984 C-12.68257486 34.74212489 -14.34028558 36.87182553 -16 39 C-14.58611188 42.03171475 -12.91503118 44.62019427 -10.91796875 47.30078125 C-10.31533203 48.11353516 -9.71269531 48.92628906 -9.09179688 49.76367188 C-8.46337891 50.60478516 -7.83496094 51.44589844 -7.1875 52.3125 C-5.35311451 54.77943221 -3.52006534 57.24731613 -1.69042969 59.71777344 C-0.61712182 61.16683207 0.4599242 62.61313518 1.54199219 64.05566406 C3.57768085 66.81495941 4.94371407 68.71857035 5.625 72.125 C4.75854542 76.11069109 3.25455145 77.59446197 0 80 C-3 80.625 -3 80.625 -6 80 C-10.48774142 76.02205365 -14.04001445 71.30212516 -17.6875 66.5625 C-18.29674316 65.77133789 -18.90598633 64.98017578 -19.53369141 64.16503906 C-21.36167872 61.78112488 -23.18110237 59.39085273 -25 57 C-25.53544434 56.30438965 -26.07088867 55.6087793 -26.62255859 54.89208984 C-28.05621841 53.02292291 -29.46896721 51.13999616 -30.875 49.25 C-31.29740967 48.70287354 -31.71981934 48.15574707 -32.1550293 47.59204102 C-33.92724403 45.16197295 -34.97776742 43.09795811 -35.64453125 40.16015625 C-34.65043347 35.28606472 -31.83623833 32.05608315 -28.8125 28.1875 C-27.87422363 26.95410889 -27.87422363 26.95410889 -26.91699219 25.69580078 C-25.61103612 23.9821844 -24.29891868 22.27324768 -22.98095703 20.56884766 C-21.04948463 18.06417024 -19.14406418 15.54184428 -17.24609375 13.01171875 C-16.0813426 11.46568349 -14.91600315 9.92009123 -13.75 8.375 C-13.20190674 7.64692139 -12.65381348 6.91884277 -12.08911133 6.16870117 C-11.58017334 5.50201416 -11.07123535 4.83532715 -10.546875 4.1484375 C-10.10182617 3.56239746 -9.65677734 2.97635742 -9.19824219 2.37255859 C-6.58293506 -0.62321497 -3.75731993 -0.44203764 0 0 Z " fill="#0E132A" transform="translate(355,88)"/>
<path d="M0 0 C4.10703441 0.85563217 5.55401113 2.24378009 8 5.625 C8.44346103 10.94938549 7.41467999 15.48954342 5.875 20.53515625 C3.74621779 27.83530967 1.84696891 35.16693317 0.0625 42.55859375 C-0.44471669 44.62840131 -0.95253355 46.69806187 -1.4609375 48.76757812 C-2.24088615 51.94510082 -3.01450402 55.12357224 -3.77050781 58.30688477 C-4.51620388 61.43724485 -5.2869067 64.5605269 -6.0625 67.68359375 C-6.28349365 68.63971054 -6.5044873 69.59582733 -6.73217773 70.58091736 C-8.38258139 77.09193657 -8.38258139 77.09193657 -11.45703125 79.74633789 C-15.06726736 80.99376874 -17.35735202 80.70430311 -21 79.625 C-23.29465913 77.03425582 -23.94301309 75.38443363 -24.20117188 71.9440918 C-23.96204532 67.99879384 -22.98026667 64.46522298 -21.84375 60.70703125 C-19.7754543 53.58115548 -17.95563583 46.42753096 -16.28125 39.19921875 C-15.81913685 37.22978804 -15.35689645 35.26038718 -14.89453125 33.29101562 C-14.18839469 30.2757086 -13.4879708 27.25952186 -12.80224609 24.23950195 C-12.1241545 21.26364448 -11.4234845 18.29386293 -10.71875 15.32421875 C-10.51963013 14.42217209 -10.32051025 13.52012543 -10.11535645 12.59074402 C-8.64660797 6.51669068 -6.74579961 1.40537492 0 0 Z " fill="#0C1128" transform="translate(400,87.375)"/>
</svg>
