<?xml version="1.0" encoding="UTF-8"?>
<svg version="1.1" xmlns="http://www.w3.org/2000/svg" width="512" height="512">
<path d="M0 0 C26.39134679 18.4053938 40.62587671 50.41655199 50.7578125 79.91015625 C50.97644958 80.54356934 51.19508667 81.17698242 51.42034912 81.82958984 C55.0078125 92.30431408 55.0078125 92.30431408 55.0078125 97.09765625 C55.55904785 96.96190186 56.1102832 96.82614746 56.67822266 96.6862793 C92.96085285 87.84935339 138.02677572 80.28188795 172.109375 100.15625 C184.83618298 108.68081006 192.84663682 119.55903323 196.58984375 134.40625 C200.958976 162.54019504 187.9480267 190.0321086 171.96875 212.3671875 C165.56853387 221.09347337 158.71079519 229.35929183 151.49609375 237.41992188 C148.96040785 240.27839194 146.48467646 243.18821941 144.0078125 246.09765625 C145.28972335 249.84676236 146.6596641 252.05309186 149.5703125 254.72265625 C154.51280564 259.49655447 158.77285028 264.69767377 163.0078125 270.09765625 C163.46704102 270.67515625 163.92626953 271.25265625 164.39941406 271.84765625 C183.79252101 296.33875051 199.46599261 324.96965424 197.0078125 357.09765625 C194.80893145 370.33068138 188.37202573 381.55799599 178.0078125 390.09765625 C163.73094541 400.29196744 146.37443027 405.15016029 128.9609375 405.3359375 C127.81992836 405.35049232 127.81992836 405.35049232 126.65586853 405.36534119 C124.18979571 405.39026429 121.7239988 405.40287846 119.2578125 405.41015625 C118.41344635 405.41277466 117.5690802 405.41539307 116.6991272 405.41809082 C95.62667921 405.42506804 75.38499175 402.50091394 55.0078125 397.09765625 C54.92144531 398.00773437 54.83507812 398.9178125 54.74609375 399.85546875 C50.06715786 432.13123723 29.05662841 471.83926447 2.9375 492.12890625 C-11.67795421 501.95049148 -27.12632261 505.64507037 -44.54296875 502.4453125 C-69.47099909 494.75229122 -85.18592661 473.41118265 -96.984375 451.42578125 C-104.07611899 437.86144116 -109.58237178 423.57820508 -114.4921875 409.09765625 C-114.87528076 407.97641357 -114.87528076 407.97641357 -115.26611328 406.83251953 C-116.40330397 403.37939166 -116.9921875 400.77335686 -116.9921875 397.09765625 C-117.54342285 397.23341064 -118.0946582 397.36916504 -118.66259766 397.5090332 C-139.36040962 402.5501515 -159.06932869 405.36200931 -180.3671875 405.47265625 C-181.17075684 405.48060211 -181.97432617 405.48854797 -182.80224609 405.49673462 C-205.04448429 405.66577881 -228.09297129 401.68980607 -244.8671875 385.78515625 C-256.29842977 373.58768941 -259.44042703 360.06669224 -259.203125 343.796875 C-258.11120719 310.38553815 -234.76673795 280.55748924 -213.48046875 256.77539062 C-210.94478285 253.91692056 -208.46905146 251.00709309 -205.9921875 248.09765625 C-207.27409835 244.34855014 -208.6440391 242.14222064 -211.5546875 239.47265625 C-216.00498642 235.17416286 -219.9035591 230.57898884 -223.72216797 225.71386719 C-224.59872552 224.59837103 -225.48092743 223.4872952 -226.36767578 222.37988281 C-245.64032762 198.2286573 -261.97598432 168.9406096 -258.9921875 137.09765625 C-258.38206414 133.22102631 -257.43308192 129.74364416 -255.9921875 126.09765625 C-255.49912109 124.84275391 -255.49912109 124.84275391 -254.99609375 123.5625 C-248.44948199 108.9062446 -235.94715807 100.20281019 -221.46484375 94.37890625 C-188.84737018 82.3445628 -149.70940435 88.42228704 -116.9921875 97.09765625 C-116.9096875 96.19402344 -116.8271875 95.29039063 -116.7421875 94.359375 C-115.91993543 88.6649939 -113.88566068 83.32070053 -111.9921875 77.91015625 C-111.59064453 76.76119873 -111.18910156 75.61224121 -110.77539062 74.4284668 C-100.08601911 44.38858129 -83.71766601 10.10260388 -53.63671875 -4.53515625 C-35.37666517 -12.31958835 -16.86596784 -10.37058858 0 0 Z M-45.9921875 27.09765625 C-46.95511719 27.77248047 -46.95511719 27.77248047 -47.9375 28.4609375 C-70.29195702 45.97343723 -81.13173642 79.84740396 -87.9921875 106.09765625 C-87.21431885 106.37327393 -86.4364502 106.6488916 -85.63500977 106.93286133 C-81.93810429 108.24909534 -78.24527272 109.57632941 -74.5546875 110.91015625 C-73.88268311 111.15254028 -73.21067871 111.39492432 -72.51831055 111.64465332 C-61.73097599 115.5517404 -51.24808222 119.87868668 -40.88891602 124.83129883 C-34.15971424 128.11348036 -34.15971424 128.11348036 -26.9921875 127.09765625 C-23.61546715 125.72896721 -20.30479692 124.23917568 -16.9921875 122.72265625 C-7.31746339 118.39207306 2.4852988 114.58154202 12.4453125 110.97265625 C13.46129517 110.6044577 13.46129517 110.6044577 14.49780273 110.2288208 C18.33107382 108.84220198 22.16786671 107.46567373 26.0078125 106.09765625 C18.38963487 78.10240185 6.92111963 41.75621083 -18.9921875 25.09765625 C-19.9203125 24.45828125 -20.8484375 23.81890625 -21.8046875 23.16015625 C-30.76435711 20.17359971 -38.50013955 21.59877577 -45.9921875 27.09765625 Z M-223.9921875 132.09765625 C-228.28742742 137.38231459 -228.61139121 143.04430545 -228.3671875 149.68359375 C-225.324606 177.38376283 -202.91687943 204.05614524 -183.9921875 223.09765625 C-183.0021875 223.75765625 -182.0121875 224.41765625 -180.9921875 225.09765625 C-175.78404621 220.87060771 -170.59986405 216.63357851 -165.53173828 212.23950195 C-157.37227504 205.19410434 -148.71474656 198.8643765 -139.98413086 192.54882812 C-139.32678955 192.06994141 -138.66944824 191.59105469 -137.9921875 191.09765625 C-137.26580078 190.61901123 -136.53941406 190.14036621 -135.79101562 189.6472168 C-132.74386673 187.02231804 -132.95623648 183.20691323 -132.5546875 179.41015625 C-132.32206091 177.52696442 -132.08615617 175.64417576 -131.84765625 173.76171875 C-131.71794434 172.71532227 -131.58823242 171.66892578 -131.45458984 170.59082031 C-130.55604421 163.80286311 -129.44524315 157.04650409 -128.3671875 150.28515625 C-126.51367701 138.71497335 -126.51367701 138.71497335 -124.9921875 127.09765625 C-176.9404495 114.31706721 -176.9404495 114.31706721 -223.9921875 132.09765625 Z M63.0078125 127.09765625 C63.12318359 127.83306641 63.23855469 128.56847656 63.35742188 129.32617188 C64.93905397 139.49737905 66.3877166 149.68581393 67.83056641 159.87744141 C67.93675293 160.62687012 68.04293945 161.37629883 68.15234375 162.1484375 C68.2573822 162.89189423 68.36242065 163.63535095 68.47064209 164.40133667 C68.68153081 165.87664819 68.89652454 167.35137922 69.11578369 168.82546997 C69.61227984 172.1764625 70.04431329 175.49489796 70.35449219 178.87060547 C71.01327893 186.05426205 71.01327893 186.05426205 75.2109375 191.60546875 C76.53428111 192.51625125 77.88520264 193.38796754 79.2578125 194.22265625 C80.71871927 195.21166629 82.17833155 196.20259087 83.63671875 197.1953125 C84.37164551 197.67758301 85.10657227 198.15985352 85.86376953 198.65673828 C89.10200814 200.83301752 92.14644036 203.22885949 95.1953125 205.66015625 C95.76016357 206.10439941 96.32501465 206.54864258 96.90698242 207.00634766 C101.59420955 210.71015111 106.15616863 214.55701722 110.65893555 218.48266602 C113.62099766 221.03930755 116.58993679 223.19117145 120.0078125 225.09765625 C126.8956245 218.46867643 133.15076015 211.66017309 139.0078125 204.09765625 C139.4423877 203.53949219 139.87696289 202.98132813 140.32470703 202.40625 C154.11883998 184.56943156 167.93928494 163.53096164 166.0078125 140.09765625 C164.51833123 133.96864212 160.63560477 130.22342992 155.60546875 126.6328125 C129.56746007 111.2449367 90.30390953 120.11198166 63.0078125 127.09765625 Z M-94.9921875 136.09765625 C-98.23178871 150.48037457 -98.23178871 150.48037457 -99.9921875 165.09765625 C-89.19435823 159.3320706 -78.60711767 153.19078286 -67.9921875 147.09765625 C-70.91255521 144.70787799 -73.61330084 143.32153569 -77.16015625 142.0546875 C-78.13533203 141.70341797 -79.11050781 141.35214844 -80.11523438 140.99023438 C-81.12650391 140.63380859 -82.13777344 140.27738281 -83.1796875 139.91015625 C-84.20255859 139.54212891 -85.22542969 139.17410156 -86.27929688 138.79492188 C-90.5337008 136.96956065 -90.5337008 136.96956065 -94.9921875 136.09765625 Z M20.0703125 140.47265625 C18.94689453 140.88515625 17.82347656 141.29765625 16.66601562 141.72265625 C15.05823242 142.32207031 15.05823242 142.32207031 13.41796875 142.93359375 C12.42933838 143.3001709 11.44070801 143.66674805 10.42211914 144.04443359 C7.88615679 144.97572351 7.88615679 144.97572351 6.0078125 147.09765625 C9.65332709 149.16072001 13.29928289 151.22300284 16.9453125 153.28515625 C18.47768555 154.15237305 18.47768555 154.15237305 20.04101562 155.03710938 C26.01606495 158.41597113 32.00093105 161.77569036 38.0078125 165.09765625 C37.5566632 161.76331029 37.09557125 158.43040919 36.6328125 155.09765625 C36.50648438 154.16308594 36.38015625 153.22851562 36.25 152.265625 C35.47991873 146.75954394 34.46336682 141.46422175 33.0078125 136.09765625 C28.89671838 136.09765625 23.88367096 139.05109552 20.0703125 140.47265625 Z M-36.69140625 165.23046875 C-38.11573975 165.93405518 -38.11573975 165.93405518 -39.56884766 166.65185547 C-40.5954248 167.17021973 -41.62200195 167.68858398 -42.6796875 168.22265625 C-43.74751465 168.76035645 -44.8153418 169.29805664 -45.91552734 169.85205078 C-76.83469776 184.77148248 -76.83469776 184.77148248 -103.9921875 205.09765625 C-104.90820935 209.82045917 -105.11841693 214.40569835 -105.12158203 219.20703125 C-105.12333435 219.87955933 -105.12508667 220.5520874 -105.12689209 221.24499512 C-105.13125724 223.4459092 -105.12839157 225.64674149 -105.125 227.84765625 C-105.12567457 229.39029963 -105.12664588 230.93294291 -105.12789917 232.47558594 C-105.12936892 235.69988014 -105.12724489 238.92414654 -105.12255859 242.1484375 C-105.11686175 246.26725478 -105.12014463 250.38600688 -105.12613106 254.50482178 C-105.12975622 257.68766769 -105.12858911 260.87049833 -105.12600327 264.05334473 C-105.1253394 265.57149259 -105.12614339 267.08964188 -105.12848282 268.60778809 C-105.13104156 270.73465617 -105.12712372 272.86142081 -105.12158203 274.98828125 C-105.12078644 276.19516602 -105.11999084 277.40205078 -105.11917114 278.64550781 C-105.123448 285.54619633 -105.123448 285.54619633 -101.9387207 291.25878906 C-101.04499756 291.85014648 -100.15127441 292.44150391 -99.23046875 293.05078125 C-98.23096191 293.72044922 -97.23145508 294.39011719 -96.20166016 295.08007812 C-95.14253418 295.74587891 -94.0834082 296.41167969 -92.9921875 297.09765625 C-91.46730713 298.05768555 -91.46730713 298.05768555 -89.91162109 299.03710938 C-86.69042667 301.01520347 -83.44253093 302.93909782 -80.1796875 304.84765625 C-78.99730497 305.54344092 -77.81493208 306.23924197 -76.63256836 306.93505859 C-66.62884234 312.80211216 -56.51116337 318.45240688 -46.26708984 323.88916016 C-44.20735307 324.98335387 -42.15610902 326.09202326 -40.10546875 327.203125 C-39.03683594 327.76644531 -37.96820313 328.32976562 -36.8671875 328.91015625 C-35.99835938 329.37035156 -35.12953125 329.83054687 -34.234375 330.3046875 C-30.48489525 331.63072302 -28.52112766 330.33571362 -24.98046875 328.7421875 C-23.75198395 328.13802305 -22.52698392 327.52674449 -21.3046875 326.91015625 C-20.27504883 326.39110718 -20.27504883 326.39110718 -19.22460938 325.86157227 C-3.67998665 317.91845946 11.45001982 309.21051405 26.2578125 299.97265625 C27.26328125 299.34544678 28.26875 298.7182373 29.3046875 298.07202148 C31.89064029 296.4400384 34.45292423 294.77768884 37.0078125 293.09765625 C38.03390625 292.44023437 39.06 291.7828125 40.1171875 291.10546875 C43.97272025 287.0109567 43.13367302 280.34924959 43.13720703 274.98828125 C43.13895935 274.31575317 43.14071167 273.6432251 43.14251709 272.95031738 C43.14688224 270.7494033 43.14401657 268.54857101 43.140625 266.34765625 C43.14129957 264.80501287 43.14227088 263.26236959 43.14352417 261.71972656 C43.14499392 258.49543236 43.14286989 255.27116596 43.13818359 252.046875 C43.13248675 247.92805772 43.13576963 243.80930562 43.14175606 239.69049072 C43.14538122 236.50764481 43.14421411 233.32481417 43.14162827 230.14196777 C43.1409644 228.62381991 43.14176839 227.10567062 43.14410782 225.58752441 C43.14666656 223.46065633 43.14274872 221.33389169 43.13720703 219.20703125 C43.13641144 218.00014648 43.13561584 216.79326172 43.13479614 215.54980469 C43.13918123 208.79883877 43.13918123 208.79883877 40.20703125 203.0859375 C39.37816406 202.53292969 38.54929687 201.97992188 37.6953125 201.41015625 C36.19677734 200.40662109 36.19677734 200.40662109 34.66796875 199.3828125 C33.45099252 198.61618912 32.23065326 197.85489004 31.0078125 197.09765625 C30.30124512 196.6579248 29.59467773 196.21819336 28.86669922 195.76513672 C11.30139482 184.91126257 -6.66686798 174.61413376 -24.9921875 165.09765625 C-25.72308594 164.69804687 -26.45398438 164.2984375 -27.20703125 163.88671875 C-30.91197753 162.24908385 -33.2996519 163.55434335 -36.69140625 165.23046875 Z M-143.6171875 233.72265625 C-144.83854167 234.77734375 -146.05989583 235.83203125 -147.28125 236.88671875 C-147.88743164 237.41168945 -148.49361328 237.93666016 -149.11816406 238.47753906 C-152.06770533 241.02745515 -155.02971774 243.56278289 -157.9921875 246.09765625 C-156.68917153 249.02747744 -155.38639646 250.90161078 -152.9453125 252.97265625 C-152.3471875 253.483125 -151.7490625 253.99359375 -151.1328125 254.51953125 C-150.50890625 255.0403125 -149.885 255.56109375 -149.2421875 256.09765625 C-148.63375 256.6184375 -148.0253125 257.13921875 -147.3984375 257.67578125 C-143.70019404 260.80506417 -140.07641214 263.37483982 -135.9921875 266.09765625 C-135.9921875 253.55765625 -135.9921875 241.01765625 -135.9921875 228.09765625 C-138.51371715 228.09765625 -141.67365739 232.03453872 -143.6171875 233.72265625 Z M74.0078125 228.09765625 C74.0078125 240.63765625 74.0078125 253.17765625 74.0078125 266.09765625 C80.0586868 261.61531474 80.0586868 261.61531474 85.8515625 256.88671875 C86.45742188 256.36464844 87.06328125 255.84257812 87.6875 255.3046875 C88.28820312 254.78261719 88.88890625 254.26054687 89.5078125 253.72265625 C90.13945312 253.17738281 90.77109375 252.63210938 91.421875 252.0703125 C92.95251345 250.74839748 94.4804587 249.42336502 96.0078125 248.09765625 C94.70479653 245.16783506 93.40202146 243.29370172 90.9609375 241.22265625 C90.3628125 240.7121875 89.7646875 240.20171875 89.1484375 239.67578125 C88.52453125 239.155 87.900625 238.63421875 87.2578125 238.09765625 C86.649375 237.576875 86.0409375 237.05609375 85.4140625 236.51953125 C81.71581904 233.39024833 78.09203714 230.82047268 74.0078125 228.09765625 Z M-181.9921875 269.09765625 C-188.8799995 275.72663607 -195.13513515 282.53513941 -200.9921875 290.09765625 C-201.64405029 290.93490234 -201.64405029 290.93490234 -202.30908203 291.7890625 C-212.11721321 304.47169038 -220.55032122 317.9381716 -225.9921875 333.09765625 C-226.35957031 334.11666016 -226.35957031 334.11666016 -226.734375 335.15625 C-228.92084047 342.35960541 -229.5408792 351.46396887 -226.5546875 358.47265625 C-222.03550638 365.93639093 -214.57333286 369.89814237 -206.43359375 372.3203125 C-179.49448731 378.4053093 -151.37345788 373.84920648 -124.9921875 367.09765625 C-125.16524414 365.99454102 -125.16524414 365.99454102 -125.34179688 364.86914062 C-126.92342897 354.69793345 -128.3720916 344.50949857 -129.81494141 334.31787109 C-129.92112793 333.56844238 -130.02731445 332.81901367 -130.13671875 332.046875 C-130.2417572 331.30341827 -130.34679565 330.55996155 -130.45501709 329.79397583 C-130.66590581 328.31866431 -130.88089954 326.84393328 -131.10015869 325.36984253 C-131.59665484 322.01885 -132.02868829 318.70041454 -132.33886719 315.32470703 C-132.99765393 308.14105045 -132.99765393 308.14105045 -137.1953125 302.58984375 C-138.51865611 301.67906125 -139.86957764 300.80734496 -141.2421875 299.97265625 C-142.70309427 298.98364621 -144.16270655 297.99272163 -145.62109375 297 C-146.72348389 296.27659424 -146.72348389 296.27659424 -147.84814453 295.53857422 C-151.08638314 293.36229498 -154.13081536 290.96645301 -157.1796875 288.53515625 C-157.74453857 288.09091309 -158.30938965 287.64666992 -158.89135742 287.18896484 C-163.57858455 283.48516139 -168.14054363 279.63829528 -172.64331055 275.71264648 C-175.60537266 273.15600495 -178.57431179 271.00414105 -181.9921875 269.09765625 Z M119.0078125 269.09765625 C113.79967121 273.32470479 108.61548905 277.56173399 103.54736328 281.95581055 C95.38790004 289.00120816 86.73037156 295.330936 77.99975586 301.64648438 C77.34241455 302.12537109 76.68507324 302.60425781 76.0078125 303.09765625 C75.28601807 303.53851563 74.56422363 303.979375 73.82055664 304.43359375 C71.32748836 306.72218007 71.29767062 308.35761852 70.9140625 311.69140625 C70.76710938 312.85414063 70.62015625 314.016875 70.46875 315.21484375 C70.31664062 316.49617188 70.16453125 317.7775 70.0078125 319.09765625 C69.61660101 321.92277173 69.20094936 324.74424184 68.7890625 327.56640625 C68.57605002 329.05978579 68.36381948 330.55327707 68.15234375 332.046875 C68.04615723 332.79630371 67.9399707 333.54573242 67.83056641 334.31787109 C67.72405762 335.0702002 67.61754883 335.8225293 67.5078125 336.59765625 C66.06710296 346.77416585 64.60077741 356.94361735 63.0078125 367.09765625 C109.94323343 378.35182977 109.94323343 378.35182977 155.6015625 367.5625 C160.66094327 363.95686987 164.46634519 360.23290031 166.0078125 354.09765625 C168.81223268 331.86893626 153.99139158 309.78455376 141.06567383 292.79833984 C131.19299862 279.74276957 131.19299862 279.74276957 119.0078125 269.09765625 Z M-99.9921875 329.09765625 C-99.5410382 332.43200221 -99.07994625 335.76490331 -98.6171875 339.09765625 C-98.49085938 340.03222656 -98.36453125 340.96679688 -98.234375 341.9296875 C-97.46429373 347.43576856 -96.44774182 352.73109075 -94.9921875 358.09765625 C-91.80323354 356.99765897 -88.61630594 355.89189934 -85.4296875 354.78515625 C-84.53443359 354.47642578 -83.63917969 354.16769531 -82.71679688 353.84960938 C-77.71515612 352.10911168 -72.82945827 350.25418986 -67.9921875 348.09765625 C-70.2217002 345.66070578 -72.44390586 344.14112421 -75.34375 342.57421875 C-76.62185547 341.878125 -76.62185547 341.878125 -77.92578125 341.16796875 C-78.81394531 340.69101562 -79.70210937 340.2140625 -80.6171875 339.72265625 C-82.35946773 338.77751467 -84.10165579 337.83220316 -85.84375 336.88671875 C-86.69485352 336.4268457 -87.54595703 335.96697266 -88.42285156 335.49316406 C-92.29522615 333.3899245 -96.14506568 331.24665733 -99.9921875 329.09765625 Z M37.0078125 329.09765625 C36.31743896 329.50081055 35.62706543 329.90396484 34.91577148 330.31933594 C31.75914643 332.16244291 28.60223195 334.00505358 25.4453125 335.84765625 C24.35927734 336.481875 23.27324219 337.11609375 22.15429688 337.76953125 C16.78542642 340.90273224 11.41266272 344.02689486 6.0078125 347.09765625 C8.93844622 349.49898163 11.64714308 350.87672117 15.2109375 352.140625 C16.68046875 352.6675293 16.68046875 352.6675293 18.1796875 353.20507812 C19.19546875 353.56150391 20.21125 353.91792969 21.2578125 354.28515625 C22.2890625 354.65318359 23.3203125 355.02121094 24.3828125 355.40039062 C26.92234715 356.3056877 29.46398051 357.20452103 32.0078125 358.09765625 C34.9873724 353.62831639 35.31149505 348.83674741 36.1953125 343.59765625 C36.48051758 342.01017578 36.48051758 342.01017578 36.77148438 340.390625 C37.03348633 338.86888672 37.03348633 338.86888672 37.30078125 337.31640625 C37.4608667 336.38763672 37.62095215 335.45886719 37.78588867 334.50195312 C38.18351077 331.95460961 38.18351077 331.95460961 37.0078125 329.09765625 Z M-37.796875 368.1171875 C-39.24042358 368.77787231 -39.24042358 368.77787231 -40.71313477 369.4519043 C-41.75397217 369.93312744 -42.79480957 370.41435059 -43.8671875 370.91015625 C-53.95709597 375.47702469 -64.14402876 379.52128349 -74.5546875 383.28515625 C-75.56508087 383.65056015 -75.56508087 383.65056015 -76.59588623 384.02334595 C-80.39067156 385.39272104 -84.18953785 386.75028552 -87.9921875 388.09765625 C-80.57102534 415.64158502 -68.3681259 453.05351455 -42.9921875 469.09765625 C-42.0846875 469.71640625 -41.1771875 470.33515625 -40.2421875 470.97265625 C-34.45963611 472.97430865 -28.32140346 473.26991539 -22.49609375 471.21875 C-20.17268249 469.99865709 -18.10709564 468.64991902 -15.9921875 467.09765625 C-15.35023438 466.64777344 -14.70828125 466.19789063 -14.046875 465.734375 C8.30758202 448.22187527 19.14736142 414.34790854 26.0078125 388.09765625 C25.22994385 387.82203857 24.4520752 387.5464209 23.65063477 387.26245117 C19.95372841 385.94621684 16.260626 384.61974037 12.5703125 383.28515625 C11.89897278 383.04243988 11.22763306 382.79972351 10.53594971 382.5496521 C-0.28110315 378.62096732 -10.81978153 374.28405561 -21.27124023 369.4519043 C-22.23360596 369.01144775 -23.19597168 368.57099121 -24.1875 368.1171875 C-25.02297363 367.72635986 -25.85844727 367.33553223 -26.71923828 366.93286133 C-31.00830816 365.35682394 -33.8658602 366.27829138 -37.796875 368.1171875 Z " fill="#2A8CFF" transform="translate(286.9921875,8.90234375)"/>
<path d="M0 0 C9.47463573 6.94911196 16.95161439 16.64389635 19.421875 28.35546875 C20.71840454 42.36291128 19.58515159 54.65161646 11.046875 66.29296875 C3.79710687 74.80019131 -6.14121373 82.4819878 -17.66186523 83.54833984 C-32.20672027 84.0750382 -44.10662342 82.99872375 -55.65625 73.15625 C-63.78698313 65.53781916 -70.43729869 55.48683287 -70.8515625 44.046875 C-71.2686331 29.19654597 -69.07220246 17.55522171 -58.578125 6.35546875 C-43.56002846 -9.51550735 -18.09084176 -11.53976422 0 0 Z M-38.453125 30.48046875 C-40.14296751 34.79895517 -40.23773483 38.78217395 -39.578125 43.35546875 C-37.41513663 47.76155618 -35.18132021 50.55421845 -30.578125 52.35546875 C-25.53487116 53.03972932 -21.74735616 52.92945495 -17.140625 50.66796875 C-13.78156488 47.63662181 -11.88456869 45.61407227 -11.26171875 41.0234375 C-10.99598848 35.30595066 -11.60965348 31.75296422 -15.578125 27.35546875 C-19.41525696 23.96976408 -23.21213962 23.84255703 -28.140625 24.00390625 C-32.80338646 24.67641992 -35.43002792 27.05429206 -38.453125 30.48046875 Z " fill="#2A8CFF" transform="translate(281.578125,217.64453125)"/>
</svg>
