<?xml version="1.0" encoding="UTF-8"?>
<svg version="1.1" xmlns="http://www.w3.org/2000/svg" width="512" height="512">
<path d="M0 0 C0.76265974 -0.00297112 1.52531947 -0.00594224 2.31109011 -0.0090034 C4.87436611 -0.01769598 7.43759543 -0.01919911 10.00088501 -0.02069092 C11.83555705 -0.02531865 13.67022812 -0.03034325 15.50489807 -0.03573608 C20.49456607 -0.04886533 25.48422061 -0.05530592 30.47390318 -0.05974674 C33.58980841 -0.06267627 36.70570994 -0.06678082 39.82161331 -0.07125092 C49.56647868 -0.08492646 59.31133562 -0.09459316 69.05620992 -0.09845281 C80.31308365 -0.10293558 91.56983608 -0.12049344 102.82667291 -0.1494534 C111.52313276 -0.17105152 120.21955844 -0.18115607 128.91604483 -0.18249393 C134.11242624 -0.18354318 139.30869362 -0.18947673 144.50504684 -0.20731354 C149.39206225 -0.22376217 154.27887754 -0.22596535 159.16591072 -0.21717453 C160.96020734 -0.21640247 162.75451458 -0.22076911 164.54878426 -0.23063278 C166.99719946 -0.2433039 169.44490066 -0.23750217 171.89331055 -0.22705078 C172.60430731 -0.23510719 173.31530408 -0.24316359 174.0478462 -0.25146413 C178.39809154 -0.20799569 181.08780056 0.52446558 184.57363892 3.14044189 C186.06460571 4.88140869 186.06460571 4.88140869 187.33535767 6.90216064 C188.09405151 8.10171387 188.09405151 8.10171387 188.86807251 9.32550049 C192.00159411 14.49720162 195.10751597 19.6829904 198.17440796 24.89440918 C200.26891603 28.45263584 202.37210348 32.005719 204.47598267 35.55841064 C205.11663666 36.64043762 205.11663666 36.64043762 205.77023315 37.74432373 C210.28748129 45.36266881 214.88544849 52.93124674 219.50180054 60.48983765 C223.20546265 66.55416483 226.87826529 72.63158543 230.45254517 78.77325439 C231.05534302 79.80756592 231.65814087 80.84187744 232.27920532 81.90753174 C233.40664056 83.84931404 234.52775236 85.79478618 235.64151001 87.7444458 C236.37941772 89.01554199 236.37941772 89.01554199 237.13223267 90.31231689 C237.55818726 91.05578369 237.98414185 91.79925049 238.42300415 92.56524658 C238.80271362 93.08506104 239.1824231 93.60487549 239.57363892 94.14044189 C240.23363892 94.14044189 240.89363892 94.14044189 241.57363892 94.14044189 C243.20967791 91.81348226 243.20967791 91.81348226 244.89004517 88.78106689 C245.21797562 88.21407578 245.54590607 87.64708466 245.8837738 87.06291199 C246.59763937 85.82732772 247.30822412 84.58984364 248.01596069 83.35073853 C249.92955484 80.00197483 251.8681664 76.66772582 253.80410767 73.33184814 C254.4012558 72.30085747 254.4012558 72.30085747 255.01046753 71.2490387 C258.8973731 64.55127663 262.90899855 57.93461614 266.94863892 51.32794189 C271.59895574 43.72171142 276.20693871 36.09510504 280.72598267 28.40997314 C281.15735535 27.67763962 281.58872803 26.94530609 282.03317261 26.19078064 C284.13991076 22.61343946 286.2404548 19.03271119 288.33096313 15.44586182 C289.09518872 14.14598556 289.85966193 12.84625485 290.62442017 11.54669189 C290.96537216 10.95632645 291.30632416 10.365961 291.65760803 9.75770569 C294.29270696 5.30168056 296.55606639 1.81296607 301.57363892 0.14044189 C304.05835909 0.04074758 306.51511789 -0.00300941 309 0 C310.14398961 -0.00445668 310.14398961 -0.00445668 311.31109011 -0.0090034 C313.87436611 -0.01769598 316.43759543 -0.01919911 319.00088501 -0.02069092 C320.83555705 -0.02531865 322.67022812 -0.03034325 324.50489807 -0.03573608 C329.49456607 -0.04886533 334.48422061 -0.05530592 339.47390318 -0.05974674 C342.58980841 -0.06267627 345.70570994 -0.06678082 348.82161331 -0.07125092 C358.56647868 -0.08492646 368.31133562 -0.09459316 378.05620992 -0.09845281 C389.31308365 -0.10293558 400.56983608 -0.12049344 411.82667291 -0.1494534 C420.52313276 -0.17105152 429.21955844 -0.18115607 437.91604483 -0.18249393 C443.11242624 -0.18354318 448.30869362 -0.18947673 453.50504684 -0.20731354 C458.39206225 -0.22376217 463.27887754 -0.22596535 468.16591072 -0.21717453 C469.96020734 -0.21640247 471.75451458 -0.22076911 473.54878426 -0.23063278 C475.99719946 -0.2433039 478.44490066 -0.23750217 480.89331055 -0.22705078 C481.60430731 -0.23510719 482.31530408 -0.24316359 483.0478462 -0.25146413 C488.35216535 -0.19846241 491.28986651 1.32285455 495.34732056 4.55206299 C497.47513771 7.30810089 497.21738455 9.87739676 497.10440063 13.25469971 C496.04517993 19.01366415 492.73921284 23.640207 489.63613892 28.51544189 C488.90670058 29.69714558 488.17945022 30.88020231 487.45425415 32.06451416 C485.93865526 34.53288859 484.41143378 36.99345274 482.87442017 39.44854736 C480.65807896 42.99429719 478.48391202 46.56422549 476.32363892 50.14434814 C475.62588866 51.30011206 474.92813475 52.45587378 474.2303772 53.6116333 C473.88541199 54.18311096 473.54044678 54.75458862 473.18502808 55.34338379 C471.42277042 58.25764624 469.6505969 61.16585515 467.87832642 64.07403564 C463.50043866 71.25950495 459.12895609 78.44884677 454.76113892 85.64044189 C454.40254791 86.23074188 454.04395691 86.82104187 453.67449951 87.42922974 C449.28644784 94.6537204 444.91481202 101.88767081 440.57363892 109.14044189 C435.87415459 116.99184132 431.13708192 124.82010469 426.38613892 132.64044189 C425.84940048 133.52397339 425.84940048 133.52397339 425.30181885 134.425354 C422.35522477 139.2752821 419.40726024 144.12437685 416.45925903 148.97344971 C413.89259416 153.19540092 411.32644333 157.4176639 408.76113892 161.64044189 C408.40291046 162.23010742 408.04468201 162.81977295 407.67559814 163.42730713 C403.28718651 170.65244195 398.9151907 177.88703816 394.57363892 185.14044189 C389.87415459 192.99184132 385.13708192 200.82010469 380.38613892 208.64044189 C379.84940048 209.52397339 379.84940048 209.52397339 379.30181885 210.425354 C376.35522477 215.2752821 373.40726024 220.12437685 370.45925903 224.97344971 C367.89259416 229.19540092 365.32644333 233.4176639 362.76113892 237.64044189 C362.40291046 238.23010742 362.04468201 238.81977295 361.67559814 239.42730713 C357.28718651 246.65244195 352.9151907 253.88703816 348.57363892 261.14044189 C343.87415459 268.99184132 339.13708192 276.82010469 334.38613892 284.64044189 C334.02831329 285.22946289 333.67048767 285.81848389 333.30181885 286.425354 C330.35522477 291.2752821 327.40726024 296.12437685 324.45925903 300.97344971 C321.89259416 305.19540092 319.32644333 309.4176639 316.76113892 313.64044189 C316.40291046 314.23010742 316.04468201 314.81977295 315.67559814 315.42730713 C311.28718651 322.65244195 306.9151907 329.88703816 302.57363892 337.14044189 C297.87415459 344.99184132 293.13708192 352.82010469 288.38613892 360.64044189 C288.02831329 361.22946289 287.67048767 361.81848389 287.30181885 362.425354 C284.35522477 367.2752821 281.40726024 372.12437685 278.45925903 376.97344971 C276.25292932 380.60267941 274.04714177 384.23223773 271.84188843 387.86212158 C270.77080949 389.62452945 269.69886772 391.38641041 268.62686157 393.14825439 C265.38307942 398.48338393 262.15683391 403.82766443 258.97988892 409.20294189 C258.43179565 410.12784424 257.88370239 411.05274658 257.31900024 412.00567627 C256.3161458 413.70177487 255.31818527 415.40078159 254.32632446 417.10333252 C248.82348292 426.40390978 248.82348292 426.40390978 244.39004517 427.85528564 C243.27436157 427.96550049 243.27436157 427.96550049 242.13613892 428.07794189 C241.39492798 428.16946533 240.65371704 428.26098877 239.89004517 428.35528564 C236.0088422 427.99530898 233.36344924 426.04913524 230.8397522 423.14556885 C226.46046663 416.65151172 222.43302591 409.97976296 218.52450562 403.19451904 C216.66644964 399.97088099 214.79242659 396.7565679 212.91738892 393.54278564 C212.5445578 392.90354156 212.17172668 392.26429749 211.78759766 391.60568237 C208.59468281 386.14609071 205.30055249 380.75392379 201.94863892 375.39044189 C197.32995538 367.99767503 192.79743364 360.55935423 188.32363892 353.07794189 C182.97914131 344.14256676 177.60610442 335.22530232 172.19863892 326.32794189 C171.84649323 325.74841766 171.49434753 325.16889343 171.13153076 324.57180786 C168.97722483 321.0267109 166.82205714 317.48213848 164.66659546 313.93774414 C161.3635383 308.50606245 158.06166343 303.0736629 154.76113892 297.64044189 C154.22338837 296.75526382 154.22338837 296.75526382 153.67477417 295.85220337 C148.80999569 287.8427807 143.97190592 279.81790557 139.15908813 271.77716064 C134.92804017 264.71543179 130.6603704 257.67608333 126.38613892 250.64044189 C126.02831329 250.0514209 125.67048767 249.4623999 125.30181885 248.85552979 C122.72650743 244.61671206 120.15018016 240.37851215 117.57363892 236.14044189 C114.63545801 231.30752213 111.69769832 226.47434712 108.76113892 221.64044189 C108.40291046 221.05077637 108.04468201 220.46111084 107.67559814 219.85357666 C102.81054628 211.84369551 97.97218006 203.81836358 93.15908813 195.77716064 C88.92804017 188.71543179 84.6603704 181.67608333 80.38613892 174.64044189 C79.84940048 173.7569104 79.84940048 173.7569104 79.30181885 172.85552979 C76.72650743 168.61671206 74.15018016 164.37851215 71.57363892 160.14044189 C68.63545801 155.30752213 65.69769832 150.47434712 62.76113892 145.64044189 C62.40291046 145.05077637 62.04468201 144.46111084 61.67559814 143.85357666 C56.81054628 135.84369551 51.97218006 127.81836358 47.15908813 119.77716064 C42.92804017 112.71543179 38.6603704 105.67608333 34.38613892 98.64044189 C33.84940048 97.7569104 33.84940048 97.7569104 33.30181885 96.85552979 C30.72650743 92.61671206 28.15018016 88.37851215 25.57363892 84.14044189 C6.11016701 52.12559973 6.11016701 52.12559973 0.84487915 43.25421143 C-1.645897 39.06310595 -4.19337641 34.92217234 -6.82870483 30.82012939 C-7.38839966 29.93260986 -7.94809448 29.04509033 -8.52474976 28.13067627 C-9.58875916 26.44587675 -10.66978405 24.77164435 -11.77133179 23.11114502 C-15.23560207 17.57017664 -16.67245964 12.68968681 -15.42636108 6.14044189 C-11.01590997 0.2995742 -6.88222587 -0.00833498 0 0 Z " fill="#131414" transform="translate(15.426361083984375,41.85955810546875)"/>
<path d="M0 0 C9.13592569 -0.23213413 18.27083057 -0.40959222 27.4090662 -0.51812172 C31.65292372 -0.57022396 35.89475819 -0.6408277 40.13745117 -0.75439453 C44.23548019 -0.86339718 48.33156968 -0.92290859 52.43093681 -0.94877243 C53.99126159 -0.96719108 55.55148494 -1.00316465 57.11097908 -1.05730057 C69.30422949 -1.46357463 69.30422949 -1.46357463 73.43870544 2.1047821 C75.25301161 4.65954129 76.65617155 7.17390761 78 10 C78.63284912 10.97074463 79.26569824 11.94148926 79.91772461 12.94165039 C80.40764893 13.73563232 80.89757324 14.52961426 81.40234375 15.34765625 C81.97412354 16.26949707 82.54590332 17.19133789 83.13500977 18.14111328 C83.72983154 19.1051709 84.32465332 20.06922852 84.9375 21.0625 C90.25287086 29.62233534 95.62138094 38.14451874 101.0625 46.625 C101.72789795 47.66229248 102.3932959 48.69958496 103.07885742 49.76831055 C104.4061505 51.83714067 105.73354185 53.90590774 107.06103516 55.97460938 C114.91292023 68.22600195 122.70259848 80.51705629 130.46630859 92.82446289 C136.02524742 101.63269231 141.62199481 110.41680725 147.21777344 119.20166016 C150.72864692 124.71421247 154.23661503 130.22861405 157.74511719 135.74267578 C160.68587905 140.36422524 163.62736332 144.98531178 166.5703125 149.60546875 C172.55356973 159.00023229 178.52327876 168.4031591 184.46582031 177.82373047 C188.25554267 183.82850177 192.06208324 189.82243365 195.875 195.8125 C196.45080811 196.71782471 197.02661621 197.62314941 197.61987305 198.5559082 C200.72550427 203.43655531 203.83983152 208.31142438 206.96484375 213.1796875 C207.6088916 214.18539795 208.25293945 215.1911084 208.91650391 216.22729492 C210.15699654 218.16406715 211.40005992 220.09919584 212.64599609 222.0324707 C213.4805835 223.33704224 213.4805835 223.33704224 214.33203125 224.66796875 C214.82421143 225.43391357 215.3163916 226.1998584 215.82348633 226.98901367 C217 229 217 229 218 232 C222.59529561 234.49458905 226.74170092 234.56457477 231.75 233.3125 C234.15588849 232.22284865 234.15588849 232.22284865 234.78125 229.9765625 C236.55481396 225.64497359 239.16701075 221.95232949 241.75 218.0625 C242.93454392 216.25973855 244.11810391 214.45633029 245.30078125 212.65234375 C246.21851318 211.25411377 246.21851318 211.25411377 247.15478516 209.82763672 C250.11986411 205.28390235 253.03031034 200.70591433 255.9375 196.125 C256.51790039 195.21113525 257.09830078 194.29727051 257.69628906 193.35571289 C258.87577738 191.49806764 260.0549764 189.64023868 261.23388672 187.78222656 C264.15179938 183.18552589 267.07620468 178.59296022 270 174 C271.16669827 172.16668678 272.33336492 170.33335344 273.5 168.5 C299.16666667 128.16666667 324.83333333 87.83333333 350.5 47.5 C351.07814453 46.59145264 351.65628906 45.68290527 352.25195312 44.74682617 C353.41198286 42.92399174 354.57213794 41.10123709 355.73242188 39.27856445 C358.75169662 34.53526345 361.76840866 29.79035914 364.78125 25.04296875 C365.40386719 24.06263672 366.02648437 23.08230469 366.66796875 22.07226562 C367.84847429 20.21340989 369.02822069 18.35407171 370.20703125 16.49414062 C370.74714844 15.64400391 371.28726562 14.79386719 371.84375 13.91796875 C372.30974609 13.18344482 372.77574219 12.4489209 373.25585938 11.69213867 C374.11920898 10.35953003 374.11920898 10.35953003 375 9 C375.31873077 8.2479277 375.63746155 7.49585541 375.96585083 6.72099304 C377.37822919 3.86709861 378.56635992 2.07434652 381 0 C386.36295134 -1.28390598 391.64910163 -1.04915133 397.1171875 -0.87890625 C398.70041274 -0.86210601 400.28368499 -0.8493015 401.86697388 -0.84031677 C406.02094227 -0.80606055 410.1720479 -0.71775944 414.32489014 -0.61798096 C418.56776194 -0.52567176 422.81109956 -0.48475808 427.0546875 -0.43945312 C435.37110102 -0.34312196 443.68519378 -0.18966142 452 0 C451.22517984 1.57371549 450.44751729 3.14603167 449.66870117 4.71777344 C449.23595383 5.59351013 448.80320648 6.46924683 448.35734558 7.371521 C446.23722566 11.47710088 443.78561333 15.35042185 441.3125 19.25 C435.854997 27.96089229 430.52483314 36.74046075 425.25 45.5625 C419.34275938 55.43523053 413.4135588 65.2937546 407.4375 75.125 C407.08967468 75.69732361 406.74184937 76.26964722 406.38348389 76.85931396 C404.27709534 80.32490685 402.16965814 83.78986103 400.06182861 87.25457764 C396.83143209 92.56466842 393.60234369 97.87555321 390.375 103.1875 C389.84409256 104.06127289 389.84409256 104.06127289 389.30245972 104.95269775 C384.34173057 113.11925932 379.40940813 121.30246044 374.5 129.5 C369.23682572 138.28824459 363.94428184 147.05814233 358.625 155.8125 C358.27249176 156.39265869 357.91998352 156.97281738 357.55679321 157.57055664 C355.40285908 161.1150161 353.24803483 164.65893386 351.09295654 168.20269775 C347.78989939 173.63437944 344.48802451 179.066779 341.1875 184.5 C340.82899963 185.09011871 340.47049927 185.68023743 340.10113525 186.28823853 C335.71299737 193.51291509 331.34127765 200.74705426 327 208 C322.30051567 215.85139943 317.56344301 223.67966279 312.8125 231.5 C312.27576157 232.38353149 312.27576157 232.38353149 311.72817993 233.28491211 C308.78158585 238.13484021 305.83362132 242.98393496 302.88562012 247.83300781 C300.31895524 252.05495902 297.75280442 256.27722201 295.1875 260.5 C294.82927155 261.08966553 294.47104309 261.67933105 294.10195923 262.28686523 C289.71354759 269.51200006 285.34155178 276.74659626 281 284 C276.30051567 291.85139943 271.56344301 299.67966279 266.8125 307.5 C266.45467438 308.089021 266.09684875 308.67804199 265.72817993 309.28491211 C262.78158585 314.13484021 259.83362132 318.98393496 256.88562012 323.83300781 C254.31895524 328.05495904 251.75289366 332.27727622 249.1875 336.5 C248.83425659 337.08135712 248.48101318 337.66271423 248.11706543 338.26168823 C242.90597901 346.83950634 237.72194266 355.43315907 232.5769043 364.05078125 C232.13000244 364.7984375 231.68310059 365.54609375 231.22265625 366.31640625 C230.64656616 367.28235718 230.64656616 367.28235718 230.05883789 368.26782227 C229.07923891 369.87037121 228.04185888 371.43721168 227 373 C226.34 373 225.68 373 225 373 C223.48217773 370.87402344 223.48217773 370.87402344 221.68359375 367.859375 C221.01070312 366.74046875 220.3378125 365.6215625 219.64453125 364.46875 C218.90879668 363.22920079 218.17312126 361.98961646 217.4375 360.75 C216.67264686 359.47349553 215.90701009 358.1974603 215.140625 356.921875 C213.54625755 354.2667915 211.95531102 351.60970284 210.36669922 348.95117188 C207.12035981 343.52410939 203.83345026 338.121836 200.54602051 332.71960449 C198.78510663 329.82475167 197.02755444 326.92785885 195.26953125 324.03125 C192.7423159 319.86830668 190.21386922 315.70611432 187.68417358 311.54467773 C180.62158052 299.92638106 173.56842124 288.30312697 166.58544922 276.63671875 C160.17501053 265.93753021 153.68437448 255.28676903 147.20556641 244.62890625 C143.98740655 239.33454283 140.77252507 234.03818925 137.5574646 228.74194336 C135.78845055 225.82787675 134.01921376 222.91394537 132.25 220 C131.5416656 218.83333398 130.83333227 217.66666731 130.125 216.5 C129.774375 215.9225 129.42375 215.345 129.0625 214.75 C125.87499999 209.49999999 125.87499999 209.49999999 124.81257629 207.75012207 C124.10399289 206.58304592 123.39540525 205.41597236 122.68681335 204.24890137 C120.91977124 201.33852084 119.15280216 198.42809603 117.38598633 195.51757812 C114.15332415 190.19250205 110.92004793 184.86780267 107.68417358 179.54467773 C100.62158052 167.92638106 93.56842124 156.30312697 86.58544922 144.63671875 C80.17501053 133.93753021 73.68437448 123.28676903 67.20556641 112.62890625 C63.28221213 106.17439055 59.36344873 99.71708621 55.44390869 93.26025391 C54.38581277 91.51723446 53.32768475 89.7742345 52.26953125 88.03125 C51.91991333 87.45536133 51.57029541 86.87947266 51.21008301 86.28613281 C49.0358034 82.70502515 46.86038108 79.12461413 44.68417358 75.54467773 C37.63205249 63.94360795 30.58098467 52.34240463 23.6184082 40.68725586 C20.62409665 35.68235323 17.59801952 30.69783078 14.5546875 25.72265625 C13.7733811 24.44339382 12.99213123 23.16409686 12.2109375 21.88476562 C11.05242183 19.9875877 9.89266539 18.09123635 8.72851562 16.19750977 C7.64635298 14.43710687 6.56888416 12.67390591 5.4921875 10.91015625 C4.55415283 9.38080444 4.55415283 9.38080444 3.59716797 7.82055664 C2.14316857 5.25283192 1.06326144 2.74470107 0 0 Z " fill="#119083" transform="translate(30,64)"/>
<path d="M0 0 C7.71877336 -0.20892707 15.43725234 -0.36864028 23.15821266 -0.46630955 C26.74402645 -0.5132002 30.32790051 -0.57673688 33.91259766 -0.67895508 C37.3751959 -0.77706869 40.83593483 -0.83061876 44.29981613 -0.85389519 C46.25792634 -0.87851477 48.21529205 -0.94873008 50.17227173 -1.01966858 C58.8547315 -1.0245838 58.8547315 -1.0245838 62.03562927 1.82112122 C63.61202565 4.14484511 64.82155637 6.45416747 66 9 C66.70383469 10.18050255 67.42107936 11.35318262 68.15551758 12.51489258 C68.81189209 13.63017334 69.4682666 14.7454541 70.14453125 15.89453125 C70.5116925 16.51619171 70.87885376 17.13785217 71.25714111 17.77835083 C72.03963586 19.1034177 72.82110198 20.42909249 73.60159302 21.75534058 C75.69195894 25.30657615 77.79092163 28.85271693 79.890625 32.3984375 C80.53034996 33.47891609 80.53034996 33.47891609 81.18299866 34.58122253 C85.42320222 41.73230466 89.73491267 48.83906523 94.0625 55.9375 C98.57683626 63.34311665 103.06703867 70.75840857 107.4375 78.25 C110.69920693 83.82291434 113.99891885 89.37047938 117.375 94.875 C117.78032959 95.54821289 118.18565918 96.22142578 118.60327148 96.91503906 C120.68788823 100.28139283 122.49166452 103.06026162 126 105 C131.55191938 105.72255817 131.55191938 105.72255817 136.37817383 103.36938477 C139.35785555 100.67660042 141.03406979 98.06640272 143.046875 94.59375 C143.41504333 93.96569458 143.78321167 93.33763916 144.16253662 92.69055176 C144.95388386 91.33819976 145.7408009 89.9832474 146.52368164 88.62597656 C148.19840846 85.72262774 149.89437413 82.83188484 151.58911133 79.94018555 C152.45984213 78.45401418 153.3294638 76.96719245 154.19799805 75.47973633 C158.21686399 68.60247186 162.34537631 61.79583015 166.5 55 C171.06914463 47.51154417 175.60471378 40.00547483 180.07421875 32.45703125 C180.71491806 31.37517044 180.71491806 31.37517044 181.36856079 30.27145386 C183.4439211 26.76481057 185.51537421 23.25591977 187.58203125 19.74414062 C188.33980702 18.46091581 189.09761784 17.17771169 189.85546875 15.89453125 C190.84003052 14.22161011 190.84003052 14.22161011 191.84448242 12.51489258 C192.19162292 11.96579727 192.53876343 11.41670197 192.89642334 10.85096741 C194.07484099 8.94735925 194.07484099 8.94735925 195.11090088 6.6000824 C196.51735357 3.90300743 197.72731936 2.03319287 200 0 C204.57847208 -1.24944546 208.99502113 -1.04985335 213.7109375 -0.87890625 C215.04753315 -0.86210105 216.38418459 -0.84929887 217.72085571 -0.84031677 C221.22405492 -0.80609629 224.72384714 -0.71783707 228.22570801 -0.61798096 C231.804951 -0.52558782 235.38474973 -0.48474091 238.96484375 -0.43945312 C245.97795439 -0.34318915 252.9888133 -0.18977454 260 0 C258.89775846 1.90124535 257.79403393 3.80163099 256.68969727 5.70166016 C255.76798485 7.28921616 255.76798485 7.28921616 254.82765198 8.90884399 C252.32095052 13.1484943 249.65054604 17.26557756 246.9375 21.375 C245.79857735 23.11399304 244.66058976 24.85359876 243.5234375 26.59375 C242.94303711 27.48191406 242.36263672 28.37007812 241.76464844 29.28515625 C238.83297851 33.79541768 235.94634707 38.33406216 233.0625 42.875 C232.48169678 43.78942871 231.90089355 44.70385742 231.30249023 45.64599609 C230.12344108 47.50309217 228.9446491 49.36035155 227.76611328 51.21777344 C224.84820062 55.81447411 221.92379532 60.40703978 219 65 C217.83330173 66.83331322 216.66663508 68.66664656 215.5 70.5 C199.16666667 96.16666667 182.83333333 121.83333333 166.5 147.5 C165.9222583 148.40790283 165.3445166 149.31580566 164.74926758 150.2512207 C163.58512661 152.08053867 162.42090164 153.90980318 161.2565918 155.73901367 C158.30058334 160.38334261 155.34613891 165.02865404 152.39453125 169.67578125 C145.31515822 180.8180654 138.19340445 191.9309654 131 203 C127.32001944 201.77333981 126.9632045 200.78281895 124.98828125 197.53125 C124.11151733 196.10534546 124.11151733 196.10534546 123.21704102 194.65063477 C122.58854248 193.61092529 121.96004395 192.57121582 121.3125 191.5 C119.95441316 189.28957262 118.59499667 187.07996173 117.234375 184.87109375 C116.71007652 184.01680031 116.71007652 184.01680031 116.17518616 183.14524841 C112.54525233 177.23669431 108.81123719 171.39628435 105.0625 165.5625 C104.40113037 164.5314917 103.73976074 163.5004834 103.05834961 162.43823242 C101.71431638 160.34329898 100.3698336 158.2486539 99.02490234 156.15429688 C95.63693674 150.87668467 92.25581644 145.59469381 88.875 140.3125 C88.21137451 139.27577148 87.54774902 138.23904297 86.86401367 137.17089844 C80.79849611 127.69180556 74.75521022 118.19865498 68.71777344 108.70166016 C65.81326436 104.13353943 62.90650771 99.56684923 60 95 C58.8333228 93.16667337 57.66665613 91.33334004 56.5 89.5 C55.9225 88.5925 55.345 87.685 54.75 86.75 C35.5 56.5 35.5 56.5 33.74926758 53.7487793 C32.58512661 51.91946133 31.42090164 50.09019682 30.2565918 48.26098633 C27.30058334 43.61665739 24.34613891 38.97134596 21.39453125 34.32421875 C20.20060899 32.44525648 19.00659951 30.56634963 17.8125 28.6875 C17.23741699 27.78233643 16.66233398 26.87717285 16.06982422 25.94458008 C11.82413927 19.27132106 7.53620223 12.62629868 3.19848633 6.01245117 C0 1.10802441 0 1.10802441 0 0 Z " fill="#1791D3" transform="translate(126,64)"/>
</svg>
